  0
SECTION
  2
HEADER
  9
$ANGBASE
  50
0.0
  9
$ANGDIR
  70
1
  9
$MEASUREMENT
  70
1
  0
ENDSEC
  0
SECTION
  2
TABLES
  0
TABLE
  2
LTYPE
  70
4
  0
LTYPE
  5
40F
  2
CONTINUOUS
  70
0
  3
Solid line
  72
65
  73
0
  40
0.0
  0
LTYPE
  5
410
  2
DASHDOT
 70
0
  3
Dash Dot ____ _ ____ _
 72
65
 73
4
 40
2.0
 49
1.25
 49
-0.25
 49
0.25
 49
-0.25
  0
LTYPE
  5
411
  2
DASHED
 70
0
  3
Dashed __ __ __ __ __
 72
65
 73
2
 40
0.75
 49
0.5
 49
-0.25
  0
LTYPE
  5
43B
  2
DOTTED
 70
0
  3
Dotted .  .  .  .
 72
65
 73
2
 40
0.2
 49
0.0
 49
-0.2
  0
ENDTAB
  0
TABLE
  2
STYLE
  70
4
  0
STYLE
  2
KICAD
  70
0
  40
0
  41
1
  42
1
  50
0
  71
0
  3
isocp.shx
  0
STYLE
  2
KICADB
  70
0
  40
0
  41
1
  42
1
  50
0
  71
0
  3
isocp.shx
  0
STYLE
  2
KICADI
  70
0
  40
0
  41
1
  42
1
  50
15
  71
0
  3
isocp.shx
  0
STYLE
  2
KICADBI
  70
0
  40
0
  41
1
  42
1
  50
15
  71
0
  3
isocp.shx
  0
ENDTAB
  0
TABLE
  2
LAYER
  70
1
  0
LAYER
  2
BLACK
  70
0
  62
7
  6
CONTINUOUS
  0
ENDTAB
  0
ENDSEC
  0
SECTION
  2
ENTITIES
0
LINE
8
BLACK
6
CONTINUOUS
10
115.192
20
-168.143
11
115.192
21
-171.373
0
LINE
8
BLACK
6
CONTINUOUS
10
121.943
20
-168.143
11
161.567
21
-168.143
0
LINE
8
BLACK
6
CONTINUOUS
10
115.192
20
-171.373
11
121.943
21
-171.373
0
LINE
8
BLACK
6
CONTINUOUS
10
120.218
20
-157.874
11
116.917
21
-157.874
0
LINE
8
BLACK
6
CONTINUOUS
10
121.943
20
-171.373
11
121.943
21
-168.143
0
LINE
8
BLACK
6
CONTINUOUS
10
216.917
20
-159.074
11
215.192
21
-159.074
0
LINE
8
BLACK
6
CONTINUOUS
10
121.943
20
-163.543
11
121.943
21
-159.074
0
LINE
8
BLACK
6
CONTINUOUS
10
220.218
20
-159.074
11
220.218
21
-157.874
0
LINE
8
BLACK
6
CONTINUOUS
10
161.567
20
-168.143
11
161.567
21
-172.843
0
LINE
8
BLACK
6
CONTINUOUS
10
222.767
20
-165.344
11
221.943
21
-165.344
0
LINE
8
BLACK
6
CONTINUOUS
10
161.567
20
-172.843
11
175.568
21
-172.843
0
LINE
8
BLACK
6
CONTINUOUS
10
116.917
20
-159.074
11
115.192
21
-159.074
0
LINE
8
BLACK
6
CONTINUOUS
10
116.917
20
-157.874
11
116.917
21
-159.074
0
LINE
8
BLACK
6
CONTINUOUS
10
215.192
20
-159.074
11
215.192
21
-163.543
0
LINE
8
BLACK
6
CONTINUOUS
10
221.943
20
-165.344
11
221.943
21
-159.074
0
LINE
8
BLACK
6
CONTINUOUS
10
120.218
20
-159.074
11
120.218
21
-157.874
0
LINE
8
BLACK
6
CONTINUOUS
10
221.943
20
-159.074
11
220.218
21
-159.074
0
LINE
8
BLACK
6
CONTINUOUS
10
161.567
20
-163.543
11
121.943
21
-163.543
0
LINE
8
BLACK
6
CONTINUOUS
10
121.943
20
-159.074
11
120.218
21
-159.074
0
LINE
8
BLACK
6
CONTINUOUS
10
216.917
20
-157.874
11
216.917
21
-159.074
0
LINE
8
BLACK
6
CONTINUOUS
10
175.568
20
-158.844
11
161.567
21
-158.844
0
LINE
8
BLACK
6
CONTINUOUS
10
114.368
20
-168.143
11
115.192
21
-168.143
0
LINE
8
BLACK
6
CONTINUOUS
10
115.192
20
-159.074
11
115.192
21
-165.344
0
LINE
8
BLACK
6
CONTINUOUS
10
175.568
20
-163.543
11
175.568
21
-158.844
0
LINE
8
BLACK
6
CONTINUOUS
10
161.567
20
-158.844
11
161.567
21
-163.543
0
LINE
8
BLACK
6
CONTINUOUS
10
114.368
20
-165.344
11
114.368
21
-168.143
0
LINE
8
BLACK
6
CONTINUOUS
10
222.767
20
-168.143
11
222.767
21
-165.344
0
LINE
8
BLACK
6
CONTINUOUS
10
215.192
20
-163.543
11
175.568
21
-163.543
0
LINE
8
BLACK
6
CONTINUOUS
10
220.218
20
-157.874
11
216.917
21
-157.874
0
LINE
8
BLACK
6
CONTINUOUS
10
115.192
20
-165.344
11
114.368
21
-165.344
0
LINE
8
BLACK
6
CONTINUOUS
10
221.943
20
-171.373
11
221.943
21
-168.143
0
LINE
8
BLACK
6
CONTINUOUS
10
215.192
20
-171.373
11
221.943
21
-171.373
0
LINE
8
BLACK
6
CONTINUOUS
10
175.568
20
-168.143
11
215.192
21
-168.143
0
LINE
8
BLACK
6
CONTINUOUS
10
175.568
20
-172.843
11
175.568
21
-168.143
0
LINE
8
BLACK
6
CONTINUOUS
10
215.192
20
-168.143
11
215.192
21
-171.373
0
LINE
8
BLACK
6
CONTINUOUS
10
221.943
20
-168.143
11
222.767
21
-168.143
0
LINE
8
BLACK
6
CONTINUOUS
10
281.05
20
-144.497
11
281.05
21
-147.296
0
LINE
8
BLACK
6
CONTINUOUS
10
310.7
20
-154.766
11
310.7
21
-153.566
0
LINE
8
BLACK
6
CONTINUOUS
10
281.05
20
-147.296
11
281.876
21
-147.296
0
LINE
8
BLACK
6
CONTINUOUS
10
307.4
20
-153.566
11
307.4
21
-154.766
0
LINE
8
BLACK
6
CONTINUOUS
10
290.15
20
-149.097
11
290.15
21
-153.796
0
LINE
8
BLACK
6
CONTINUOUS
10
304.15
20
-144.497
11
304.15
21
-139.797
0
LINE
8
BLACK
6
CONTINUOUS
10
42.5009
20
-139.797
11
42.5009
21
-153.796
0
LINE
8
BLACK
6
CONTINUOUS
10
45.4761
20
-153.796
11
45.4761
21
-154.766
0
LINE
8
BLACK
6
CONTINUOUS
10
45.4761
20
-154.766
11
48.7751
21
-154.766
0
LINE
8
BLACK
6
CONTINUOUS
10
69.2748
20
-154.766
11
72.5752
21
-154.766
0
LINE
8
BLACK
6
CONTINUOUS
10
304.15
20
-153.796
11
304.15
21
-149.097
0
LINE
8
BLACK
6
CONTINUOUS
10
310.7
20
-153.566
11
312.425
21
-153.566
0
LINE
8
BLACK
6
CONTINUOUS
10
305.676
20
-153.566
11
307.4
21
-153.566
0
LINE
8
BLACK
6
CONTINUOUS
10
286.9
20
-153.566
11
288.626
21
-153.566
0
LINE
8
BLACK
6
CONTINUOUS
10
305.676
20
-141.267
11
305.676
21
-144.497
0
LINE
8
BLACK
6
CONTINUOUS
10
72.5752
20
-154.766
11
72.5752
21
-153.796
0
LINE
8
BLACK
6
CONTINUOUS
10
77.9315
20
-153.796
11
77.9315
21
-139.797
0
LINE
8
BLACK
6
CONTINUOUS
10
42.5009
20
-153.796
11
45.4761
21
-153.796
0
LINE
8
BLACK
6
CONTINUOUS
10
286.9
20
-154.766
11
286.9
21
-153.566
0
LINE
8
BLACK
6
CONTINUOUS
10
430.646
20
-139.797
11
444.644
21
-139.797
0
LINE
8
BLACK
6
CONTINUOUS
10
304.15
20
-149.097
11
305.676
21
-149.097
0
LINE
8
BLACK
6
CONTINUOUS
10
313.251
20
-144.497
11
312.425
21
-144.497
0
LINE
8
BLACK
6
CONTINUOUS
10
48.7751
20
-154.766
11
48.7751
21
-153.796
0
LINE
8
BLACK
6
CONTINUOUS
10
288.626
20
-149.097
11
290.15
21
-149.097
0
LINE
8
BLACK
6
CONTINUOUS
10
72.5752
20
-153.796
11
77.9315
21
-153.796
0
LINE
8
BLACK
6
CONTINUOUS
10
48.7751
20
-153.796
11
69.2748
21
-153.796
0
LINE
8
BLACK
6
CONTINUOUS
10
77.9315
20
-139.797
11
42.5009
21
-139.797
0
LINE
8
BLACK
6
CONTINUOUS
10
283.601
20
-153.566
11
283.601
21
-154.766
0
LINE
8
BLACK
6
CONTINUOUS
10
444.644
20
-153.796
11
430.646
21
-153.796
0
LINE
8
BLACK
6
CONTINUOUS
10
288.626
20
-153.566
11
288.626
21
-149.097
0
LINE
8
BLACK
6
CONTINUOUS
10
444.644
20
-139.797
11
444.644
21
-153.796
0
LINE
8
BLACK
6
CONTINUOUS
10
312.425
20
-141.267
11
305.676
21
-141.267
0
LINE
8
BLACK
6
CONTINUOUS
10
305.676
20
-144.497
11
304.15
21
-144.497
0
LINE
8
BLACK
6
CONTINUOUS
10
69.2748
20
-153.796
11
69.2748
21
-154.766
0
LINE
8
BLACK
6
CONTINUOUS
10
305.676
20
-149.097
11
305.676
21
-153.566
0
LINE
8
BLACK
6
CONTINUOUS
10
304.15
20
-139.797
11
290.15
21
-139.797
0
LINE
8
BLACK
6
CONTINUOUS
10
430.646
20
-153.796
11
430.646
21
-139.797
0
LINE
8
BLACK
6
CONTINUOUS
10
290.15
20
-153.796
11
304.15
21
-153.796
0
LINE
8
BLACK
6
CONTINUOUS
10
281.876
20
-147.296
11
281.876
21
-153.566
0
LINE
8
BLACK
6
CONTINUOUS
10
281.876
20
-153.566
11
283.601
21
-153.566
0
LINE
8
BLACK
6
CONTINUOUS
10
283.601
20
-154.766
11
286.9
21
-154.766
0
LINE
8
BLACK
6
CONTINUOUS
10
313.251
20
-147.296
11
313.251
21
-144.497
0
LINE
8
BLACK
6
CONTINUOUS
10
312.425
20
-147.296
11
313.251
21
-147.296
0
LINE
8
BLACK
6
CONTINUOUS
10
307.4
20
-154.766
11
310.7
21
-154.766
0
LINE
8
BLACK
6
CONTINUOUS
10
312.425
20
-144.497
11
312.425
21
-141.267
0
LINE
8
BLACK
6
CONTINUOUS
10
312.425
20
-153.566
11
312.425
21
-147.296
0
LINE
8
BLACK
6
CONTINUOUS
10
424.346
20
-166.346
11
425.171
21
-166.346
0
LINE
8
BLACK
6
CONTINUOUS
10
425.171
20
-166.346
11
425.171
21
-163.547
0
LINE
8
BLACK
6
CONTINUOUS
10
417.593
20
-163.547
11
416.069
21
-163.547
0
LINE
8
BLACK
6
CONTINUOUS
10
417.593
20
-160.317
11
417.593
21
-163.547
0
LINE
8
BLACK
6
CONTINUOUS
10
424.346
20
-160.317
11
417.593
21
-160.317
0
LINE
8
BLACK
6
CONTINUOUS
10
416.069
20
-163.547
11
416.069
21
-158.847
0
LINE
8
BLACK
6
CONTINUOUS
10
422.62
20
-173.816
11
422.62
21
-172.616
0
LINE
8
BLACK
6
CONTINUOUS
10
425.171
20
-163.547
11
424.346
21
-163.547
0
LINE
8
BLACK
6
CONTINUOUS
10
417.593
20
-172.616
11
419.318
21
-172.616
0
LINE
8
BLACK
6
CONTINUOUS
10
419.318
20
-173.816
11
422.62
21
-173.816
0
LINE
8
BLACK
6
CONTINUOUS
10
424.346
20
-172.616
11
424.346
21
-166.346
0
LINE
8
BLACK
6
CONTINUOUS
10
424.346
20
-163.547
11
424.346
21
-160.317
0
LINE
8
BLACK
6
CONTINUOUS
10
416.069
20
-158.847
11
402.071
21
-158.847
0
LINE
8
BLACK
6
CONTINUOUS
10
422.62
20
-172.616
11
424.346
21
-172.616
0
LINE
8
BLACK
6
CONTINUOUS
10
417.593
20
-168.147
11
417.593
21
-172.616
0
LINE
8
BLACK
6
CONTINUOUS
10
419.318
20
-172.616
11
419.318
21
-173.816
0
LINE
8
BLACK
6
CONTINUOUS
10
444.644
20
-172.846
11
430.646
21
-172.846
0
LINE
8
BLACK
6
CONTINUOUS
10
368.732
20
-158.847
11
382.732
21
-158.847
0
LINE
8
BLACK
6
CONTINUOUS
10
349.682
20
-158.847
11
363.682
21
-158.847
0
LINE
8
BLACK
6
CONTINUOUS
10
363.682
20
-158.847
11
363.682
21
-172.846
0
LINE
8
BLACK
6
CONTINUOUS
10
382.732
20
-172.846
11
368.732
21
-172.846
0
LINE
8
BLACK
6
CONTINUOUS
10
330.632
20
-158.847
11
344.632
21
-158.847
0
LINE
8
BLACK
6
CONTINUOUS
10
344.632
20
-158.847
11
344.632
21
-172.846
0
LINE
8
BLACK
6
CONTINUOUS
10
430.646
20
-172.846
11
430.646
21
-158.847
0
LINE
8
BLACK
6
CONTINUOUS
10
363.682
20
-172.846
11
349.682
21
-172.846
0
LINE
8
BLACK
6
CONTINUOUS
10
344.632
20
-172.846
11
330.632
21
-172.846
0
LINE
8
BLACK
6
CONTINUOUS
10
330.632
20
-172.846
11
330.632
21
-158.847
0
LINE
8
BLACK
6
CONTINUOUS
10
304.437
20
-158.847
11
318.438
21
-158.847
0
LINE
8
BLACK
6
CONTINUOUS
10
382.732
20
-158.847
11
382.732
21
-172.846
0
LINE
8
BLACK
6
CONTINUOUS
10
368.732
20
-172.846
11
368.732
21
-158.847
0
LINE
8
BLACK
6
CONTINUOUS
10
349.682
20
-172.846
11
349.682
21
-158.847
0
LINE
8
BLACK
6
CONTINUOUS
10
444.644
20
-158.847
11
444.644
21
-172.846
0
LINE
8
BLACK
6
CONTINUOUS
10
430.646
20
-158.847
11
444.644
21
-158.847
0
LINE
8
BLACK
6
CONTINUOUS
10
416.069
20
-168.147
11
417.593
21
-168.147
0
LINE
8
BLACK
6
CONTINUOUS
10
402.071
20
-163.547
11
400.544
21
-163.547
0
LINE
8
BLACK
6
CONTINUOUS
10
393.795
20
-160.317
11
393.795
21
-163.547
0
LINE
8
BLACK
6
CONTINUOUS
10
393.795
20
-163.547
11
392.969
21
-163.547
0
LINE
8
BLACK
6
CONTINUOUS
10
393.795
20
-166.346
11
393.795
21
-172.616
0
LINE
8
BLACK
6
CONTINUOUS
10
393.795
20
-172.616
11
395.52
21
-172.616
0
LINE
8
BLACK
6
CONTINUOUS
10
398.819
20
-173.816
11
398.819
21
-172.616
0
LINE
8
BLACK
6
CONTINUOUS
10
400.544
20
-163.547
11
400.544
21
-160.317
0
LINE
8
BLACK
6
CONTINUOUS
10
402.071
20
-158.847
11
402.071
21
-163.547
0
LINE
8
BLACK
6
CONTINUOUS
10
400.544
20
-160.317
11
393.795
21
-160.317
0
LINE
8
BLACK
6
CONTINUOUS
10
392.969
20
-163.547
11
392.969
21
-166.346
0
LINE
8
BLACK
6
CONTINUOUS
10
395.52
20
-172.616
11
395.52
21
-173.816
0
LINE
8
BLACK
6
CONTINUOUS
10
392.969
20
-166.346
11
393.795
21
-166.346
0
LINE
8
BLACK
6
CONTINUOUS
10
395.52
20
-173.816
11
398.819
21
-173.816
0
LINE
8
BLACK
6
CONTINUOUS
10
398.819
20
-172.616
11
400.544
21
-172.616
0
LINE
8
BLACK
6
CONTINUOUS
10
400.544
20
-172.616
11
400.544
21
-168.147
0
LINE
8
BLACK
6
CONTINUOUS
10
400.544
20
-168.147
11
402.071
21
-168.147
0
LINE
8
BLACK
6
CONTINUOUS
10
402.071
20
-168.147
11
402.071
21
-172.846
0
LINE
8
BLACK
6
CONTINUOUS
10
402.071
20
-172.846
11
416.069
21
-172.846
0
LINE
8
BLACK
6
CONTINUOUS
10
416.069
20
-172.846
11
416.069
21
-168.147
0
LINE
8
BLACK
6
CONTINUOUS
10
430.646
20
-115.696
11
430.646
21
-101.697
0
LINE
8
BLACK
6
CONTINUOUS
10
449.925
20
-126.747
11
449.925
21
-128.472
0
LINE
8
BLACK
6
CONTINUOUS
10
363.682
20
-101.697
11
363.682
21
-115.696
0
LINE
8
BLACK
6
CONTINUOUS
10
448.726
20
-107.971
11
449.925
21
-107.971
0
LINE
8
BLACK
6
CONTINUOUS
10
458.995
20
-126.747
11
458.995
21
-125.221
0
LINE
8
BLACK
6
CONTINUOUS
10
448.726
20
-128.472
11
448.726
21
-131.771
0
LINE
8
BLACK
6
CONTINUOUS
10
458.995
20
-133.496
11
462.227
21
-133.496
0
LINE
8
BLACK
6
CONTINUOUS
10
448.726
20
-104.672
11
448.726
21
-107.971
0
LINE
8
BLACK
6
CONTINUOUS
10
454.395
20
-126.747
11
449.925
21
-126.747
0
LINE
8
BLACK
6
CONTINUOUS
10
448.726
20
-131.771
11
449.925
21
-131.771
0
LINE
8
BLACK
6
CONTINUOUS
10
430.646
20
-101.697
11
444.644
21
-101.697
0
LINE
8
BLACK
6
CONTINUOUS
10
444.644
20
-101.697
11
444.644
21
-115.696
0
LINE
8
BLACK
6
CONTINUOUS
10
444.644
20
-115.696
11
430.646
21
-115.696
0
LINE
8
BLACK
6
CONTINUOUS
10
411.596
20
-101.697
11
425.594
21
-101.697
0
LINE
8
BLACK
6
CONTINUOUS
10
425.594
20
-101.697
11
425.594
21
-115.696
0
LINE
8
BLACK
6
CONTINUOUS
10
392.546
20
-101.697
11
406.544
21
-101.697
0
LINE
8
BLACK
6
CONTINUOUS
10
392.546
20
-115.696
11
392.546
21
-101.697
0
LINE
8
BLACK
6
CONTINUOUS
10
456.194
20
-134.322
11
458.995
21
-134.322
0
LINE
8
BLACK
6
CONTINUOUS
10
458.995
20
-111.222
11
458.995
21
-109.697
0
LINE
8
BLACK
6
CONTINUOUS
10
406.544
20
-101.697
11
406.544
21
-115.696
0
LINE
8
BLACK
6
CONTINUOUS
10
458.995
20
-125.221
11
463.694
21
-125.221
0
LINE
8
BLACK
6
CONTINUOUS
10
449.925
20
-131.771
11
449.925
21
-133.496
0
LINE
8
BLACK
6
CONTINUOUS
10
458.995
20
-134.322
11
458.995
21
-133.496
0
LINE
8
BLACK
6
CONTINUOUS
10
47.262
20
-134.746
11
47.262
21
-120.747
0
LINE
8
BLACK
6
CONTINUOUS
10
449.925
20
-102.947
11
449.925
21
-104.672
0
LINE
8
BLACK
6
CONTINUOUS
10
449.925
20
-107.971
11
449.925
21
-109.697
0
LINE
8
BLACK
6
CONTINUOUS
10
462.227
20
-102.947
11
458.995
21
-102.947
0
LINE
8
BLACK
6
CONTINUOUS
10
456.194
20
-102.947
11
449.925
21
-102.947
0
LINE
8
BLACK
6
CONTINUOUS
10
382.732
20
-101.697
11
382.732
21
-115.696
0
LINE
8
BLACK
6
CONTINUOUS
10
449.696
20
-111.222
11
449.696
21
-125.221
0
LINE
8
BLACK
6
CONTINUOUS
10
458.995
20
-102.947
11
458.995
21
-102.121
0
LINE
8
BLACK
6
CONTINUOUS
10
61.2629
20
-120.747
11
61.2629
21
-134.746
0
LINE
8
BLACK
6
CONTINUOUS
10
458.995
20
-102.121
11
456.194
21
-102.121
0
LINE
8
BLACK
6
CONTINUOUS
10
462.227
20
-109.697
11
462.227
21
-102.947
0
LINE
8
BLACK
6
CONTINUOUS
10
449.925
20
-128.472
11
448.726
21
-128.472
0
LINE
8
BLACK
6
CONTINUOUS
10
456.194
20
-133.496
11
456.194
21
-134.322
0
LINE
8
BLACK
6
CONTINUOUS
10
61.2629
20
-134.746
11
47.262
21
-134.746
0
LINE
8
BLACK
6
CONTINUOUS
10
454.395
20
-125.221
11
454.395
21
-126.747
0
LINE
8
BLACK
6
CONTINUOUS
10
462.227
20
-133.496
11
462.227
21
-126.747
0
LINE
8
BLACK
6
CONTINUOUS
10
463.694
20
-125.221
11
463.694
21
-111.222
0
LINE
8
BLACK
6
CONTINUOUS
10
463.694
20
-111.222
11
458.995
21
-111.222
0
LINE
8
BLACK
6
CONTINUOUS
10
382.732
20
-115.696
11
368.732
21
-115.696
0
LINE
8
BLACK
6
CONTINUOUS
10
449.925
20
-109.697
11
454.395
21
-109.697
0
LINE
8
BLACK
6
CONTINUOUS
10
454.395
20
-111.222
11
449.696
21
-111.222
0
LINE
8
BLACK
6
CONTINUOUS
10
73.4572
20
-134.746
11
73.4572
21
-120.747
0
LINE
8
BLACK
6
CONTINUOUS
10
368.732
20
-115.696
11
368.732
21
-101.697
0
LINE
8
BLACK
6
CONTINUOUS
10
462.227
20
-126.747
11
458.995
21
-126.747
0
LINE
8
BLACK
6
CONTINUOUS
10
454.395
20
-109.697
11
454.395
21
-111.222
0
LINE
8
BLACK
6
CONTINUOUS
10
449.925
20
-104.672
11
448.726
21
-104.672
0
LINE
8
BLACK
6
CONTINUOUS
10
87.4565
20
-134.746
11
73.4572
21
-134.746
0
LINE
8
BLACK
6
CONTINUOUS
10
449.696
20
-125.221
11
454.395
21
-125.221
0
LINE
8
BLACK
6
CONTINUOUS
10
425.594
20
-115.696
11
411.596
21
-115.696
0
LINE
8
BLACK
6
CONTINUOUS
10
449.925
20
-133.496
11
456.194
21
-133.496
0
LINE
8
BLACK
6
CONTINUOUS
10
368.732
20
-101.697
11
382.732
21
-101.697
0
LINE
8
BLACK
6
CONTINUOUS
10
349.682
20
-101.697
11
363.682
21
-101.697
0
LINE
8
BLACK
6
CONTINUOUS
10
456.194
20
-102.121
11
456.194
21
-102.947
0
LINE
8
BLACK
6
CONTINUOUS
10
47.262
20
-120.747
11
61.2629
21
-120.747
0
LINE
8
BLACK
6
CONTINUOUS
10
406.544
20
-115.696
11
392.546
21
-115.696
0
LINE
8
BLACK
6
CONTINUOUS
10
411.596
20
-115.696
11
411.596
21
-101.697
0
LINE
8
BLACK
6
CONTINUOUS
10
458.995
20
-109.697
11
462.227
21
-109.697
0
LINE
8
BLACK
6
CONTINUOUS
10
259.195
20
-115.696
11
259.195
21
-101.697
0
LINE
8
BLACK
6
CONTINUOUS
10
240.145
20
-115.696
11
240.145
21
-101.697
0
LINE
8
BLACK
6
CONTINUOUS
10
235.094
20
-115.696
11
221.095
21
-115.696
0
LINE
8
BLACK
6
CONTINUOUS
10
254.144
20
-115.696
11
240.145
21
-115.696
0
LINE
8
BLACK
6
CONTINUOUS
10
196.994
20
-101.697
11
196.994
21
-115.696
0
LINE
8
BLACK
6
CONTINUOUS
10
278.245
20
-101.697
11
292.244
21
-101.697
0
LINE
8
BLACK
6
CONTINUOUS
10
254.144
20
-101.697
11
254.144
21
-115.696
0
LINE
8
BLACK
6
CONTINUOUS
10
344.632
20
-101.697
11
344.632
21
-115.696
0
LINE
8
BLACK
6
CONTINUOUS
10
273.194
20
-115.696
11
259.195
21
-115.696
0
LINE
8
BLACK
6
CONTINUOUS
10
221.095
20
-101.697
11
235.094
21
-101.697
0
LINE
8
BLACK
6
CONTINUOUS
10
330.632
20
-115.696
11
330.632
21
-101.697
0
LINE
8
BLACK
6
CONTINUOUS
10
330.632
20
-101.697
11
344.632
21
-101.697
0
LINE
8
BLACK
6
CONTINUOUS
10
344.632
20
-115.696
11
330.632
21
-115.696
0
LINE
8
BLACK
6
CONTINUOUS
10
292.244
20
-115.696
11
278.245
21
-115.696
0
LINE
8
BLACK
6
CONTINUOUS
10
240.145
20
-101.697
11
254.144
21
-101.697
0
LINE
8
BLACK
6
CONTINUOUS
10
221.095
20
-115.696
11
221.095
21
-101.697
0
LINE
8
BLACK
6
CONTINUOUS
10
273.194
20
-101.697
11
273.194
21
-115.696
0
LINE
8
BLACK
6
CONTINUOUS
10
202.045
20
-115.696
11
202.045
21
-101.697
0
LINE
8
BLACK
6
CONTINUOUS
10
216.044
20
-101.697
11
216.044
21
-115.696
0
LINE
8
BLACK
6
CONTINUOUS
10
292.244
20
-101.697
11
292.244
21
-115.696
0
LINE
8
BLACK
6
CONTINUOUS
10
259.195
20
-101.697
11
273.194
21
-101.697
0
LINE
8
BLACK
6
CONTINUOUS
10
235.094
20
-101.697
11
235.094
21
-115.696
0
LINE
8
BLACK
6
CONTINUOUS
10
202.045
20
-101.697
11
216.044
21
-101.697
0
LINE
8
BLACK
6
CONTINUOUS
10
216.044
20
-115.696
11
202.045
21
-115.696
0
LINE
8
BLACK
6
CONTINUOUS
10
349.682
20
-115.696
11
349.682
21
-101.697
0
LINE
8
BLACK
6
CONTINUOUS
10
278.245
20
-115.696
11
278.245
21
-101.697
0
LINE
8
BLACK
6
CONTINUOUS
10
182.995
20
-101.697
11
196.994
21
-101.697
0
LINE
8
BLACK
6
CONTINUOUS
10
363.682
20
-115.696
11
349.682
21
-115.696
0
LINE
8
BLACK
6
CONTINUOUS
10
270.813
20
-158.847
11
270.813
21
-172.846
0
LINE
8
BLACK
6
CONTINUOUS
10
256.812
20
-172.846
11
256.812
21
-158.847
0
LINE
8
BLACK
6
CONTINUOUS
10
318.438
20
-172.846
11
304.437
21
-172.846
0
LINE
8
BLACK
6
CONTINUOUS
10
294.625
20
-158.847
11
294.625
21
-172.846
0
LINE
8
BLACK
6
CONTINUOUS
10
233.001
20
-158.847
11
247
21
-158.847
0
LINE
8
BLACK
6
CONTINUOUS
10
256.812
20
-158.847
11
270.813
21
-158.847
0
LINE
8
BLACK
6
CONTINUOUS
10
247
20
-158.847
11
247
21
-172.846
0
LINE
8
BLACK
6
CONTINUOUS
10
66.312
20
-158.847
11
80.3128
21
-158.847
0
LINE
8
BLACK
6
CONTINUOUS
10
304.437
20
-172.846
11
304.437
21
-158.847
0
LINE
8
BLACK
6
CONTINUOUS
10
90.126
20
-158.847
11
104.125
21
-158.847
0
LINE
8
BLACK
6
CONTINUOUS
10
280.626
20
-158.847
11
294.625
21
-158.847
0
LINE
8
BLACK
6
CONTINUOUS
10
104.125
20
-158.847
11
104.125
21
-172.846
0
LINE
8
BLACK
6
CONTINUOUS
10
294.625
20
-172.846
11
280.626
21
-172.846
0
LINE
8
BLACK
6
CONTINUOUS
10
270.813
20
-172.846
11
256.812
21
-172.846
0
LINE
8
BLACK
6
CONTINUOUS
10
104.125
20
-172.846
11
90.126
21
-172.846
0
LINE
8
BLACK
6
CONTINUOUS
10
318.438
20
-158.847
11
318.438
21
-172.846
0
LINE
8
BLACK
6
CONTINUOUS
10
90.126
20
-172.846
11
90.126
21
-158.847
0
LINE
8
BLACK
6
CONTINUOUS
10
233.001
20
-172.846
11
233.001
21
-158.847
0
LINE
8
BLACK
6
CONTINUOUS
10
247
20
-172.846
11
233.001
21
-172.846
0
LINE
8
BLACK
6
CONTINUOUS
10
80.3128
20
-158.847
11
80.3128
21
-172.846
0
LINE
8
BLACK
6
CONTINUOUS
10
80.3128
20
-172.846
11
66.312
21
-172.846
0
LINE
8
BLACK
6
CONTINUOUS
10
66.312
20
-172.846
11
66.312
21
-158.847
0
LINE
8
BLACK
6
CONTINUOUS
10
280.626
20
-172.846
11
280.626
21
-158.847
0
LINE
8
BLACK
6
CONTINUOUS
10
448.726
20
-166.572
11
448.726
21
-169.871
0
LINE
8
BLACK
6
CONTINUOUS
10
448.726
20
-146.071
11
449.925
21
-146.071
0
LINE
8
BLACK
6
CONTINUOUS
10
449.925
20
-141.047
11
449.925
21
-142.772
0
LINE
8
BLACK
6
CONTINUOUS
10
42.5009
20
-172.846
11
42.5009
21
-158.847
0
LINE
8
BLACK
6
CONTINUOUS
10
454.395
20
-163.321
11
454.395
21
-164.847
0
LINE
8
BLACK
6
CONTINUOUS
10
56.5004
20
-172.846
11
42.5009
21
-172.846
0
LINE
8
BLACK
6
CONTINUOUS
10
448.726
20
-169.871
11
449.925
21
-169.871
0
LINE
8
BLACK
6
CONTINUOUS
10
449.925
20
-142.772
11
448.726
21
-142.772
0
LINE
8
BLACK
6
CONTINUOUS
10
454.395
20
-149.322
11
449.696
21
-149.322
0
LINE
8
BLACK
6
CONTINUOUS
10
449.925
20
-164.847
11
449.925
21
-166.572
0
LINE
8
BLACK
6
CONTINUOUS
10
42.5009
20
-158.847
11
56.5004
21
-158.847
0
LINE
8
BLACK
6
CONTINUOUS
10
456.194
20
-140.221
11
456.194
21
-141.047
0
LINE
8
BLACK
6
CONTINUOUS
10
449.925
20
-147.796
11
454.395
21
-147.796
0
LINE
8
BLACK
6
CONTINUOUS
10
456.194
20
-141.047
11
449.925
21
-141.047
0
LINE
8
BLACK
6
CONTINUOUS
10
449.925
20
-169.871
11
449.925
21
-171.596
0
LINE
8
BLACK
6
CONTINUOUS
10
56.5004
20
-158.847
11
56.5004
21
-172.846
0
LINE
8
BLACK
6
CONTINUOUS
10
448.726
20
-142.772
11
448.726
21
-146.071
0
LINE
8
BLACK
6
CONTINUOUS
10
449.696
20
-149.322
11
449.696
21
-163.321
0
LINE
8
BLACK
6
CONTINUOUS
10
449.696
20
-163.321
11
454.395
21
-163.321
0
LINE
8
BLACK
6
CONTINUOUS
10
454.395
20
-164.847
11
449.925
21
-164.847
0
LINE
8
BLACK
6
CONTINUOUS
10
449.925
20
-146.071
11
449.925
21
-147.796
0
LINE
8
BLACK
6
CONTINUOUS
10
454.395
20
-147.796
11
454.395
21
-149.322
0
LINE
8
BLACK
6
CONTINUOUS
10
449.925
20
-166.572
11
448.726
21
-166.572
0
LINE
8
BLACK
6
CONTINUOUS
10
462.227
20
-164.847
11
458.995
21
-164.847
0
LINE
8
BLACK
6
CONTINUOUS
10
456.194
20
-172.422
11
458.995
21
-172.422
0
LINE
8
BLACK
6
CONTINUOUS
10
290.15
20
-139.797
11
290.15
21
-144.497
0
LINE
8
BLACK
6
CONTINUOUS
10
288.626
20
-144.497
11
288.626
21
-141.267
0
LINE
8
BLACK
6
CONTINUOUS
10
288.626
20
-141.267
11
281.876
21
-141.267
0
LINE
8
BLACK
6
CONTINUOUS
10
281.876
20
-141.267
11
281.876
21
-144.497
0
LINE
8
BLACK
6
CONTINUOUS
10
458.995
20
-164.847
11
458.995
21
-163.321
0
LINE
8
BLACK
6
CONTINUOUS
10
458.995
20
-172.422
11
458.995
21
-171.596
0
LINE
8
BLACK
6
CONTINUOUS
10
458.995
20
-147.796
11
462.227
21
-147.796
0
LINE
8
BLACK
6
CONTINUOUS
10
290.15
20
-144.497
11
288.626
21
-144.497
0
LINE
8
BLACK
6
CONTINUOUS
10
463.694
20
-163.321
11
463.694
21
-149.322
0
LINE
8
BLACK
6
CONTINUOUS
10
281.876
20
-144.497
11
281.05
21
-144.497
0
LINE
8
BLACK
6
CONTINUOUS
10
463.694
20
-149.322
11
458.995
21
-149.322
0
LINE
8
BLACK
6
CONTINUOUS
10
458.995
20
-171.596
11
462.227
21
-171.596
0
LINE
8
BLACK
6
CONTINUOUS
10
458.995
20
-149.322
11
458.995
21
-147.796
0
LINE
8
BLACK
6
CONTINUOUS
10
456.194
20
-171.596
11
456.194
21
-172.422
0
LINE
8
BLACK
6
CONTINUOUS
10
462.227
20
-147.796
11
462.227
21
-141.047
0
LINE
8
BLACK
6
CONTINUOUS
10
449.925
20
-171.596
11
456.194
21
-171.596
0
LINE
8
BLACK
6
CONTINUOUS
10
462.227
20
-141.047
11
458.995
21
-141.047
0
LINE
8
BLACK
6
CONTINUOUS
10
458.995
20
-140.221
11
456.194
21
-140.221
0
LINE
8
BLACK
6
CONTINUOUS
10
458.995
20
-163.321
11
463.694
21
-163.321
0
LINE
8
BLACK
6
CONTINUOUS
10
458.995
20
-141.047
11
458.995
21
-140.221
0
LINE
8
BLACK
6
CONTINUOUS
10
462.227
20
-171.596
11
462.227
21
-164.847
0
LINE
8
BLACK
6
CONTINUOUS
10
392.546
20
-139.797
11
406.544
21
-139.797
0
LINE
8
BLACK
6
CONTINUOUS
10
411.596
20
-139.797
11
425.594
21
-139.797
0
LINE
8
BLACK
6
CONTINUOUS
10
102.032
20
-139.797
11
116.031
21
-139.797
0
LINE
8
BLACK
6
CONTINUOUS
10
425.594
20
-153.796
11
411.596
21
-153.796
0
LINE
8
BLACK
6
CONTINUOUS
10
235.382
20
-139.797
11
249.382
21
-139.797
0
LINE
8
BLACK
6
CONTINUOUS
10
211.282
20
-139.797
11
211.282
21
-153.796
0
LINE
8
BLACK
6
CONTINUOUS
10
197.282
20
-153.796
11
197.282
21
-139.797
0
LINE
8
BLACK
6
CONTINUOUS
10
173.182
20
-153.796
11
159.182
21
-153.796
0
LINE
8
BLACK
6
CONTINUOUS
10
254.432
20
-153.796
11
254.432
21
-139.797
0
LINE
8
BLACK
6
CONTINUOUS
10
197.282
20
-139.797
11
211.282
21
-139.797
0
LINE
8
BLACK
6
CONTINUOUS
10
178.232
20
-139.797
11
192.232
21
-139.797
0
LINE
8
BLACK
6
CONTINUOUS
10
411.596
20
-153.796
11
411.596
21
-139.797
0
LINE
8
BLACK
6
CONTINUOUS
10
154.132
20
-139.797
11
154.132
21
-153.796
0
LINE
8
BLACK
6
CONTINUOUS
10
135.082
20
-139.797
11
135.082
21
-153.796
0
LINE
8
BLACK
6
CONTINUOUS
10
116.031
20
-139.797
11
116.031
21
-153.796
0
LINE
8
BLACK
6
CONTINUOUS
10
121.082
20
-153.796
11
121.082
21
-139.797
0
LINE
8
BLACK
6
CONTINUOUS
10
406.544
20
-139.797
11
406.544
21
-153.796
0
LINE
8
BLACK
6
CONTINUOUS
10
159.182
20
-139.797
11
173.182
21
-139.797
0
LINE
8
BLACK
6
CONTINUOUS
10
154.132
20
-153.796
11
140.132
21
-153.796
0
LINE
8
BLACK
6
CONTINUOUS
10
192.232
20
-139.797
11
192.232
21
-153.796
0
LINE
8
BLACK
6
CONTINUOUS
10
363.682
20
-153.796
11
349.682
21
-153.796
0
LINE
8
BLACK
6
CONTINUOUS
10
268.432
20
-139.797
11
268.432
21
-153.796
0
LINE
8
BLACK
6
CONTINUOUS
10
249.382
20
-139.797
11
249.382
21
-153.796
0
LINE
8
BLACK
6
CONTINUOUS
10
254.432
20
-139.797
11
268.432
21
-139.797
0
LINE
8
BLACK
6
CONTINUOUS
10
406.544
20
-153.796
11
392.546
21
-153.796
0
LINE
8
BLACK
6
CONTINUOUS
10
392.546
20
-153.796
11
392.546
21
-139.797
0
LINE
8
BLACK
6
CONTINUOUS
10
425.594
20
-139.797
11
425.594
21
-153.796
0
LINE
8
BLACK
6
CONTINUOUS
10
349.682
20
-139.797
11
363.682
21
-139.797
0
LINE
8
BLACK
6
CONTINUOUS
10
230.332
20
-139.797
11
230.332
21
-153.796
0
LINE
8
BLACK
6
CONTINUOUS
10
211.282
20
-153.796
11
197.282
21
-153.796
0
LINE
8
BLACK
6
CONTINUOUS
10
363.682
20
-139.797
11
363.682
21
-153.796
0
LINE
8
BLACK
6
CONTINUOUS
10
216.332
20
-153.796
11
216.332
21
-139.797
0
LINE
8
BLACK
6
CONTINUOUS
10
178.232
20
-153.796
11
178.232
21
-139.797
0
LINE
8
BLACK
6
CONTINUOUS
10
173.182
20
-139.797
11
173.182
21
-153.796
0
LINE
8
BLACK
6
CONTINUOUS
10
249.382
20
-153.796
11
235.382
21
-153.796
0
LINE
8
BLACK
6
CONTINUOUS
10
216.332
20
-139.797
11
230.332
21
-139.797
0
LINE
8
BLACK
6
CONTINUOUS
10
159.182
20
-153.796
11
159.182
21
-139.797
0
LINE
8
BLACK
6
CONTINUOUS
10
140.132
20
-139.797
11
154.132
21
-139.797
0
LINE
8
BLACK
6
CONTINUOUS
10
235.382
20
-153.796
11
235.382
21
-139.797
0
LINE
8
BLACK
6
CONTINUOUS
10
268.432
20
-153.796
11
254.432
21
-153.796
0
LINE
8
BLACK
6
CONTINUOUS
10
230.332
20
-153.796
11
216.332
21
-153.796
0
LINE
8
BLACK
6
CONTINUOUS
10
192.232
20
-153.796
11
178.232
21
-153.796
0
LINE
8
BLACK
6
CONTINUOUS
10
140.132
20
-153.796
11
140.132
21
-139.797
0
LINE
8
BLACK
6
CONTINUOUS
10
349.682
20
-153.796
11
349.682
21
-139.797
0
LINE
8
BLACK
6
CONTINUOUS
10
121.082
20
-139.797
11
135.082
21
-139.797
0
LINE
8
BLACK
6
CONTINUOUS
10
135.082
20
-153.796
11
121.082
21
-153.796
0
LINE
8
BLACK
6
CONTINUOUS
10
304.437
20
-120.747
11
283.007
21
-120.747
0
LINE
8
BLACK
6
CONTINUOUS
10
411.596
20
-120.747
11
425.594
21
-120.747
0
LINE
8
BLACK
6
CONTINUOUS
10
425.594
20
-134.746
11
411.596
21
-134.746
0
LINE
8
BLACK
6
CONTINUOUS
10
411.596
20
-134.746
11
411.596
21
-120.747
0
LINE
8
BLACK
6
CONTINUOUS
10
102.032
20
-153.796
11
102.032
21
-139.797
0
LINE
8
BLACK
6
CONTINUOUS
10
310.437
20
-133.496
11
310.437
21
-134.516
0
LINE
8
BLACK
6
CONTINUOUS
10
312.162
20
-135.716
11
315.463
21
-135.716
0
LINE
8
BLACK
6
CONTINUOUS
10
96.9815
20
-139.797
11
96.9815
21
-153.796
0
LINE
8
BLACK
6
CONTINUOUS
10
304.437
20
-115.696
11
304.437
21
-120.747
0
LINE
8
BLACK
6
CONTINUOUS
10
291.661
20
-134.746
11
308.913
21
-134.746
0
LINE
8
BLACK
6
CONTINUOUS
10
283.007
20
-134.746
11
288.362
21
-134.746
0
LINE
8
BLACK
6
CONTINUOUS
10
318.012
20
-125.447
11
317.188
21
-125.447
0
LINE
8
BLACK
6
CONTINUOUS
10
291.661
20
-135.716
11
291.661
21
-134.746
0
LINE
8
BLACK
6
CONTINUOUS
10
317.188
20
-125.447
11
317.188
21
-125.221
0
LINE
8
BLACK
6
CONTINUOUS
10
318.438
20
-111.222
11
316.057
21
-111.222
0
LINE
8
BLACK
6
CONTINUOUS
10
317.188
20
-128.246
11
318.012
21
-128.246
0
LINE
8
BLACK
6
CONTINUOUS
10
310.437
20
-134.516
11
312.162
21
-134.516
0
LINE
8
BLACK
6
CONTINUOUS
10
318.438
20
-125.221
11
318.438
21
-111.222
0
LINE
8
BLACK
6
CONTINUOUS
10
316.057
20
-109.697
11
316.967
21
-109.697
0
LINE
8
BLACK
6
CONTINUOUS
10
82.9822
20
-153.796
11
82.9822
21
-139.797
0
LINE
8
BLACK
6
CONTINUOUS
10
316.967
20
-109.697
11
316.967
21
-102.947
0
LINE
8
BLACK
6
CONTINUOUS
10
308.913
20
-134.746
11
308.913
21
-133.496
0
LINE
8
BLACK
6
CONTINUOUS
10
288.362
20
-134.746
11
288.362
21
-135.716
0
LINE
8
BLACK
6
CONTINUOUS
10
116.031
20
-153.796
11
102.032
21
-153.796
0
LINE
8
BLACK
6
CONTINUOUS
10
82.9822
20
-139.797
11
96.9815
21
-139.797
0
LINE
8
BLACK
6
CONTINUOUS
10
315.463
20
-134.516
11
317.188
21
-134.516
0
LINE
8
BLACK
6
CONTINUOUS
10
302.057
20
-115.696
11
304.437
21
-115.696
0
LINE
8
BLACK
6
CONTINUOUS
10
308.913
20
-133.496
11
310.437
21
-133.496
0
LINE
8
BLACK
6
CONTINUOUS
10
316.967
20
-102.947
11
316.057
21
-102.947
0
LINE
8
BLACK
6
CONTINUOUS
10
430.646
20
-120.747
11
444.644
21
-120.747
0
LINE
8
BLACK
6
CONTINUOUS
10
444.644
20
-120.747
11
444.644
21
-134.746
0
LINE
8
BLACK
6
CONTINUOUS
10
312.162
20
-134.516
11
312.162
21
-135.716
0
LINE
8
BLACK
6
CONTINUOUS
10
288.362
20
-135.716
11
291.661
21
-135.716
0
LINE
8
BLACK
6
CONTINUOUS
10
317.188
20
-125.221
11
318.438
21
-125.221
0
LINE
8
BLACK
6
CONTINUOUS
10
302.057
20
-101.697
11
302.057
21
-115.696
0
LINE
8
BLACK
6
CONTINUOUS
10
316.057
20
-101.697
11
302.057
21
-101.697
0
LINE
8
BLACK
6
CONTINUOUS
10
316.057
20
-102.947
11
316.057
21
-101.697
0
LINE
8
BLACK
6
CONTINUOUS
10
444.644
20
-134.746
11
430.646
21
-134.746
0
LINE
8
BLACK
6
CONTINUOUS
10
425.594
20
-120.747
11
425.594
21
-134.746
0
LINE
8
BLACK
6
CONTINUOUS
10
283.007
20
-120.747
11
283.007
21
-134.746
0
LINE
8
BLACK
6
CONTINUOUS
10
318.012
20
-128.246
11
318.012
21
-125.447
0
LINE
8
BLACK
6
CONTINUOUS
10
316.057
20
-111.222
11
316.057
21
-109.697
0
LINE
8
BLACK
6
CONTINUOUS
10
96.9815
20
-153.796
11
82.9822
21
-153.796
0
LINE
8
BLACK
6
CONTINUOUS
10
315.463
20
-135.716
11
315.463
21
-134.516
0
LINE
8
BLACK
6
CONTINUOUS
10
317.188
20
-134.516
11
317.188
21
-128.246
0
LINE
8
BLACK
6
CONTINUOUS
10
430.646
20
-134.746
11
430.646
21
-120.747
0
LINE
8
BLACK
6
CONTINUOUS
10
239.857
20
-120.747
11
239.857
21
-134.746
0
LINE
8
BLACK
6
CONTINUOUS
10
406.544
20
-120.747
11
406.544
21
-134.746
0
LINE
8
BLACK
6
CONTINUOUS
10
258.907
20
-120.747
11
258.907
21
-134.746
0
LINE
8
BLACK
6
CONTINUOUS
10
263.957
20
-120.747
11
277.957
21
-120.747
0
LINE
8
BLACK
6
CONTINUOUS
10
277.957
20
-120.747
11
277.957
21
-134.746
0
LINE
8
BLACK
6
CONTINUOUS
10
168.707
20
-120.747
11
182.707
21
-120.747
0
LINE
8
BLACK
6
CONTINUOUS
10
239.857
20
-134.746
11
225.857
21
-134.746
0
LINE
8
BLACK
6
CONTINUOUS
10
163.657
20
-134.746
11
149.657
21
-134.746
0
LINE
8
BLACK
6
CONTINUOUS
10
187.757
20
-134.746
11
187.757
21
-120.747
0
LINE
8
BLACK
6
CONTINUOUS
10
163.657
20
-120.747
11
163.657
21
-134.746
0
LINE
8
BLACK
6
CONTINUOUS
10
277.957
20
-134.746
11
263.957
21
-134.746
0
LINE
8
BLACK
6
CONTINUOUS
10
258.907
20
-134.746
11
244.907
21
-134.746
0
LINE
8
BLACK
6
CONTINUOUS
10
149.657
20
-134.746
11
149.657
21
-120.747
0
LINE
8
BLACK
6
CONTINUOUS
10
144.607
20
-120.747
11
144.607
21
-134.746
0
LINE
8
BLACK
6
CONTINUOUS
10
144.607
20
-134.746
11
130.607
21
-134.746
0
LINE
8
BLACK
6
CONTINUOUS
10
244.907
20
-120.747
11
258.907
21
-120.747
0
LINE
8
BLACK
6
CONTINUOUS
10
182.707
20
-120.747
11
182.707
21
-134.746
0
LINE
8
BLACK
6
CONTINUOUS
10
187.757
20
-120.747
11
201.757
21
-120.747
0
LINE
8
BLACK
6
CONTINUOUS
10
406.544
20
-134.746
11
392.546
21
-134.746
0
LINE
8
BLACK
6
CONTINUOUS
10
149.657
20
-120.747
11
163.657
21
-120.747
0
LINE
8
BLACK
6
CONTINUOUS
10
130.607
20
-120.747
11
144.607
21
-120.747
0
LINE
8
BLACK
6
CONTINUOUS
10
244.907
20
-134.746
11
244.907
21
-120.747
0
LINE
8
BLACK
6
CONTINUOUS
10
206.807
20
-134.746
11
206.807
21
-120.747
0
LINE
8
BLACK
6
CONTINUOUS
10
130.607
20
-134.746
11
130.607
21
-120.747
0
LINE
8
BLACK
6
CONTINUOUS
10
111.557
20
-120.747
11
125.556
21
-120.747
0
LINE
8
BLACK
6
CONTINUOUS
10
125.556
20
-120.747
11
125.556
21
-134.746
0
LINE
8
BLACK
6
CONTINUOUS
10
182.707
20
-134.746
11
168.707
21
-134.746
0
LINE
8
BLACK
6
CONTINUOUS
10
201.757
20
-134.746
11
187.757
21
-134.746
0
LINE
8
BLACK
6
CONTINUOUS
10
125.556
20
-134.746
11
111.557
21
-134.746
0
LINE
8
BLACK
6
CONTINUOUS
10
92.5072
20
-120.747
11
106.506
21
-120.747
0
LINE
8
BLACK
6
CONTINUOUS
10
106.506
20
-120.747
11
106.506
21
-134.746
0
LINE
8
BLACK
6
CONTINUOUS
10
220.807
20
-120.747
11
220.807
21
-134.746
0
LINE
8
BLACK
6
CONTINUOUS
10
392.546
20
-120.747
11
406.544
21
-120.747
0
LINE
8
BLACK
6
CONTINUOUS
10
201.757
20
-120.747
11
201.757
21
-134.746
0
LINE
8
BLACK
6
CONTINUOUS
10
106.506
20
-134.746
11
92.5072
21
-134.746
0
LINE
8
BLACK
6
CONTINUOUS
10
111.557
20
-134.746
11
111.557
21
-120.747
0
LINE
8
BLACK
6
CONTINUOUS
10
263.957
20
-134.746
11
263.957
21
-120.747
0
LINE
8
BLACK
6
CONTINUOUS
10
92.5072
20
-134.746
11
92.5072
21
-120.747
0
LINE
8
BLACK
6
CONTINUOUS
10
73.4572
20
-120.747
11
87.4565
21
-120.747
0
LINE
8
BLACK
6
CONTINUOUS
10
87.4565
20
-120.747
11
87.4565
21
-134.746
0
LINE
8
BLACK
6
CONTINUOUS
10
168.707
20
-134.746
11
168.707
21
-120.747
0
LINE
8
BLACK
6
CONTINUOUS
10
225.857
20
-120.747
11
239.857
21
-120.747
0
LINE
8
BLACK
6
CONTINUOUS
10
225.857
20
-134.746
11
225.857
21
-120.747
0
LINE
8
BLACK
6
CONTINUOUS
10
206.807
20
-120.747
11
220.807
21
-120.747
0
LINE
8
BLACK
6
CONTINUOUS
10
220.807
20
-134.746
11
206.807
21
-134.746
0
LINE
8
BLACK
6
CONTINUOUS
10
392.546
20
-134.746
11
392.546
21
-120.747
0
LINE
8
BLACK
6
CONTINUOUS
10
297.295
20
-91.9472
11
297.295
21
-96.6462
0
LINE
8
BLACK
6
CONTINUOUS
10
317.844
20
-97.6164
11
317.844
21
-96.4162
0
LINE
8
BLACK
6
CONTINUOUS
10
319.569
20
-96.4162
11
319.569
21
-90.1463
0
LINE
8
BLACK
6
CONTINUOUS
10
319.569
20
-90.1463
11
320.395
21
-90.1463
0
LINE
8
BLACK
6
CONTINUOUS
10
82.694
20
-115.696
11
68.6947
21
-115.696
0
LINE
8
BLACK
6
CONTINUOUS
10
312.82
20
-96.4162
11
314.545
21
-96.4162
0
LINE
8
BLACK
6
CONTINUOUS
10
312.82
20
-84.1173
11
312.82
21
-87.3474
0
LINE
8
BLACK
6
CONTINUOUS
10
44.8822
20
-101.697
11
58.8817
21
-101.697
0
LINE
8
BLACK
6
CONTINUOUS
10
312.82
20
-87.3474
11
311.294
21
-87.3474
0
LINE
8
BLACK
6
CONTINUOUS
10
125.845
20
-115.696
11
125.845
21
-101.697
0
LINE
8
BLACK
6
CONTINUOUS
10
290.743
20
-96.4162
11
290.743
21
-97.6164
0
LINE
8
BLACK
6
CONTINUOUS
10
158.894
20
-115.696
11
144.895
21
-115.696
0
LINE
8
BLACK
6
CONTINUOUS
10
68.6947
20
-115.696
11
68.6947
21
-101.697
0
LINE
8
BLACK
6
CONTINUOUS
10
177.944
20
-101.697
11
177.944
21
-115.696
0
LINE
8
BLACK
6
CONTINUOUS
10
297.295
20
-82.6469
11
297.295
21
-87.3474
0
LINE
8
BLACK
6
CONTINUOUS
10
289.02
20
-87.3474
11
288.194
21
-87.3474
0
LINE
8
BLACK
6
CONTINUOUS
10
314.545
20
-96.4162
11
314.545
21
-97.6164
0
LINE
8
BLACK
6
CONTINUOUS
10
314.545
20
-97.6164
11
317.844
21
-97.6164
0
LINE
8
BLACK
6
CONTINUOUS
10
317.844
20
-96.4162
11
319.569
21
-96.4162
0
LINE
8
BLACK
6
CONTINUOUS
10
158.894
20
-101.697
11
158.894
21
-115.696
0
LINE
8
BLACK
6
CONTINUOUS
10
125.845
20
-101.697
11
139.844
21
-101.697
0
LINE
8
BLACK
6
CONTINUOUS
10
289.02
20
-84.1173
11
289.02
21
-87.3474
0
LINE
8
BLACK
6
CONTINUOUS
10
139.844
20
-101.697
11
139.844
21
-115.696
0
LINE
8
BLACK
6
CONTINUOUS
10
288.194
20
-90.1463
11
289.02
21
-90.1463
0
LINE
8
BLACK
6
CONTINUOUS
10
101.744
20
-115.696
11
87.7447
21
-115.696
0
LINE
8
BLACK
6
CONTINUOUS
10
289.02
20
-90.1463
11
289.02
21
-96.4162
0
LINE
8
BLACK
6
CONTINUOUS
10
297.295
20
-96.6462
11
311.294
21
-96.6462
0
LINE
8
BLACK
6
CONTINUOUS
10
320.395
20
-87.3474
11
319.569
21
-87.3474
0
LINE
8
BLACK
6
CONTINUOUS
10
319.569
20
-87.3474
11
319.569
21
-84.1173
0
LINE
8
BLACK
6
CONTINUOUS
10
320.395
20
-90.1463
11
320.395
21
-87.3474
0
LINE
8
BLACK
6
CONTINUOUS
10
319.569
20
-84.1173
11
312.82
21
-84.1173
0
LINE
8
BLACK
6
CONTINUOUS
10
177.944
20
-115.696
11
163.945
21
-115.696
0
LINE
8
BLACK
6
CONTINUOUS
10
144.895
20
-101.697
11
158.894
21
-101.697
0
LINE
8
BLACK
6
CONTINUOUS
10
144.895
20
-115.696
11
144.895
21
-101.697
0
LINE
8
BLACK
6
CONTINUOUS
10
106.795
20
-101.697
11
120.794
21
-101.697
0
LINE
8
BLACK
6
CONTINUOUS
10
120.794
20
-115.696
11
106.795
21
-115.696
0
LINE
8
BLACK
6
CONTINUOUS
10
87.7447
20
-101.697
11
101.744
21
-101.697
0
LINE
8
BLACK
6
CONTINUOUS
10
120.794
20
-101.697
11
120.794
21
-115.696
0
LINE
8
BLACK
6
CONTINUOUS
10
87.7447
20
-115.696
11
87.7447
21
-101.697
0
LINE
8
BLACK
6
CONTINUOUS
10
297.295
20
-87.3474
11
295.769
21
-87.3474
0
LINE
8
BLACK
6
CONTINUOUS
10
68.6947
20
-101.697
11
82.694
21
-101.697
0
LINE
8
BLACK
6
CONTINUOUS
10
295.769
20
-84.1173
11
289.02
21
-84.1173
0
LINE
8
BLACK
6
CONTINUOUS
10
288.194
20
-87.3474
11
288.194
21
-90.1463
0
LINE
8
BLACK
6
CONTINUOUS
10
139.844
20
-115.696
11
125.845
21
-115.696
0
LINE
8
BLACK
6
CONTINUOUS
10
289.02
20
-96.4162
11
290.743
21
-96.4162
0
LINE
8
BLACK
6
CONTINUOUS
10
290.743
20
-97.6164
11
294.044
21
-97.6164
0
LINE
8
BLACK
6
CONTINUOUS
10
196.994
20
-115.696
11
182.995
21
-115.696
0
LINE
8
BLACK
6
CONTINUOUS
10
58.8817
20
-101.697
11
58.8817
21
-115.696
0
LINE
8
BLACK
6
CONTINUOUS
10
294.044
20
-97.6164
11
294.044
21
-96.4162
0
LINE
8
BLACK
6
CONTINUOUS
10
82.694
20
-101.697
11
82.694
21
-115.696
0
LINE
8
BLACK
6
CONTINUOUS
10
294.044
20
-96.4162
11
295.769
21
-96.4162
0
LINE
8
BLACK
6
CONTINUOUS
10
295.769
20
-91.9472
11
297.295
21
-91.9472
0
LINE
8
BLACK
6
CONTINUOUS
10
311.294
20
-96.6462
11
311.294
21
-91.9472
0
LINE
8
BLACK
6
CONTINUOUS
10
311.294
20
-91.9472
11
312.82
21
-91.9472
0
LINE
8
BLACK
6
CONTINUOUS
10
163.945
20
-101.697
11
177.944
21
-101.697
0
LINE
8
BLACK
6
CONTINUOUS
10
182.995
20
-115.696
11
182.995
21
-101.697
0
LINE
8
BLACK
6
CONTINUOUS
10
58.8817
20
-115.696
11
44.8822
21
-115.696
0
LINE
8
BLACK
6
CONTINUOUS
10
44.8822
20
-115.696
11
44.8822
21
-101.697
0
LINE
8
BLACK
6
CONTINUOUS
10
312.82
20
-91.9472
11
312.82
21
-96.4162
0
LINE
8
BLACK
6
CONTINUOUS
10
163.945
20
-115.696
11
163.945
21
-101.697
0
LINE
8
BLACK
6
CONTINUOUS
10
101.744
20
-101.697
11
101.744
21
-115.696
0
LINE
8
BLACK
6
CONTINUOUS
10
295.769
20
-87.3474
11
295.769
21
-84.1173
0
LINE
8
BLACK
6
CONTINUOUS
10
106.795
20
-115.696
11
106.795
21
-101.697
0
LINE
8
BLACK
6
CONTINUOUS
10
295.769
20
-96.4162
11
295.769
21
-91.9472
0
LINE
8
BLACK
6
CONTINUOUS
10
368.732
20
-82.6469
11
382.732
21
-82.6469
0
LINE
8
BLACK
6
CONTINUOUS
10
430.646
20
-96.6462
11
430.646
21
-82.6469
0
LINE
8
BLACK
6
CONTINUOUS
10
363.682
20
-82.6469
11
363.682
21
-96.6462
0
LINE
8
BLACK
6
CONTINUOUS
10
363.682
20
-96.6462
11
349.682
21
-96.6462
0
LINE
8
BLACK
6
CONTINUOUS
10
444.644
20
-96.6462
11
430.646
21
-96.6462
0
LINE
8
BLACK
6
CONTINUOUS
10
392.546
20
-96.6462
11
392.546
21
-82.6469
0
LINE
8
BLACK
6
CONTINUOUS
10
382.732
20
-96.6462
11
368.732
21
-96.6462
0
LINE
8
BLACK
6
CONTINUOUS
10
368.732
20
-96.6462
11
368.732
21
-82.6469
0
LINE
8
BLACK
6
CONTINUOUS
10
349.682
20
-96.6462
11
349.682
21
-82.6469
0
LINE
8
BLACK
6
CONTINUOUS
10
330.632
20
-82.6469
11
344.632
21
-82.6469
0
LINE
8
BLACK
6
CONTINUOUS
10
344.632
20
-82.6469
11
344.632
21
-96.6462
0
LINE
8
BLACK
6
CONTINUOUS
10
463.694
20
-82.6469
11
463.694
21
-96.6462
0
LINE
8
BLACK
6
CONTINUOUS
10
430.646
20
-82.6469
11
444.644
21
-82.6469
0
LINE
8
BLACK
6
CONTINUOUS
10
449.696
20
-96.6462
11
449.696
21
-82.6469
0
LINE
8
BLACK
6
CONTINUOUS
10
311.294
20
-82.6469
11
297.295
21
-82.6469
0
LINE
8
BLACK
6
CONTINUOUS
10
411.596
20
-82.6469
11
425.594
21
-82.6469
0
LINE
8
BLACK
6
CONTINUOUS
10
392.546
20
-82.6469
11
406.544
21
-82.6469
0
LINE
8
BLACK
6
CONTINUOUS
10
449.696
20
-82.6469
11
463.694
21
-82.6469
0
LINE
8
BLACK
6
CONTINUOUS
10
406.544
20
-96.6462
11
392.546
21
-96.6462
0
LINE
8
BLACK
6
CONTINUOUS
10
425.594
20
-82.6469
11
425.594
21
-96.6462
0
LINE
8
BLACK
6
CONTINUOUS
10
411.596
20
-96.6462
11
411.596
21
-82.6469
0
LINE
8
BLACK
6
CONTINUOUS
10
382.732
20
-82.6469
11
382.732
21
-96.6462
0
LINE
8
BLACK
6
CONTINUOUS
10
444.644
20
-82.6469
11
444.644
21
-96.6462
0
LINE
8
BLACK
6
CONTINUOUS
10
425.594
20
-96.6462
11
411.596
21
-96.6462
0
LINE
8
BLACK
6
CONTINUOUS
10
406.544
20
-82.6469
11
406.544
21
-96.6462
0
LINE
8
BLACK
6
CONTINUOUS
10
311.294
20
-87.3474
11
311.294
21
-82.6469
0
LINE
8
BLACK
6
CONTINUOUS
10
463.694
20
-96.6462
11
449.696
21
-96.6462
0
LINE
8
BLACK
6
CONTINUOUS
10
349.682
20
-82.6469
11
363.682
21
-82.6469
0
LINE
8
BLACK
6
CONTINUOUS
10
368.732
20
-54.072
11
382.732
21
-54.072
0
LINE
8
BLACK
6
CONTINUOUS
10
54.1192
20
-82.6469
11
54.1192
21
-96.6462
0
LINE
8
BLACK
6
CONTINUOUS
10
363.682
20
-54.072
11
363.682
21
-68.071
0
LINE
8
BLACK
6
CONTINUOUS
10
154.418
20
-96.6462
11
154.418
21
-82.6469
0
LINE
8
BLACK
6
CONTINUOUS
10
330.632
20
-54.072
11
344.632
21
-54.072
0
LINE
8
BLACK
6
CONTINUOUS
10
221.095
20
-68.071
11
221.095
21
-54.072
0
LINE
8
BLACK
6
CONTINUOUS
10
40.1197
20
-82.6469
11
54.1192
21
-82.6469
0
LINE
8
BLACK
6
CONTINUOUS
10
149.369
20
-96.6462
11
135.368
21
-96.6462
0
LINE
8
BLACK
6
CONTINUOUS
10
382.732
20
-54.072
11
382.732
21
-68.071
0
LINE
8
BLACK
6
CONTINUOUS
10
344.632
20
-54.072
11
344.632
21
-68.071
0
LINE
8
BLACK
6
CONTINUOUS
10
59.1697
20
-96.6462
11
59.1697
21
-82.6469
0
LINE
8
BLACK
6
CONTINUOUS
10
235.094
20
-54.072
11
235.094
21
-68.071
0
LINE
8
BLACK
6
CONTINUOUS
10
54.1192
20
-96.6462
11
40.1197
21
-96.6462
0
LINE
8
BLACK
6
CONTINUOUS
10
111.269
20
-96.6462
11
97.2697
21
-96.6462
0
LINE
8
BLACK
6
CONTINUOUS
10
282.719
20
-54.072
11
282.719
21
-68.071
0
LINE
8
BLACK
6
CONTINUOUS
10
135.368
20
-82.6469
11
149.369
21
-82.6469
0
LINE
8
BLACK
6
CONTINUOUS
10
59.1697
20
-82.6469
11
73.169
21
-82.6469
0
LINE
8
BLACK
6
CONTINUOUS
10
301.769
20
-54.072
11
301.769
21
-68.071
0
LINE
8
BLACK
6
CONTINUOUS
10
149.369
20
-82.6469
11
149.369
21
-96.6462
0
LINE
8
BLACK
6
CONTINUOUS
10
116.32
20
-96.6462
11
116.32
21
-82.6469
0
LINE
8
BLACK
6
CONTINUOUS
10
249.67
20
-54.072
11
263.669
21
-54.072
0
LINE
8
BLACK
6
CONTINUOUS
10
216.044
20
-54.072
11
216.044
21
-68.071
0
LINE
8
BLACK
6
CONTINUOUS
10
73.169
20
-96.6462
11
59.1697
21
-96.6462
0
LINE
8
BLACK
6
CONTINUOUS
10
320.819
20
-54.072
11
320.819
21
-68.071
0
LINE
8
BLACK
6
CONTINUOUS
10
111.269
20
-82.6469
11
111.269
21
-96.6462
0
LINE
8
BLACK
6
CONTINUOUS
10
363.682
20
-68.071
11
349.682
21
-68.071
0
LINE
8
BLACK
6
CONTINUOUS
10
78.2197
20
-82.6469
11
92.219
21
-82.6469
0
LINE
8
BLACK
6
CONTINUOUS
10
135.368
20
-96.6462
11
135.368
21
-82.6469
0
LINE
8
BLACK
6
CONTINUOUS
10
130.319
20
-96.6462
11
116.32
21
-96.6462
0
LINE
8
BLACK
6
CONTINUOUS
10
97.2697
20
-82.6469
11
111.269
21
-82.6469
0
LINE
8
BLACK
6
CONTINUOUS
10
287.77
20
-54.072
11
301.769
21
-54.072
0
LINE
8
BLACK
6
CONTINUOUS
10
263.669
20
-54.072
11
263.669
21
-68.071
0
LINE
8
BLACK
6
CONTINUOUS
10
263.669
20
-68.071
11
249.67
21
-68.071
0
LINE
8
BLACK
6
CONTINUOUS
10
368.732
20
-68.071
11
368.732
21
-54.072
0
LINE
8
BLACK
6
CONTINUOUS
10
221.095
20
-54.072
11
235.094
21
-54.072
0
LINE
8
BLACK
6
CONTINUOUS
10
235.094
20
-68.071
11
221.095
21
-68.071
0
LINE
8
BLACK
6
CONTINUOUS
10
202.045
20
-68.071
11
202.045
21
-54.072
0
LINE
8
BLACK
6
CONTINUOUS
10
78.2197
20
-96.6462
11
78.2197
21
-82.6469
0
LINE
8
BLACK
6
CONTINUOUS
10
382.732
20
-68.071
11
368.732
21
-68.071
0
LINE
8
BLACK
6
CONTINUOUS
10
306.82
20
-68.071
11
306.82
21
-54.072
0
LINE
8
BLACK
6
CONTINUOUS
10
301.769
20
-68.071
11
287.77
21
-68.071
0
LINE
8
BLACK
6
CONTINUOUS
10
40.1197
20
-96.6462
11
40.1197
21
-82.6469
0
LINE
8
BLACK
6
CONTINUOUS
10
182.995
20
-54.072
11
196.994
21
-54.072
0
LINE
8
BLACK
6
CONTINUOUS
10
202.045
20
-54.072
11
216.044
21
-54.072
0
LINE
8
BLACK
6
CONTINUOUS
10
92.219
20
-96.6462
11
78.2197
21
-96.6462
0
LINE
8
BLACK
6
CONTINUOUS
10
97.2697
20
-96.6462
11
97.2697
21
-82.6469
0
LINE
8
BLACK
6
CONTINUOUS
10
349.682
20
-54.072
11
363.682
21
-54.072
0
LINE
8
BLACK
6
CONTINUOUS
10
287.77
20
-68.071
11
287.77
21
-54.072
0
LINE
8
BLACK
6
CONTINUOUS
10
282.719
20
-68.071
11
268.72
21
-68.071
0
LINE
8
BLACK
6
CONTINUOUS
10
216.044
20
-68.071
11
202.045
21
-68.071
0
LINE
8
BLACK
6
CONTINUOUS
10
320.819
20
-68.071
11
306.82
21
-68.071
0
LINE
8
BLACK
6
CONTINUOUS
10
306.82
20
-54.072
11
320.819
21
-54.072
0
LINE
8
BLACK
6
CONTINUOUS
10
330.632
20
-68.071
11
330.632
21
-54.072
0
LINE
8
BLACK
6
CONTINUOUS
10
168.419
20
-96.6462
11
154.418
21
-96.6462
0
LINE
8
BLACK
6
CONTINUOUS
10
268.72
20
-54.072
11
282.719
21
-54.072
0
LINE
8
BLACK
6
CONTINUOUS
10
268.72
20
-68.071
11
268.72
21
-54.072
0
LINE
8
BLACK
6
CONTINUOUS
10
130.319
20
-82.6469
11
130.319
21
-96.6462
0
LINE
8
BLACK
6
CONTINUOUS
10
92.219
20
-82.6469
11
92.219
21
-96.6462
0
LINE
8
BLACK
6
CONTINUOUS
10
349.682
20
-68.071
11
349.682
21
-54.072
0
LINE
8
BLACK
6
CONTINUOUS
10
344.632
20
-68.071
11
330.632
21
-68.071
0
LINE
8
BLACK
6
CONTINUOUS
10
249.67
20
-68.071
11
249.67
21
-54.072
0
LINE
8
BLACK
6
CONTINUOUS
10
196.994
20
-54.072
11
196.994
21
-68.071
0
LINE
8
BLACK
6
CONTINUOUS
10
73.169
20
-82.6469
11
73.169
21
-96.6462
0
LINE
8
BLACK
6
CONTINUOUS
10
116.32
20
-82.6469
11
130.319
21
-82.6469
0
LINE
8
BLACK
6
CONTINUOUS
10
225.569
20
-82.6469
11
225.569
21
-96.6462
0
LINE
8
BLACK
6
CONTINUOUS
10
206.519
20
-82.6469
11
206.519
21
-96.6462
0
LINE
8
BLACK
6
CONTINUOUS
10
244.619
20
-96.6462
11
230.62
21
-96.6462
0
LINE
8
BLACK
6
CONTINUOUS
10
330.632
20
-96.6462
11
330.632
21
-82.6469
0
LINE
8
BLACK
6
CONTINUOUS
10
282.719
20
-96.6462
11
268.72
21
-96.6462
0
LINE
8
BLACK
6
CONTINUOUS
10
230.62
20
-96.6462
11
230.62
21
-82.6469
0
LINE
8
BLACK
6
CONTINUOUS
10
211.57
20
-82.6469
11
225.569
21
-82.6469
0
LINE
8
BLACK
6
CONTINUOUS
10
268.72
20
-96.6462
11
268.72
21
-82.6469
0
LINE
8
BLACK
6
CONTINUOUS
10
249.67
20
-82.6469
11
263.669
21
-82.6469
0
LINE
8
BLACK
6
CONTINUOUS
10
225.569
20
-96.6462
11
211.57
21
-96.6462
0
LINE
8
BLACK
6
CONTINUOUS
10
268.72
20
-82.6469
11
282.719
21
-82.6469
0
LINE
8
BLACK
6
CONTINUOUS
10
249.67
20
-96.6462
11
249.67
21
-82.6469
0
LINE
8
BLACK
6
CONTINUOUS
10
211.57
20
-96.6462
11
211.57
21
-82.6469
0
LINE
8
BLACK
6
CONTINUOUS
10
282.719
20
-82.6469
11
282.719
21
-96.6462
0
LINE
8
BLACK
6
CONTINUOUS
10
230.62
20
-82.6469
11
244.619
21
-82.6469
0
LINE
8
BLACK
6
CONTINUOUS
10
263.669
20
-96.6462
11
249.67
21
-96.6462
0
LINE
8
BLACK
6
CONTINUOUS
10
244.619
20
-82.6469
11
244.619
21
-96.6462
0
LINE
8
BLACK
6
CONTINUOUS
10
192.52
20
-82.6469
11
206.519
21
-82.6469
0
LINE
8
BLACK
6
CONTINUOUS
10
173.47
20
-82.6469
11
187.469
21
-82.6469
0
LINE
8
BLACK
6
CONTINUOUS
10
187.469
20
-82.6469
11
187.469
21
-96.6462
0
LINE
8
BLACK
6
CONTINUOUS
10
173.47
20
-96.6462
11
173.47
21
-82.6469
0
LINE
8
BLACK
6
CONTINUOUS
10
154.418
20
-82.6469
11
168.419
21
-82.6469
0
LINE
8
BLACK
6
CONTINUOUS
10
344.632
20
-96.6462
11
330.632
21
-96.6462
0
LINE
8
BLACK
6
CONTINUOUS
10
206.519
20
-96.6462
11
192.52
21
-96.6462
0
LINE
8
BLACK
6
CONTINUOUS
10
192.52
20
-96.6462
11
192.52
21
-82.6469
0
LINE
8
BLACK
6
CONTINUOUS
10
168.419
20
-82.6469
11
168.419
21
-96.6462
0
LINE
8
BLACK
6
CONTINUOUS
10
187.469
20
-96.6462
11
173.47
21
-96.6462
0
LINE
8
BLACK
6
CONTINUOUS
10
263.669
20
-82.6469
11
263.669
21
-96.6462
0
LINE
8
BLACK
6
CONTINUOUS
10
116.32
20
-54.072
11
130.319
21
-54.072
0
LINE
8
BLACK
6
CONTINUOUS
10
92.219
20
-68.071
11
78.2197
21
-68.071
0
LINE
8
BLACK
6
CONTINUOUS
10
40.1197
20
-54.072
11
54.1192
21
-54.072
0
LINE
8
BLACK
6
CONTINUOUS
10
54.1192
20
-68.071
11
40.1197
21
-68.071
0
LINE
8
BLACK
6
CONTINUOUS
10
78.2197
20
-68.071
11
78.2197
21
-54.072
0
LINE
8
BLACK
6
CONTINUOUS
10
182.995
20
-68.071
11
182.995
21
-54.072
0
LINE
8
BLACK
6
CONTINUOUS
10
40.1197
20
-68.071
11
40.1197
21
-54.072
0
LINE
8
BLACK
6
CONTINUOUS
10
116.32
20
-68.071
11
116.32
21
-54.072
0
LINE
8
BLACK
6
CONTINUOUS
10
97.2697
20
-54.072
11
111.269
21
-54.072
0
LINE
8
BLACK
6
CONTINUOUS
10
130.319
20
-54.072
11
130.319
21
-68.071
0
LINE
8
BLACK
6
CONTINUOUS
10
163.945
20
-54.072
11
177.944
21
-54.072
0
LINE
8
BLACK
6
CONTINUOUS
10
97.2697
20
-68.071
11
97.2697
21
-54.072
0
LINE
8
BLACK
6
CONTINUOUS
10
149.369
20
-68.071
11
135.368
21
-68.071
0
LINE
8
BLACK
6
CONTINUOUS
10
130.319
20
-68.071
11
116.32
21
-68.071
0
LINE
8
BLACK
6
CONTINUOUS
10
163.945
20
-68.071
11
163.945
21
-54.072
0
LINE
8
BLACK
6
CONTINUOUS
10
78.2197
20
-54.072
11
92.219
21
-54.072
0
LINE
8
BLACK
6
CONTINUOUS
10
92.219
20
-54.072
11
92.219
21
-68.071
0
LINE
8
BLACK
6
CONTINUOUS
10
111.269
20
-68.071
11
97.2697
21
-68.071
0
LINE
8
BLACK
6
CONTINUOUS
10
177.944
20
-68.071
11
163.945
21
-68.071
0
LINE
8
BLACK
6
CONTINUOUS
10
149.369
20
-54.072
11
149.369
21
-68.071
0
LINE
8
BLACK
6
CONTINUOUS
10
196.994
20
-68.071
11
182.995
21
-68.071
0
LINE
8
BLACK
6
CONTINUOUS
10
135.368
20
-68.071
11
135.368
21
-54.072
0
LINE
8
BLACK
6
CONTINUOUS
10
135.368
20
-54.072
11
149.369
21
-54.072
0
LINE
8
BLACK
6
CONTINUOUS
10
177.944
20
-54.072
11
177.944
21
-68.071
0
LINE
8
BLACK
6
CONTINUOUS
10
111.269
20
-54.072
11
111.269
21
-68.071
0
LINE
8
BLACK
6
CONTINUOUS
10
54.1192
20
-54.072
11
54.1192
21
-68.071
0
ARC
8
BLACK
10
39.51
20
-174.55
40
2
50
-180
51
-90
0
CIRCLE
8
BLACK
10
242.7
20
-71
40
1.1
0
CIRCLE
8
BLACK
10
387.5
20
-99.1
40
1.1
0
CIRCLE
8
BLACK
10
60.1
20
-54.7
40
1.1
0
CIRCLE
8
BLACK
10
42.9
20
-73.3
40
1.1
0
ARC
8
BLACK
10
465.01
20
-174.55
40
2
50
-90
51
2.86479e-05
0
ARC
8
BLACK
10
39.51
20
-53.52
40
2
50
-270
51
-180
0
ARC
8
BLACK
10
465.01
20
-53.52
40
2
50
-2.86479e-05
51
90
0
CIRCLE
8
BLACK
10
428.15
20
-116.2
40
1.1
0
LINE
8
BLACK
6
CONTINUOUS
10
467.01
20
-53.52
11
467.01
21
-174.55
0
CIRCLE
8
BLACK
10
387
20
-153.225
40
1.1
0
CIRCLE
8
BLACK
10
161.5
20
-116.185
40
1.115
0
LINE
8
BLACK
6
CONTINUOUS
10
465.01
20
-176.55
11
39.51
21
-176.55
0
CIRCLE
8
BLACK
10
326
20
-71
40
1.10028
0
LINE
8
BLACK
6
CONTINUOUS
10
39.51
20
-51.52
11
465.01
21
-51.52
0
CIRCLE
8
BLACK
10
251.91
20
-154.61
40
1.09
0
CIRCLE
8
BLACK
10
298.185
20
-114.05
40
1.09
0
CIRCLE
8
BLACK
10
462.51
20
-56.02
40
1.11501
0
CIRCLE
8
BLACK
10
71.86
20
-118.5
40
1.115
0
CIRCLE
8
BLACK
10
463.91
20
-173.45
40
1.115
0
LINE
8
BLACK
6
CONTINUOUS
10
37.51
20
-174.55
11
37.51
21
-53.52
0
CIRCLE
8
BLACK
10
40.11
20
-173.85
40
1.11528
0
CIRCLE
8
BLACK
10
156.6
20
-71
40
1.1
  0
ENDSEC
  0
EOF
