G04 #@! TF.GenerationSoftware,KiCad,Pcbnew,(5.1.10)-1*
G04 #@! TF.CreationDate,2021-09-30T18:38:30+01:00*
G04 #@! TF.ProjectId,110ADR-SwitchPlate,31313041-4452-42d5-9377-69746368506c,rev?*
G04 #@! TF.SameCoordinates,Original*
G04 #@! TF.FileFunction,Copper,L1,Top*
G04 #@! TF.FilePolarity,Positive*
%FSLAX46Y46*%
G04 Gerber Fmt 4.6, Leading zero omitted, Abs format (unit mm)*
G04 Created by KiCad (PCBNEW (5.1.10)-1) date 2021-09-30 18:38:30*
%MOMM*%
%LPD*%
G01*
G04 APERTURE LIST*
G04 #@! TA.AperFunction,ComponentPad*
%ADD10C,4.400000*%
G04 #@! TD*
G04 #@! TA.AperFunction,Conductor*
%ADD11C,0.254000*%
G04 #@! TD*
G04 #@! TA.AperFunction,Conductor*
%ADD12C,0.100000*%
G04 #@! TD*
G04 APERTURE END LIST*
D10*
X42900000Y-73300000D03*
X462510000Y-56020000D03*
X40110000Y-173850000D03*
X463910000Y-173450000D03*
X251910000Y-156250000D03*
X298185000Y-114050000D03*
X428125000Y-118225000D03*
X161435000Y-117900000D03*
X71860000Y-118500000D03*
X242700000Y-71000000D03*
X391400000Y-71000000D03*
X326000000Y-71000000D03*
X156600000Y-71000000D03*
D11*
X466029138Y-50407730D02*
X466345739Y-50503317D01*
X466637746Y-50658581D01*
X466894032Y-50867603D01*
X467104839Y-51122424D01*
X467262135Y-51413337D01*
X467359931Y-51729265D01*
X467396000Y-52072439D01*
X467396001Y-175795123D01*
X467362270Y-176139139D01*
X467266682Y-176455741D01*
X467111419Y-176747746D01*
X466902397Y-177004032D01*
X466647574Y-177214841D01*
X466356663Y-177372135D01*
X466040735Y-177469931D01*
X465697561Y-177506000D01*
X38134867Y-177506000D01*
X37790861Y-177472270D01*
X37474259Y-177376682D01*
X37182254Y-177221419D01*
X36925968Y-177012397D01*
X36715159Y-176757574D01*
X36557865Y-176466663D01*
X36460069Y-176150735D01*
X36424000Y-175807561D01*
X36424000Y-52084867D01*
X36457730Y-51740862D01*
X36553317Y-51424261D01*
X36708581Y-51132254D01*
X36917603Y-50875968D01*
X37172424Y-50665161D01*
X37463337Y-50507865D01*
X37779265Y-50410069D01*
X38122439Y-50374000D01*
X465685133Y-50374000D01*
X466029138Y-50407730D01*
G04 #@! TA.AperFunction,Conductor*
D12*
G36*
X466029138Y-50407730D02*
G01*
X466345739Y-50503317D01*
X466637746Y-50658581D01*
X466894032Y-50867603D01*
X467104839Y-51122424D01*
X467262135Y-51413337D01*
X467359931Y-51729265D01*
X467396000Y-52072439D01*
X467396001Y-175795123D01*
X467362270Y-176139139D01*
X467266682Y-176455741D01*
X467111419Y-176747746D01*
X466902397Y-177004032D01*
X466647574Y-177214841D01*
X466356663Y-177372135D01*
X466040735Y-177469931D01*
X465697561Y-177506000D01*
X38134867Y-177506000D01*
X37790861Y-177472270D01*
X37474259Y-177376682D01*
X37182254Y-177221419D01*
X36925968Y-177012397D01*
X36715159Y-176757574D01*
X36557865Y-176466663D01*
X36460069Y-176150735D01*
X36424000Y-175807561D01*
X36424000Y-52084867D01*
X36457730Y-51740862D01*
X36553317Y-51424261D01*
X36708581Y-51132254D01*
X36917603Y-50875968D01*
X37172424Y-50665161D01*
X37463337Y-50507865D01*
X37779265Y-50410069D01*
X38122439Y-50374000D01*
X465685133Y-50374000D01*
X466029138Y-50407730D01*
G37*
G04 #@! TD.AperFunction*
M02*
