%FSLAX45Y45*%
G04 Gerber Fmt 4.5, Leading zero omitted, Abs format (unit mm)*
G04 Created by KiCad (PCBNEW (5.1.10)-1) date 2021-09-30 18:38:28*
%MOMM*%
%LPD*%
G01*
G04 APERTURE LIST*
%TA.AperFunction,Profile*%
%ADD10C,0.100000*%
%TD*%
%ADD11C,0.200000*%
%ADD12C,0.300000*%
G04 APERTURE END LIST*
D10*
X46570000Y-5007000D02*
G75*
G02*
X46770000Y-5207000I0J-200000D01*
G01*
X46770000Y-17581000D02*
G75*
G02*
X46570000Y-17781000I-200000J0D01*
G01*
X3812000Y-17781000D02*
G75*
G02*
X3612000Y-17581000I0J200000D01*
G01*
X3612000Y-5207000D02*
G75*
G02*
X3812000Y-5007000I200000J0D01*
G01*
X3612000Y-17581000D02*
X3612000Y-5207000D01*
X46570000Y-17781000D02*
X3812000Y-17781000D01*
X46770000Y-5207000D02*
X46770000Y-17581000D01*
X3812000Y-5007000D02*
X46570000Y-5007000D01*
D11*
X3901000Y-17275000D02*
X4121000Y-17495000D01*
X4121000Y-17275000D02*
X3901000Y-17495000D01*
X4180000Y-7220000D02*
X4400000Y-7440000D01*
X4400000Y-7220000D02*
X4180000Y-7440000D01*
X7076000Y-11740000D02*
X7296000Y-11960000D01*
X7296000Y-11740000D02*
X7076000Y-11960000D01*
X15550000Y-6990000D02*
X15770000Y-7210000D01*
X15770000Y-6990000D02*
X15550000Y-7210000D01*
X16033500Y-11680000D02*
X16253500Y-11900000D01*
X16253500Y-11680000D02*
X16033500Y-11900000D01*
X24160000Y-6990000D02*
X24380000Y-7210000D01*
X24380000Y-6990000D02*
X24160000Y-7210000D01*
X25081000Y-15515000D02*
X25301000Y-15735000D01*
X25301000Y-15515000D02*
X25081000Y-15735000D01*
X29708500Y-11295000D02*
X29928500Y-11515000D01*
X29928500Y-11295000D02*
X29708500Y-11515000D01*
X32490000Y-6990000D02*
X32710000Y-7210000D01*
X32710000Y-6990000D02*
X32490000Y-7210000D01*
X39030000Y-6990000D02*
X39250000Y-7210000D01*
X39250000Y-6990000D02*
X39030000Y-7210000D01*
X42702500Y-11712500D02*
X42922500Y-11932500D01*
X42922500Y-11712500D02*
X42702500Y-11932500D01*
X46141000Y-5492000D02*
X46361000Y-5712000D01*
X46361000Y-5492000D02*
X46141000Y-5712000D01*
X46281000Y-17235000D02*
X46501000Y-17455000D01*
X46501000Y-17235000D02*
X46281000Y-17455000D01*
D12*
X3893428Y-18251714D02*
X3893428Y-17951714D01*
X3964857Y-17951714D01*
X4007714Y-17966000D01*
X4036286Y-17994572D01*
X4050571Y-18023143D01*
X4064857Y-18080286D01*
X4064857Y-18123143D01*
X4050571Y-18180286D01*
X4036286Y-18208857D01*
X4007714Y-18237429D01*
X3964857Y-18251714D01*
X3893428Y-18251714D01*
X4193428Y-18251714D02*
X4193428Y-18051714D01*
X4193428Y-18108857D02*
X4207714Y-18080286D01*
X4222000Y-18066000D01*
X4250571Y-18051714D01*
X4279143Y-18051714D01*
X4379143Y-18251714D02*
X4379143Y-18051714D01*
X4379143Y-17951714D02*
X4364857Y-17966000D01*
X4379143Y-17980286D01*
X4393428Y-17966000D01*
X4379143Y-17951714D01*
X4379143Y-17980286D01*
X4564857Y-18251714D02*
X4536286Y-18237429D01*
X4522000Y-18208857D01*
X4522000Y-17951714D01*
X4722000Y-18251714D02*
X4693428Y-18237429D01*
X4679143Y-18208857D01*
X4679143Y-17951714D01*
X5064857Y-18251714D02*
X5064857Y-17951714D01*
X5164857Y-18166000D01*
X5264857Y-17951714D01*
X5264857Y-18251714D01*
X5536286Y-18251714D02*
X5536286Y-18094572D01*
X5522000Y-18066000D01*
X5493428Y-18051714D01*
X5436286Y-18051714D01*
X5407714Y-18066000D01*
X5536286Y-18237429D02*
X5507714Y-18251714D01*
X5436286Y-18251714D01*
X5407714Y-18237429D01*
X5393428Y-18208857D01*
X5393428Y-18180286D01*
X5407714Y-18151714D01*
X5436286Y-18137429D01*
X5507714Y-18137429D01*
X5536286Y-18123143D01*
X5679143Y-18051714D02*
X5679143Y-18351714D01*
X5679143Y-18066000D02*
X5707714Y-18051714D01*
X5764857Y-18051714D01*
X5793428Y-18066000D01*
X5807714Y-18080286D01*
X5822000Y-18108857D01*
X5822000Y-18194572D01*
X5807714Y-18223143D01*
X5793428Y-18237429D01*
X5764857Y-18251714D01*
X5707714Y-18251714D01*
X5679143Y-18237429D01*
X5950571Y-18223143D02*
X5964857Y-18237429D01*
X5950571Y-18251714D01*
X5936286Y-18237429D01*
X5950571Y-18223143D01*
X5950571Y-18251714D01*
X5950571Y-18066000D02*
X5964857Y-18080286D01*
X5950571Y-18094572D01*
X5936286Y-18080286D01*
X5950571Y-18066000D01*
X5950571Y-18094572D01*
X3387000Y-18636000D02*
X3607000Y-18856000D01*
X3607000Y-18636000D02*
X3387000Y-18856000D01*
X3879143Y-18610286D02*
X3893428Y-18596000D01*
X3922000Y-18581714D01*
X3993428Y-18581714D01*
X4022000Y-18596000D01*
X4036286Y-18610286D01*
X4050571Y-18638857D01*
X4050571Y-18667429D01*
X4036286Y-18710286D01*
X3864857Y-18881714D01*
X4050571Y-18881714D01*
X4179143Y-18853143D02*
X4193428Y-18867429D01*
X4179143Y-18881714D01*
X4164857Y-18867429D01*
X4179143Y-18853143D01*
X4179143Y-18881714D01*
X4307714Y-18610286D02*
X4322000Y-18596000D01*
X4350571Y-18581714D01*
X4422000Y-18581714D01*
X4450571Y-18596000D01*
X4464857Y-18610286D01*
X4479143Y-18638857D01*
X4479143Y-18667429D01*
X4464857Y-18710286D01*
X4293428Y-18881714D01*
X4479143Y-18881714D01*
X4664857Y-18581714D02*
X4693428Y-18581714D01*
X4722000Y-18596000D01*
X4736286Y-18610286D01*
X4750571Y-18638857D01*
X4764857Y-18696000D01*
X4764857Y-18767429D01*
X4750571Y-18824572D01*
X4736286Y-18853143D01*
X4722000Y-18867429D01*
X4693428Y-18881714D01*
X4664857Y-18881714D01*
X4636286Y-18867429D01*
X4622000Y-18853143D01*
X4607714Y-18824572D01*
X4593428Y-18767429D01*
X4593428Y-18696000D01*
X4607714Y-18638857D01*
X4622000Y-18610286D01*
X4636286Y-18596000D01*
X4664857Y-18581714D01*
X4950571Y-18581714D02*
X4979143Y-18581714D01*
X5007714Y-18596000D01*
X5022000Y-18610286D01*
X5036286Y-18638857D01*
X5050571Y-18696000D01*
X5050571Y-18767429D01*
X5036286Y-18824572D01*
X5022000Y-18853143D01*
X5007714Y-18867429D01*
X4979143Y-18881714D01*
X4950571Y-18881714D01*
X4922000Y-18867429D01*
X4907714Y-18853143D01*
X4893428Y-18824572D01*
X4879143Y-18767429D01*
X4879143Y-18696000D01*
X4893428Y-18638857D01*
X4907714Y-18610286D01*
X4922000Y-18596000D01*
X4950571Y-18581714D01*
X5179143Y-18881714D02*
X5179143Y-18681714D01*
X5179143Y-18710286D02*
X5193428Y-18696000D01*
X5222000Y-18681714D01*
X5264857Y-18681714D01*
X5293428Y-18696000D01*
X5307714Y-18724572D01*
X5307714Y-18881714D01*
X5307714Y-18724572D02*
X5322000Y-18696000D01*
X5350571Y-18681714D01*
X5393428Y-18681714D01*
X5422000Y-18696000D01*
X5436286Y-18724572D01*
X5436286Y-18881714D01*
X5579143Y-18881714D02*
X5579143Y-18681714D01*
X5579143Y-18710286D02*
X5593428Y-18696000D01*
X5622000Y-18681714D01*
X5664857Y-18681714D01*
X5693428Y-18696000D01*
X5707714Y-18724572D01*
X5707714Y-18881714D01*
X5707714Y-18724572D02*
X5722000Y-18696000D01*
X5750571Y-18681714D01*
X5793428Y-18681714D01*
X5822000Y-18696000D01*
X5836286Y-18724572D01*
X5836286Y-18881714D01*
X6422000Y-18567429D02*
X6164857Y-18953143D01*
X6807714Y-18581714D02*
X6836286Y-18581714D01*
X6864857Y-18596000D01*
X6879143Y-18610286D01*
X6893428Y-18638857D01*
X6907714Y-18696000D01*
X6907714Y-18767429D01*
X6893428Y-18824572D01*
X6879143Y-18853143D01*
X6864857Y-18867429D01*
X6836286Y-18881714D01*
X6807714Y-18881714D01*
X6779143Y-18867429D01*
X6764857Y-18853143D01*
X6750571Y-18824572D01*
X6736286Y-18767429D01*
X6736286Y-18696000D01*
X6750571Y-18638857D01*
X6764857Y-18610286D01*
X6779143Y-18596000D01*
X6807714Y-18581714D01*
X7036286Y-18853143D02*
X7050571Y-18867429D01*
X7036286Y-18881714D01*
X7022000Y-18867429D01*
X7036286Y-18853143D01*
X7036286Y-18881714D01*
X7236286Y-18581714D02*
X7264857Y-18581714D01*
X7293428Y-18596000D01*
X7307714Y-18610286D01*
X7322000Y-18638857D01*
X7336286Y-18696000D01*
X7336286Y-18767429D01*
X7322000Y-18824572D01*
X7307714Y-18853143D01*
X7293428Y-18867429D01*
X7264857Y-18881714D01*
X7236286Y-18881714D01*
X7207714Y-18867429D01*
X7193428Y-18853143D01*
X7179143Y-18824572D01*
X7164857Y-18767429D01*
X7164857Y-18696000D01*
X7179143Y-18638857D01*
X7193428Y-18610286D01*
X7207714Y-18596000D01*
X7236286Y-18581714D01*
X7507714Y-18710286D02*
X7479143Y-18696000D01*
X7464857Y-18681714D01*
X7450571Y-18653143D01*
X7450571Y-18638857D01*
X7464857Y-18610286D01*
X7479143Y-18596000D01*
X7507714Y-18581714D01*
X7564857Y-18581714D01*
X7593428Y-18596000D01*
X7607714Y-18610286D01*
X7622000Y-18638857D01*
X7622000Y-18653143D01*
X7607714Y-18681714D01*
X7593428Y-18696000D01*
X7564857Y-18710286D01*
X7507714Y-18710286D01*
X7479143Y-18724572D01*
X7464857Y-18738857D01*
X7450571Y-18767429D01*
X7450571Y-18824572D01*
X7464857Y-18853143D01*
X7479143Y-18867429D01*
X7507714Y-18881714D01*
X7564857Y-18881714D01*
X7593428Y-18867429D01*
X7607714Y-18853143D01*
X7622000Y-18824572D01*
X7622000Y-18767429D01*
X7607714Y-18738857D01*
X7593428Y-18724572D01*
X7564857Y-18710286D01*
X7879143Y-18581714D02*
X7822000Y-18581714D01*
X7793428Y-18596000D01*
X7779143Y-18610286D01*
X7750571Y-18653143D01*
X7736286Y-18710286D01*
X7736286Y-18824572D01*
X7750571Y-18853143D01*
X7764857Y-18867429D01*
X7793428Y-18881714D01*
X7850571Y-18881714D01*
X7879143Y-18867429D01*
X7893428Y-18853143D01*
X7907714Y-18824572D01*
X7907714Y-18753143D01*
X7893428Y-18724572D01*
X7879143Y-18710286D01*
X7850571Y-18696000D01*
X7793428Y-18696000D01*
X7764857Y-18710286D01*
X7750571Y-18724572D01*
X7736286Y-18753143D01*
X8164857Y-18581714D02*
X8107714Y-18581714D01*
X8079143Y-18596000D01*
X8064857Y-18610286D01*
X8036286Y-18653143D01*
X8022000Y-18710286D01*
X8022000Y-18824572D01*
X8036286Y-18853143D01*
X8050571Y-18867429D01*
X8079143Y-18881714D01*
X8136286Y-18881714D01*
X8164857Y-18867429D01*
X8179143Y-18853143D01*
X8193428Y-18824572D01*
X8193428Y-18753143D01*
X8179143Y-18724572D01*
X8164857Y-18710286D01*
X8136286Y-18696000D01*
X8079143Y-18696000D01*
X8050571Y-18710286D01*
X8036286Y-18724572D01*
X8022000Y-18753143D01*
X8307714Y-18581714D02*
X8307714Y-18638857D01*
X8422000Y-18581714D02*
X8422000Y-18638857D01*
X8864857Y-18996000D02*
X8850571Y-18981714D01*
X8822000Y-18938857D01*
X8807714Y-18910286D01*
X8793428Y-18867429D01*
X8779143Y-18796000D01*
X8779143Y-18738857D01*
X8793428Y-18667429D01*
X8807714Y-18624572D01*
X8822000Y-18596000D01*
X8850571Y-18553143D01*
X8864857Y-18538857D01*
X9136286Y-18881714D02*
X8964857Y-18881714D01*
X9050571Y-18881714D02*
X9050571Y-18581714D01*
X9022000Y-18624572D01*
X8993428Y-18653143D01*
X8964857Y-18667429D01*
X9236286Y-18581714D02*
X9422000Y-18581714D01*
X9322000Y-18696000D01*
X9364857Y-18696000D01*
X9393428Y-18710286D01*
X9407714Y-18724572D01*
X9422000Y-18753143D01*
X9422000Y-18824572D01*
X9407714Y-18853143D01*
X9393428Y-18867429D01*
X9364857Y-18881714D01*
X9279143Y-18881714D01*
X9250571Y-18867429D01*
X9236286Y-18853143D01*
X9779143Y-18881714D02*
X9779143Y-18581714D01*
X9907714Y-18881714D02*
X9907714Y-18724572D01*
X9893428Y-18696000D01*
X9864857Y-18681714D01*
X9822000Y-18681714D01*
X9793428Y-18696000D01*
X9779143Y-18710286D01*
X10093428Y-18881714D02*
X10064857Y-18867429D01*
X10050571Y-18853143D01*
X10036286Y-18824572D01*
X10036286Y-18738857D01*
X10050571Y-18710286D01*
X10064857Y-18696000D01*
X10093428Y-18681714D01*
X10136286Y-18681714D01*
X10164857Y-18696000D01*
X10179143Y-18710286D01*
X10193428Y-18738857D01*
X10193428Y-18824572D01*
X10179143Y-18853143D01*
X10164857Y-18867429D01*
X10136286Y-18881714D01*
X10093428Y-18881714D01*
X10364857Y-18881714D02*
X10336286Y-18867429D01*
X10322000Y-18838857D01*
X10322000Y-18581714D01*
X10593428Y-18867429D02*
X10564857Y-18881714D01*
X10507714Y-18881714D01*
X10479143Y-18867429D01*
X10464857Y-18838857D01*
X10464857Y-18724572D01*
X10479143Y-18696000D01*
X10507714Y-18681714D01*
X10564857Y-18681714D01*
X10593428Y-18696000D01*
X10607714Y-18724572D01*
X10607714Y-18753143D01*
X10464857Y-18781714D01*
X10722000Y-18867429D02*
X10750571Y-18881714D01*
X10807714Y-18881714D01*
X10836286Y-18867429D01*
X10850571Y-18838857D01*
X10850571Y-18824572D01*
X10836286Y-18796000D01*
X10807714Y-18781714D01*
X10764857Y-18781714D01*
X10736286Y-18767429D01*
X10722000Y-18738857D01*
X10722000Y-18724572D01*
X10736286Y-18696000D01*
X10764857Y-18681714D01*
X10807714Y-18681714D01*
X10836286Y-18696000D01*
X10950571Y-18996000D02*
X10964857Y-18981714D01*
X10993428Y-18938857D01*
X11007714Y-18910286D01*
X11022000Y-18867429D01*
X11036286Y-18796000D01*
X11036286Y-18738857D01*
X11022000Y-18667429D01*
X11007714Y-18624572D01*
X10993428Y-18596000D01*
X10964857Y-18553143D01*
X10950571Y-18538857D01*
M02*
