  0
SECTION
  2
HEADER
  9
$ANGBASE
  50
0.0
  9
$ANGDIR
  70
1
  9
$MEASUREMENT
  70
1
  0
ENDSEC
  0
SECTION
  2
TABLES
  0
TABLE
  2
LTYPE
  70
4
  0
LTYPE
  5
40F
  2
CONTINUOUS
  70
0
  3
Solid line
  72
65
  73
0
  40
0.0
  0
LTYPE
  5
410
  2
DASHDOT
 70
0
  3
Dash Dot ____ _ ____ _
 72
65
 73
4
 40
2.0
 49
1.25
 49
-0.25
 49
0.25
 49
-0.25
  0
LTYPE
  5
411
  2
DASHED
 70
0
  3
Dashed __ __ __ __ __
 72
65
 73
2
 40
0.75
 49
0.5
 49
-0.25
  0
LTYPE
  5
43B
  2
DOTTED
 70
0
  3
Dotted .  .  .  .
 72
65
 73
2
 40
0.2
 49
0.0
 49
-0.2
  0
ENDTAB
  0
TABLE
  2
STYLE
  70
4
  0
STYLE
  2
KICAD
  70
0
  40
0
  41
1
  42
1
  50
0
  71
0
  3
isocp.shx
  0
STYLE
  2
KICADB
  70
0
  40
0
  41
1
  42
1
  50
0
  71
0
  3
isocp.shx
  0
STYLE
  2
KICADI
  70
0
  40
0
  41
1
  42
1
  50
15
  71
0
  3
isocp.shx
  0
STYLE
  2
KICADBI
  70
0
  40
0
  41
1
  42
1
  50
15
  71
0
  3
isocp.shx
  0
ENDTAB
  0
TABLE
  2
LAYER
  70
1
  0
LAYER
  2
BLACK
  70
0
  62
7
  6
CONTINUOUS
  0
ENDTAB
  0
ENDSEC
  0
SECTION
  2
ENTITIES
0
CIRCLE
8
BLACK
10
35
20
-54
40
1.2
0
LINE
8
BLACK
6
CONTINUOUS
10
308.914
20
-133.658
11
310.352
21
-133.658
0
LINE
8
BLACK
6
CONTINUOUS
10
90.1262
20
-172.845
11
96.9825
21
-172.845
0
ARC
8
BLACK
10
469.6
20
-54.3
40
3
50
-0
51
90
0
LINE
8
BLACK
6
CONTINUOUS
10
182.995
20
-115.695
11
196.995
21
-115.695
0
LINE
8
BLACK
6
CONTINUOUS
10
66.3137
20
-158.845
11
61.5512
21
-158.845
0
LINE
8
BLACK
6
CONTINUOUS
10
168.42
20
-82.645
11
154.42
21
-82.645
0
LINE
8
BLACK
6
CONTINUOUS
10
463.695
20
-82.645
11
449.695
21
-82.645
0
LINE
8
BLACK
6
CONTINUOUS
10
82.9825
20
-139.795
11
82.9825
21
-153.795
0
LINE
8
BLACK
6
CONTINUOUS
10
349.683
20
-68.07
11
363.683
21
-68.07
0
LINE
8
BLACK
6
CONTINUOUS
10
430.645
20
-172.845
11
444.645
21
-172.845
0
LINE
8
BLACK
6
CONTINUOUS
10
115.064
20
-172.845
11
122.064
21
-172.845
0
LINE
8
BLACK
6
CONTINUOUS
10
235.382
20
-172.845
11
247.001
21
-172.845
0
LINE
8
BLACK
6
CONTINUOUS
10
101.745
20
-115.695
11
101.745
21
-101.695
0
LINE
8
BLACK
6
CONTINUOUS
10
233.001
20
-158.845
11
233.001
21
-172.845
0
LINE
8
BLACK
6
CONTINUOUS
10
44.8825
20
-115.695
11
58.8825
21
-115.695
0
LINE
8
BLACK
6
CONTINUOUS
10
448.695
20
-133.658
11
463.695
21
-133.658
0
LINE
8
BLACK
6
CONTINUOUS
10
330.632
20
-96.645
11
344.632
21
-96.645
0
LINE
8
BLACK
6
CONTINUOUS
10
182.995
20
-54.07
11
182.995
21
-68.07
0
LINE
8
BLACK
6
CONTINUOUS
10
97.27
20
-68.07
11
111.27
21
-68.07
0
LINE
8
BLACK
6
CONTINUOUS
10
463.695
20
-96.645
11
463.695
21
-82.645
0
LINE
8
BLACK
6
CONTINUOUS
10
277.957
20
-120.745
11
263.957
21
-120.745
0
LINE
8
BLACK
6
CONTINUOUS
10
92.22
20
-54.07
11
78.22
21
-54.07
0
LINE
8
BLACK
6
CONTINUOUS
10
425.595
20
-134.745
11
425.595
21
-120.745
0
LINE
8
BLACK
6
CONTINUOUS
10
290.151
20
-153.795
11
304.151
21
-153.795
0
LINE
8
BLACK
6
CONTINUOUS
10
256.814
20
-158.845
11
256.814
21
-172.845
0
CIRCLE
8
BLACK
10
325
20
-73.5
40
1.2
0
LINE
8
BLACK
6
CONTINUOUS
10
159.183
20
-158.845
11
159.183
21
-172.845
0
LINE
8
BLACK
6
CONTINUOUS
10
301.77
20
-68.07
11
301.77
21
-54.07
0
LINE
8
BLACK
6
CONTINUOUS
10
35.3
20
-176.1
11
469.6
21
-176.1
0
LINE
8
BLACK
6
CONTINUOUS
10
68.695
20
-115.695
11
82.695
21
-115.695
0
CIRCLE
8
BLACK
10
35
20
-118
40
1.2
0
LINE
8
BLACK
6
CONTINUOUS
10
311.295
20
-96.645
11
311.295
21
-82.645
0
LINE
8
BLACK
6
CONTINUOUS
10
197.282
20
-153.795
11
211.282
21
-153.795
0
LINE
8
BLACK
6
CONTINUOUS
10
235.095
20
-101.695
11
221.095
21
-101.695
0
LINE
8
BLACK
6
CONTINUOUS
10
173.183
20
-172.845
11
175.564
21
-172.845
0
LINE
8
BLACK
6
CONTINUOUS
10
258.907
20
-134.745
11
258.907
21
-120.745
0
LINE
8
BLACK
6
CONTINUOUS
10
192.52
20
-82.645
11
192.52
21
-96.645
0
LINE
8
BLACK
6
CONTINUOUS
10
392.545
20
-115.695
11
406.545
21
-115.695
0
LINE
8
BLACK
6
CONTINUOUS
10
278.245
20
-101.695
11
278.245
21
-115.695
0
LINE
8
BLACK
6
CONTINUOUS
10
220.807
20
-120.745
11
206.808
21
-120.745
0
LINE
8
BLACK
6
CONTINUOUS
10
318.439
20
-126.658
11
317.352
21
-126.658
0
LINE
8
BLACK
6
CONTINUOUS
10
54.12
20
-82.645
11
40.12
21
-82.645
0
LINE
8
BLACK
6
CONTINUOUS
10
286.476
20
-134.745
11
286.476
21
-135.745
0
LINE
8
BLACK
6
CONTINUOUS
10
40.12
20
-54.07
11
40.12
21
-68.07
0
LINE
8
BLACK
6
CONTINUOUS
10
249.67
20
-82.645
11
249.67
21
-96.645
0
LINE
8
BLACK
6
CONTINUOUS
10
144.895
20
-101.695
11
144.895
21
-115.695
0
LINE
8
BLACK
6
CONTINUOUS
10
178.232
20
-139.795
11
178.232
21
-153.795
0
LINE
8
BLACK
6
CONTINUOUS
10
463.695
20
-171.758
11
463.695
21
-164.758
0
LINE
8
BLACK
6
CONTINUOUS
10
87.745
20
-101.695
11
87.745
21
-115.695
0
LINE
8
BLACK
6
CONTINUOUS
10
330.632
20
-54.07
11
330.632
21
-68.07
0
LINE
8
BLACK
6
CONTINUOUS
10
92.5075
20
-134.745
11
106.507
21
-134.745
0
ARC
8
BLACK
10
35.3
20
-54.3
40
3
50
90
51
180
0
LINE
8
BLACK
6
CONTINUOUS
10
249.382
20
-172.845
11
249.382
21
-158.845
0
LINE
8
BLACK
6
CONTINUOUS
10
308.914
20
-134.745
11
308.914
21
-133.658
0
LINE
8
BLACK
6
CONTINUOUS
10
382.732
20
-172.845
11
382.732
21
-158.845
0
LINE
8
BLACK
6
CONTINUOUS
10
154.132
20
-139.795
11
140.132
21
-139.795
0
LINE
8
BLACK
6
CONTINUOUS
10
47.2637
20
-120.745
11
42.5012
21
-120.745
0
LINE
8
BLACK
6
CONTINUOUS
10
444.645
20
-96.645
11
444.645
21
-82.645
0
LINE
8
BLACK
6
CONTINUOUS
10
247.001
20
-158.845
11
235.382
21
-158.845
0
LINE
8
BLACK
6
CONTINUOUS
10
449.695
20
-82.645
11
449.695
21
-96.645
0
LINE
8
BLACK
6
CONTINUOUS
10
96.9825
20
-172.845
11
104.126
21
-172.845
0
LINE
8
BLACK
6
CONTINUOUS
10
173.183
20
-139.795
11
159.183
21
-139.795
0
LINE
8
BLACK
6
CONTINUOUS
10
286.476
20
-120.745
11
283.007
21
-120.745
0
LINE
8
BLACK
6
CONTINUOUS
10
115.064
20
-157.845
11
115.064
21
-172.845
0
LINE
8
BLACK
6
CONTINUOUS
10
206.52
20
-82.645
11
192.52
21
-82.645
0
LINE
8
BLACK
6
CONTINUOUS
10
59.17
20
-96.645
11
73.17
21
-96.645
0
CIRCLE
8
BLACK
10
469.4
20
-173.5
40
1.2
0
LINE
8
BLACK
6
CONTINUOUS
10
304.151
20
-153.795
11
304.151
21
-139.795
0
LINE
8
BLACK
6
CONTINUOUS
10
392.545
20
-82.645
11
392.545
21
-96.645
0
LINE
8
BLACK
6
CONTINUOUS
10
344.632
20
-101.695
11
330.632
21
-101.695
0
CIRCLE
8
BLACK
10
180
20
-117.5
40
1.2
0
LINE
8
BLACK
6
CONTINUOUS
10
154.132
20
-153.795
11
154.132
21
-139.795
0
LINE
8
BLACK
6
CONTINUOUS
10
78.22
20
-82.645
11
78.22
21
-96.645
0
LINE
8
BLACK
6
CONTINUOUS
10
390.397
20
-51.3
11
399.803
21
-51.3
0
LINE
8
BLACK
6
CONTINUOUS
10
230.332
20
-139.795
11
216.332
21
-139.795
0
LINE
8
BLACK
6
CONTINUOUS
10
226.832
20
-157.845
11
222.064
21
-157.845
0
LINE
8
BLACK
6
CONTINUOUS
10
42.5012
20
-172.845
11
54.12
21
-172.845
0
LINE
8
BLACK
6
CONTINUOUS
10
96.9825
20
-139.795
11
82.9825
21
-139.795
0
LINE
8
BLACK
6
CONTINUOUS
10
73.17
20
-96.645
11
73.17
21
-82.645
0
LINE
8
BLACK
6
CONTINUOUS
10
254.145
20
-101.695
11
240.145
21
-101.695
0
LINE
8
BLACK
6
CONTINUOUS
10
116.032
20
-139.795
11
102.032
21
-139.795
0
LINE
8
BLACK
6
CONTINUOUS
10
288.713
20
-139.795
11
281.713
21
-139.795
0
LINE
8
BLACK
6
CONTINUOUS
10
382.732
20
-115.695
11
382.732
21
-101.695
0
LINE
8
BLACK
6
CONTINUOUS
10
430.645
20
-153.795
11
444.645
21
-153.795
0
CIRCLE
8
BLACK
10
35
20
-173.5
40
1.2
0
LINE
8
BLACK
6
CONTINUOUS
10
139.845
20
-115.695
11
139.845
21
-101.695
0
LINE
8
BLACK
6
CONTINUOUS
10
463.695
20
-133.658
11
463.695
21
-126.658
0
LINE
8
BLACK
6
CONTINUOUS
10
411.595
20
-153.795
11
425.595
21
-153.795
0
LINE
8
BLACK
6
CONTINUOUS
10
448.695
20
-109.782
11
463.695
21
-109.782
0
LINE
8
BLACK
6
CONTINUOUS
10
158.895
20
-101.695
11
144.895
21
-101.695
0
LINE
8
BLACK
6
CONTINUOUS
10
254.145
20
-115.695
11
254.145
21
-101.695
0
LINE
8
BLACK
6
CONTINUOUS
10
448.695
20
-171.758
11
463.695
21
-171.758
0
LINE
8
BLACK
6
CONTINUOUS
10
411.595
20
-82.645
11
411.595
21
-96.645
0
LINE
8
BLACK
6
CONTINUOUS
10
368.732
20
-54.07
11
368.732
21
-68.07
0
LINE
8
BLACK
6
CONTINUOUS
10
144.607
20
-120.745
11
130.607
21
-120.745
0
LINE
8
BLACK
6
CONTINUOUS
10
116.32
20
-68.07
11
130.32
21
-68.07
0
LINE
8
BLACK
6
CONTINUOUS
10
317.352
20
-125.22
11
318.439
21
-125.22
0
LINE
8
BLACK
6
CONTINUOUS
10
120.795
20
-101.695
11
106.795
21
-101.695
0
LINE
8
BLACK
6
CONTINUOUS
10
406.545
20
-96.645
11
406.545
21
-82.645
0
LINE
8
BLACK
6
CONTINUOUS
10
472.6
20
-173.1
11
472.6
21
-54.3
0
LINE
8
BLACK
6
CONTINUOUS
10
206.808
20
-120.745
11
206.808
21
-134.745
0
LINE
8
BLACK
6
CONTINUOUS
10
304.439
20
-158.845
11
304.439
21
-172.845
0
LINE
8
BLACK
6
CONTINUOUS
10
116.32
20
-96.645
11
130.32
21
-96.645
0
LINE
8
BLACK
6
CONTINUOUS
10
196.995
20
-115.695
11
196.995
21
-101.695
0
LINE
8
BLACK
6
CONTINUOUS
10
287.77
20
-54.07
11
287.77
21
-68.07
0
LINE
8
BLACK
6
CONTINUOUS
10
406.545
20
-153.795
11
406.545
21
-139.795
0
LINE
8
BLACK
6
CONTINUOUS
10
197.282
20
-139.795
11
197.282
21
-153.795
0
LINE
8
BLACK
6
CONTINUOUS
10
56.5012
20
-172.845
11
56.5012
21
-158.845
0
LINE
8
BLACK
6
CONTINUOUS
10
411.595
20
-115.695
11
425.595
21
-115.695
0
LINE
8
BLACK
6
CONTINUOUS
10
406.545
20
-101.695
11
392.545
21
-101.695
0
LINE
8
BLACK
6
CONTINUOUS
10
290.151
20
-139.795
11
290.151
21
-153.795
0
LINE
8
BLACK
6
CONTINUOUS
10
40.12
20
-68.07
11
54.12
21
-68.07
0
LINE
8
BLACK
6
CONTINUOUS
10
182.707
20
-120.745
11
168.707
21
-120.745
0
LINE
8
BLACK
6
CONTINUOUS
10
268.433
20
-139.795
11
254.432
21
-139.795
0
LINE
8
BLACK
6
CONTINUOUS
10
159.183
20
-172.845
11
161.564
21
-172.845
0
LINE
8
BLACK
6
CONTINUOUS
10
54.12
20
-68.07
11
54.12
21
-54.07
0
LINE
8
BLACK
6
CONTINUOUS
10
44.8825
20
-101.695
11
44.8825
21
-115.695
0
LINE
8
BLACK
6
CONTINUOUS
10
112.532
20
-172.845
11
112.532
21
-157.845
0
LINE
8
BLACK
6
CONTINUOUS
10
282.72
20
-82.645
11
268.72
21
-82.645
0
LINE
8
BLACK
6
CONTINUOUS
10
61.5512
20
-172.845
11
66.3137
21
-172.845
0
LINE
8
BLACK
6
CONTINUOUS
10
249.67
20
-54.07
11
249.67
21
-68.07
0
CIRCLE
8
BLACK
10
180
20
-73.5
40
1.2
0
LINE
8
BLACK
6
CONTINUOUS
10
368.732
20
-115.695
11
382.732
21
-115.695
0
LINE
8
BLACK
6
CONTINUOUS
10
47.2637
20
-134.745
11
56.5012
21
-134.745
0
ARC
8
BLACK
10
469.6
20
-173.1
40
3
50
-90
51
-0
0
LINE
8
BLACK
6
CONTINUOUS
10
135.37
20
-54.07
11
135.37
21
-68.07
0
LINE
8
BLACK
6
CONTINUOUS
10
449.695
20
-125.22
11
463.695
21
-125.22
0
LINE
8
BLACK
6
CONTINUOUS
10
82.9825
20
-153.795
11
96.9825
21
-153.795
0
LINE
8
BLACK
6
CONTINUOUS
10
90.1262
20
-158.845
11
82.9825
21
-158.845
0
LINE
8
BLACK
6
CONTINUOUS
10
235.382
20
-158.845
11
233.001
21
-158.845
0
LINE
8
BLACK
6
CONTINUOUS
10
406.545
20
-120.745
11
392.545
21
-120.745
0
LINE
8
BLACK
6
CONTINUOUS
10
293.476
20
-135.745
11
293.476
21
-134.745
0
LINE
8
BLACK
6
CONTINUOUS
10
54.12
20
-158.845
11
42.5012
21
-158.845
0
LINE
8
BLACK
6
CONTINUOUS
10
273.195
20
-115.695
11
273.195
21
-101.695
0
LINE
8
BLACK
6
CONTINUOUS
10
463.695
20
-111.22
11
449.695
21
-111.22
0
LINE
8
BLACK
6
CONTINUOUS
10
116.32
20
-54.07
11
116.32
21
-68.07
0
LINE
8
BLACK
6
CONTINUOUS
10
294.626
20
-158.845
11
280.626
21
-158.845
0
LINE
8
BLACK
6
CONTINUOUS
10
310.352
20
-135.745
11
317.352
21
-135.745
0
CIRCLE
8
BLACK
10
325
20
-117.5
40
1.2
0
LINE
8
BLACK
6
CONTINUOUS
10
230.62
20
-96.645
11
244.62
21
-96.645
0
LINE
8
BLACK
6
CONTINUOUS
10
363.683
20
-115.695
11
363.683
21
-101.695
0
LINE
8
BLACK
6
CONTINUOUS
10
263.957
20
-120.745
11
263.957
21
-134.745
0
LINE
8
BLACK
6
CONTINUOUS
10
382.732
20
-96.645
11
382.732
21
-82.645
0
LINE
8
BLACK
6
CONTINUOUS
10
68.695
20
-101.695
11
68.695
21
-115.695
0
LINE
8
BLACK
6
CONTINUOUS
10
92.5075
20
-120.745
11
92.5075
21
-134.745
0
LINE
8
BLACK
6
CONTINUOUS
10
211.57
20
-96.645
11
225.57
21
-96.645
0
LINE
8
BLACK
6
CONTINUOUS
10
316.058
20
-109.782
11
318.439
21
-109.782
0
LINE
8
BLACK
6
CONTINUOUS
10
182.995
20
-68.07
11
196.995
21
-68.07
0
LINE
8
BLACK
6
CONTINUOUS
10
406.545
20
-115.695
11
406.545
21
-101.695
0
LINE
8
BLACK
6
CONTINUOUS
10
225.57
20
-82.645
11
211.57
21
-82.645
0
LINE
8
BLACK
6
CONTINUOUS
10
430.645
20
-115.695
11
444.645
21
-115.695
0
LINE
8
BLACK
6
CONTINUOUS
10
106.507
20
-134.745
11
106.507
21
-120.745
0
LINE
8
BLACK
6
CONTINUOUS
10
54.12
20
-54.07
11
40.12
21
-54.07
0
LINE
8
BLACK
6
CONTINUOUS
10
416.07
20
-158.845
11
402.07
21
-158.845
0
LINE
8
BLACK
6
CONTINUOUS
10
54.12
20
-96.645
11
54.12
21
-82.645
0
LINE
8
BLACK
6
CONTINUOUS
10
330.632
20
-68.07
11
344.632
21
-68.07
0
LINE
8
BLACK
6
CONTINUOUS
10
320.82
20
-54.07
11
306.82
21
-54.07
0
LINE
8
BLACK
6
CONTINUOUS
10
149.37
20
-96.645
11
149.37
21
-82.645
0
LINE
8
BLACK
6
CONTINUOUS
10
363.683
20
-153.795
11
363.683
21
-139.795
0
LINE
8
BLACK
6
CONTINUOUS
10
215.064
20
-172.845
11
219.832
21
-172.845
0
LINE
8
BLACK
6
CONTINUOUS
10
316.058
20
-101.695
11
302.058
21
-101.695
0
LINE
8
BLACK
6
CONTINUOUS
10
66.3137
20
-172.845
11
75.5512
21
-172.845
0
LINE
8
BLACK
6
CONTINUOUS
10
294.914
20
-120.745
11
293.476
21
-120.745
0
LINE
8
BLACK
6
CONTINUOUS
10
463.695
20
-125.22
11
463.695
21
-111.22
0
LINE
8
BLACK
6
CONTINUOUS
10
206.808
20
-134.745
11
220.807
21
-134.745
0
LINE
8
BLACK
6
CONTINUOUS
10
368.732
20
-82.645
11
368.732
21
-96.645
0
LINE
8
BLACK
6
CONTINUOUS
10
58.8825
20
-101.695
11
44.8825
21
-101.695
0
LINE
8
BLACK
6
CONTINUOUS
10
102.032
20
-153.795
11
116.032
21
-153.795
0
LINE
8
BLACK
6
CONTINUOUS
10
349.683
20
-153.795
11
363.683
21
-153.795
0
LINE
8
BLACK
6
CONTINUOUS
10
270.814
20
-158.845
11
256.814
21
-158.845
0
LINE
8
BLACK
6
CONTINUOUS
10
430.645
20
-96.645
11
444.645
21
-96.645
0
LINE
8
BLACK
6
CONTINUOUS
10
444.645
20
-101.695
11
430.645
21
-101.695
0
LINE
8
BLACK
6
CONTINUOUS
10
444.645
20
-158.845
11
430.645
21
-158.845
0
LINE
8
BLACK
6
CONTINUOUS
10
392.545
20
-153.795
11
406.545
21
-153.795
0
LINE
8
BLACK
6
CONTINUOUS
10
368.732
20
-96.645
11
382.732
21
-96.645
0
LINE
8
BLACK
6
CONTINUOUS
10
363.683
20
-101.695
11
349.683
21
-101.695
0
LINE
8
BLACK
6
CONTINUOUS
10
239.857
20
-134.745
11
239.857
21
-120.745
0
LINE
8
BLACK
6
CONTINUOUS
10
182.995
20
-101.695
11
182.995
21
-115.695
0
LINE
8
BLACK
6
CONTINUOUS
10
178.232
20
-153.795
11
192.232
21
-153.795
0
LINE
8
BLACK
6
CONTINUOUS
10
87.745
20
-115.695
11
101.745
21
-115.695
0
LINE
8
BLACK
6
CONTINUOUS
10
402.07
20
-172.845
11
416.07
21
-172.845
0
LINE
8
BLACK
6
CONTINUOUS
10
42.5012
20
-153.795
11
56.5012
21
-153.795
0
LINE
8
BLACK
6
CONTINUOUS
10
92.22
20
-68.07
11
92.22
21
-54.07
0
LINE
8
BLACK
6
CONTINUOUS
10
449.695
20
-96.645
11
463.695
21
-96.645
0
LINE
8
BLACK
6
CONTINUOUS
10
417.508
20
-157.845
11
417.508
21
-172.845
0
LINE
8
BLACK
6
CONTINUOUS
10
406.545
20
-139.795
11
392.545
21
-139.795
0
LINE
8
BLACK
6
CONTINUOUS
10
211.57
20
-82.645
11
211.57
21
-96.645
0
LINE
8
BLACK
6
CONTINUOUS
10
302.058
20
-115.695
11
304.439
21
-115.695
0
LINE
8
BLACK
6
CONTINUOUS
10
240.145
20
-101.695
11
240.145
21
-115.695
0
LINE
8
BLACK
6
CONTINUOUS
10
220.807
20
-134.745
11
220.807
21
-120.745
0
LINE
8
BLACK
6
CONTINUOUS
10
140.132
20
-139.795
11
140.132
21
-153.795
0
LINE
8
BLACK
6
CONTINUOUS
10
78.22
20
-96.645
11
92.22
21
-96.645
0
LINE
8
BLACK
6
CONTINUOUS
10
201.757
20
-120.745
11
187.757
21
-120.745
0
LINE
8
BLACK
6
CONTINUOUS
10
268.433
20
-153.795
11
268.433
21
-139.795
0
LINE
8
BLACK
6
CONTINUOUS
10
319.733
20
-82.645
11
312.733
21
-82.645
0
LINE
8
BLACK
6
CONTINUOUS
10
368.732
20
-158.845
11
368.732
21
-172.845
0
LINE
8
BLACK
6
CONTINUOUS
10
175.564
20
-172.845
11
175.564
21
-158.845
0
LINE
8
BLACK
6
CONTINUOUS
10
177.945
20
-115.695
11
177.945
21
-101.695
0
LINE
8
BLACK
6
CONTINUOUS
10
263.67
20
-96.645
11
263.67
21
-82.645
0
LINE
8
BLACK
6
CONTINUOUS
10
122.064
20
-172.845
11
122.064
21
-157.845
0
LINE
8
BLACK
6
CONTINUOUS
10
448.695
20
-140.882
11
448.695
21
-147.882
0
LINE
8
BLACK
6
CONTINUOUS
10
297.007
20
-134.745
11
308.914
21
-134.745
0
LINE
8
BLACK
6
CONTINUOUS
10
430.645
20
-134.745
11
444.645
21
-134.745
0
LINE
8
BLACK
6
CONTINUOUS
10
425.595
20
-120.745
11
411.595
21
-120.745
0
LINE
8
BLACK
6
CONTINUOUS
10
344.632
20
-96.645
11
344.632
21
-82.645
0
LINE
8
BLACK
6
CONTINUOUS
10
344.632
20
-158.845
11
330.632
21
-158.845
0
LINE
8
BLACK
6
CONTINUOUS
10
216.045
20
-68.07
11
216.045
21
-54.07
0
LINE
8
BLACK
6
CONTINUOUS
10
130.32
20
-96.645
11
130.32
21
-82.645
0
LINE
8
BLACK
6
CONTINUOUS
10
318.439
20
-109.782
11
318.439
21
-102.782
0
LINE
8
BLACK
6
CONTINUOUS
10
135.082
20
-153.795
11
135.082
21
-139.795
0
LINE
8
BLACK
6
CONTINUOUS
10
392.545
20
-139.795
11
392.545
21
-153.795
0
LINE
8
BLACK
6
CONTINUOUS
10
430.645
20
-101.695
11
430.645
21
-115.695
0
LINE
8
BLACK
6
CONTINUOUS
10
349.683
20
-82.645
11
349.683
21
-96.645
0
LINE
8
BLACK
6
CONTINUOUS
10
444.645
20
-120.745
11
430.645
21
-120.745
0
LINE
8
BLACK
6
CONTINUOUS
10
382.732
20
-54.07
11
368.732
21
-54.07
0
LINE
8
BLACK
6
CONTINUOUS
10
411.595
20
-101.695
11
411.595
21
-115.695
0
LINE
8
BLACK
6
CONTINUOUS
10
293.476
20
-120.745
11
286.476
21
-120.745
0
LINE
8
BLACK
6
CONTINUOUS
10
318.439
20
-102.782
11
316.058
21
-102.782
0
LINE
8
BLACK
6
CONTINUOUS
10
295.857
20
-97.645
11
295.857
21
-82.645
0
LINE
8
BLACK
6
CONTINUOUS
10
463.695
20
-163.32
11
463.695
21
-149.32
0
LINE
8
BLACK
6
CONTINUOUS
10
392.545
20
-96.645
11
406.545
21
-96.645
0
LINE
8
BLACK
6
CONTINUOUS
10
417.508
20
-172.845
11
424.508
21
-172.845
0
LINE
8
BLACK
6
CONTINUOUS
10
349.683
20
-172.845
11
363.683
21
-172.845
0
LINE
8
BLACK
6
CONTINUOUS
10
304.151
20
-139.795
11
290.151
21
-139.795
0
LINE
8
BLACK
6
CONTINUOUS
10
311.295
20
-82.645
11
297.295
21
-82.645
0
LINE
8
BLACK
6
CONTINUOUS
10
173.183
20
-158.845
11
161.564
21
-158.845
0
LINE
8
BLACK
6
CONTINUOUS
10
254.432
20
-153.795
11
268.433
21
-153.795
0
LINE
8
BLACK
6
CONTINUOUS
10
402.07
20
-158.845
11
402.07
21
-172.845
0
LINE
8
BLACK
6
CONTINUOUS
10
111.27
20
-82.645
11
97.27
21
-82.645
0
LINE
8
BLACK
6
CONTINUOUS
10
463.695
20
-109.782
11
463.695
21
-102.782
0
LINE
8
BLACK
6
CONTINUOUS
10
444.645
20
-115.695
11
444.645
21
-101.695
0
LINE
8
BLACK
6
CONTINUOUS
10
288.857
20
-97.645
11
295.857
21
-97.645
0
LINE
8
BLACK
6
CONTINUOUS
10
305.589
20
-139.795
11
305.589
21
-154.795
0
LINE
8
BLACK
6
CONTINUOUS
10
416.07
20
-172.845
11
416.07
21
-158.845
0
LINE
8
BLACK
6
CONTINUOUS
10
106.507
20
-120.745
11
92.5075
21
-120.745
0
LINE
8
BLACK
6
CONTINUOUS
10
82.695
20
-101.695
11
68.695
21
-101.695
0
LINE
8
BLACK
6
CONTINUOUS
10
196.995
20
-101.695
11
182.995
21
-101.695
0
LINE
8
BLACK
6
CONTINUOUS
10
344.632
20
-82.645
11
330.632
21
-82.645
0
LINE
8
BLACK
6
CONTINUOUS
10
216.332
20
-153.795
11
230.332
21
-153.795
0
LINE
8
BLACK
6
CONTINUOUS
10
382.732
20
-158.845
11
368.732
21
-158.845
0
LINE
8
BLACK
6
CONTINUOUS
10
61.2637
20
-120.745
11
56.5012
21
-120.745
0
LINE
8
BLACK
6
CONTINUOUS
10
344.632
20
-172.845
11
344.632
21
-158.845
0
LINE
8
BLACK
6
CONTINUOUS
10
168.707
20
-120.745
11
168.707
21
-134.745
0
LINE
8
BLACK
6
CONTINUOUS
10
292.245
20
-101.695
11
278.245
21
-101.695
0
LINE
8
BLACK
6
CONTINUOUS
10
316.058
20
-111.22
11
316.058
21
-109.782
0
LINE
8
BLACK
6
CONTINUOUS
10
56.5012
20
-134.745
11
61.2637
21
-134.745
0
LINE
8
BLACK
6
CONTINUOUS
10
288.857
20
-82.645
11
288.857
21
-97.645
0
LINE
8
BLACK
6
CONTINUOUS
10
104.126
20
-172.845
11
104.126
21
-158.845
0
LINE
8
BLACK
6
CONTINUOUS
10
318.439
20
-133.658
11
318.439
21
-126.658
0
LINE
8
BLACK
6
CONTINUOUS
10
154.42
20
-96.645
11
168.42
21
-96.645
0
LINE
8
BLACK
6
CONTINUOUS
10
463.695
20
-126.658
11
448.695
21
-126.658
0
LINE
8
BLACK
6
CONTINUOUS
10
282.72
20
-68.07
11
282.72
21
-54.07
0
LINE
8
BLACK
6
CONTINUOUS
10
78.22
20
-68.07
11
92.22
21
-68.07
0
LINE
8
BLACK
6
CONTINUOUS
10
187.757
20
-134.745
11
201.757
21
-134.745
0
LINE
8
BLACK
6
CONTINUOUS
10
304.439
20
-172.845
11
318.439
21
-172.845
0
LINE
8
BLACK
6
CONTINUOUS
10
230.332
20
-153.795
11
230.332
21
-139.795
0
LINE
8
BLACK
6
CONTINUOUS
10
425.595
20
-139.795
11
411.595
21
-139.795
0
LINE
8
BLACK
6
CONTINUOUS
10
116.32
20
-82.645
11
116.32
21
-96.645
0
LINE
8
BLACK
6
CONTINUOUS
10
125.845
20
-115.695
11
139.845
21
-115.695
0
LINE
8
BLACK
6
CONTINUOUS
10
406.545
20
-82.645
11
392.545
21
-82.645
0
LINE
8
BLACK
6
CONTINUOUS
10
135.37
20
-82.645
11
135.37
21
-96.645
0
LINE
8
BLACK
6
CONTINUOUS
10
312.589
20
-154.795
11
312.589
21
-139.795
0
LINE
8
BLACK
6
CONTINUOUS
10
382.732
20
-101.695
11
368.732
21
-101.695
0
LINE
8
BLACK
6
CONTINUOUS
10
411.595
20
-139.795
11
411.595
21
-153.795
0
LINE
8
BLACK
6
CONTINUOUS
10
424.508
20
-157.845
11
417.508
21
-157.845
0
LINE
8
BLACK
6
CONTINUOUS
10
63.9325
20
-139.795
11
63.9325
21
-153.795
0
LINE
8
BLACK
6
CONTINUOUS
10
258.907
20
-120.745
11
244.907
21
-120.745
0
LINE
8
BLACK
6
CONTINUOUS
10
393.632
20
-172.845
11
400.632
21
-172.845
0
LINE
8
BLACK
6
CONTINUOUS
10
425.595
20
-101.695
11
411.595
21
-101.695
0
LINE
8
BLACK
6
CONTINUOUS
10
75.5512
20
-172.845
11
80.3137
21
-172.845
0
LINE
8
BLACK
6
CONTINUOUS
10
273.195
20
-101.695
11
259.195
21
-101.695
0
LINE
8
BLACK
6
CONTINUOUS
10
249.382
20
-153.795
11
249.382
21
-139.795
0
LINE
8
BLACK
6
CONTINUOUS
10
87.4575
20
-134.745
11
87.4575
21
-120.745
0
LINE
8
BLACK
6
CONTINUOUS
10
349.683
20
-115.695
11
363.683
21
-115.695
0
LINE
8
BLACK
6
CONTINUOUS
10
280.626
20
-158.845
11
280.626
21
-172.845
0
LINE
8
BLACK
6
CONTINUOUS
10
221.095
20
-54.07
11
221.095
21
-68.07
0
LINE
8
BLACK
6
CONTINUOUS
10
40.12
20
-82.645
11
40.12
21
-96.645
0
LINE
8
BLACK
6
CONTINUOUS
10
282.72
20
-54.07
11
268.72
21
-54.07
0
LINE
8
BLACK
6
CONTINUOUS
10
270.814
20
-172.845
11
270.814
21
-158.845
0
LINE
8
BLACK
6
CONTINUOUS
10
363.683
20
-54.07
11
349.683
21
-54.07
0
LINE
8
BLACK
6
CONTINUOUS
10
411.595
20
-134.745
11
425.595
21
-134.745
0
LINE
8
BLACK
6
CONTINUOUS
10
259.195
20
-101.695
11
259.195
21
-115.695
0
LINE
8
BLACK
6
CONTINUOUS
10
349.683
20
-54.07
11
349.683
21
-68.07
0
LINE
8
BLACK
6
CONTINUOUS
10
56.5012
20
-120.745
11
47.2637
21
-120.745
0
LINE
8
BLACK
6
CONTINUOUS
10
349.683
20
-139.795
11
349.683
21
-153.795
0
LINE
8
BLACK
6
CONTINUOUS
10
106.795
20
-101.695
11
106.795
21
-115.695
0
LINE
8
BLACK
6
CONTINUOUS
10
449.695
20
-111.22
11
449.695
21
-125.22
0
LINE
8
BLACK
6
CONTINUOUS
10
281.713
20
-154.795
11
288.713
21
-154.795
0
LINE
8
BLACK
6
CONTINUOUS
10
75.5512
20
-158.845
11
66.3137
21
-158.845
0
LINE
8
BLACK
6
CONTINUOUS
10
216.045
20
-54.07
11
202.045
21
-54.07
0
LINE
8
BLACK
6
CONTINUOUS
10
144.895
20
-115.695
11
158.895
21
-115.695
0
LINE
8
BLACK
6
CONTINUOUS
10
344.632
20
-54.07
11
330.632
21
-54.07
0
LINE
8
BLACK
6
CONTINUOUS
10
449.695
20
-149.32
11
449.695
21
-163.32
0
LINE
8
BLACK
6
CONTINUOUS
10
149.657
20
-120.745
11
149.657
21
-134.745
0
LINE
8
BLACK
6
CONTINUOUS
10
221.095
20
-101.695
11
221.095
21
-115.695
0
LINE
8
BLACK
6
CONTINUOUS
10
149.657
20
-134.745
11
163.657
21
-134.745
0
LINE
8
BLACK
6
CONTINUOUS
10
175.564
20
-158.845
11
173.183
21
-158.845
0
LINE
8
BLACK
6
CONTINUOUS
10
382.732
20
-82.645
11
368.732
21
-82.645
0
LINE
8
BLACK
6
CONTINUOUS
10
87.4575
20
-120.745
11
73.4575
21
-120.745
0
LINE
8
BLACK
6
CONTINUOUS
10
363.683
20
-96.645
11
363.683
21
-82.645
0
LINE
8
BLACK
6
CONTINUOUS
10
363.683
20
-68.07
11
363.683
21
-54.07
0
LINE
8
BLACK
6
CONTINUOUS
10
225.857
20
-134.745
11
239.857
21
-134.745
0
LINE
8
BLACK
6
CONTINUOUS
10
249.67
20
-68.07
11
263.67
21
-68.07
0
LINE
8
BLACK
6
CONTINUOUS
10
235.095
20
-54.07
11
221.095
21
-54.07
0
LINE
8
BLACK
6
CONTINUOUS
10
312.589
20
-139.795
11
305.589
21
-139.795
0
LINE
8
BLACK
6
CONTINUOUS
10
306.82
20
-54.07
11
306.82
21
-68.07
0
LINE
8
BLACK
6
CONTINUOUS
10
82.695
20
-115.695
11
82.695
21
-101.695
0
LINE
8
BLACK
6
CONTINUOUS
10
312.733
20
-97.645
11
319.733
21
-97.645
0
CIRCLE
8
BLACK
10
180
20
-156.4
40
1.2
0
LINE
8
BLACK
6
CONTINUOUS
10
390.397
20
-51.3
11
35.3
21
-51.3
0
LINE
8
BLACK
6
CONTINUOUS
10
463.695
20
-102.782
11
448.695
21
-102.782
0
LINE
8
BLACK
6
CONTINUOUS
10
249.67
20
-96.645
11
263.67
21
-96.645
0
LINE
8
BLACK
6
CONTINUOUS
10
111.27
20
-54.07
11
97.27
21
-54.07
0
LINE
8
BLACK
6
CONTINUOUS
10
80.3137
20
-158.845
11
75.5512
21
-158.845
0
LINE
8
BLACK
6
CONTINUOUS
10
463.695
20
-147.882
11
463.695
21
-140.882
0
LINE
8
BLACK
6
CONTINUOUS
10
163.657
20
-120.745
11
149.657
21
-120.745
0
LINE
8
BLACK
6
CONTINUOUS
10
111.27
20
-68.07
11
111.27
21
-54.07
0
LINE
8
BLACK
6
CONTINUOUS
10
101.745
20
-101.695
11
87.745
21
-101.695
0
LINE
8
BLACK
6
CONTINUOUS
10
159.183
20
-153.795
11
173.183
21
-153.795
0
LINE
8
BLACK
6
CONTINUOUS
10
42.5012
20
-139.795
11
42.5012
21
-153.795
0
LINE
8
BLACK
6
CONTINUOUS
10
368.732
20
-68.07
11
382.732
21
-68.07
0
LINE
8
BLACK
6
CONTINUOUS
10
97.27
20
-54.07
11
97.27
21
-68.07
0
LINE
8
BLACK
6
CONTINUOUS
10
363.683
20
-172.845
11
363.683
21
-158.845
0
LINE
8
BLACK
6
CONTINUOUS
10
295.857
20
-82.645
11
288.857
21
-82.645
0
LINE
8
BLACK
6
CONTINUOUS
10
344.632
20
-115.695
11
344.632
21
-101.695
0
LINE
8
BLACK
6
CONTINUOUS
10
97.27
20
-96.645
11
111.27
21
-96.645
0
LINE
8
BLACK
6
CONTINUOUS
10
400.632
20
-157.845
11
393.632
21
-157.845
0
LINE
8
BLACK
6
CONTINUOUS
10
120.795
20
-115.695
11
120.795
21
-101.695
0
LINE
8
BLACK
6
CONTINUOUS
10
202.045
20
-68.07
11
216.045
21
-68.07
0
LINE
8
BLACK
6
CONTINUOUS
10
297.295
20
-82.645
11
297.295
21
-96.645
0
LINE
8
BLACK
6
CONTINUOUS
10
239.857
20
-120.745
11
225.857
21
-120.745
0
LINE
8
BLACK
6
CONTINUOUS
10
448.695
20
-164.758
11
448.695
21
-171.758
0
LINE
8
BLACK
6
CONTINUOUS
10
448.695
20
-126.658
11
448.695
21
-133.658
0
LINE
8
BLACK
6
CONTINUOUS
10
202.045
20
-101.695
11
202.045
21
-115.695
0
LINE
8
BLACK
6
CONTINUOUS
10
448.695
20
-147.882
11
463.695
21
-147.882
0
LINE
8
BLACK
6
CONTINUOUS
10
286.476
20
-135.745
11
293.476
21
-135.745
0
LINE
8
BLACK
6
CONTINUOUS
10
225.857
20
-120.745
11
225.857
21
-134.745
0
LINE
8
BLACK
6
CONTINUOUS
10
161.564
20
-172.845
11
173.183
21
-172.845
0
LINE
8
BLACK
6
CONTINUOUS
10
425.595
20
-82.645
11
411.595
21
-82.645
0
LINE
8
BLACK
6
CONTINUOUS
10
316.058
20
-102.782
11
316.058
21
-101.695
0
LINE
8
BLACK
6
CONTINUOUS
10
287.77
20
-68.07
11
301.77
21
-68.07
0
LINE
8
BLACK
6
CONTINUOUS
10
196.995
20
-68.07
11
196.995
21
-54.07
0
LINE
8
BLACK
6
CONTINUOUS
10
293.476
20
-134.745
11
294.914
21
-134.745
0
LINE
8
BLACK
6
CONTINUOUS
10
254.432
20
-139.795
11
254.432
21
-153.795
0
LINE
8
BLACK
6
CONTINUOUS
10
363.683
20
-158.845
11
349.683
21
-158.845
0
LINE
8
BLACK
6
CONTINUOUS
10
280.626
20
-172.845
11
294.626
21
-172.845
0
LINE
8
BLACK
6
CONTINUOUS
10
187.47
20
-82.645
11
173.47
21
-82.645
0
LINE
8
BLACK
6
CONTINUOUS
10
448.695
20
-102.782
11
448.695
21
-109.782
0
LINE
8
BLACK
6
CONTINUOUS
10
230.62
20
-82.645
11
230.62
21
-96.645
0
LINE
8
BLACK
6
CONTINUOUS
10
92.22
20
-82.645
11
78.22
21
-82.645
0
LINE
8
BLACK
6
CONTINUOUS
10
211.282
20
-153.795
11
211.282
21
-139.795
0
LINE
8
BLACK
6
CONTINUOUS
10
400.632
20
-172.845
11
400.632
21
-157.845
0
LINE
8
BLACK
6
CONTINUOUS
10
249.382
20
-158.845
11
247.001
21
-158.845
0
LINE
8
BLACK
6
CONTINUOUS
10
247.001
20
-172.845
11
249.382
21
-172.845
0
LINE
8
BLACK
6
CONTINUOUS
10
154.42
20
-82.645
11
154.42
21
-96.645
0
LINE
8
BLACK
6
CONTINUOUS
10
430.645
20
-139.795
11
430.645
21
-153.795
0
LINE
8
BLACK
6
CONTINUOUS
10
42.5012
20
-120.745
11
42.5012
21
-134.745
0
LINE
8
BLACK
6
CONTINUOUS
10
215.064
20
-157.845
11
215.064
21
-172.845
0
LINE
8
BLACK
6
CONTINUOUS
10
78.22
20
-54.07
11
78.22
21
-68.07
0
LINE
8
BLACK
6
CONTINUOUS
10
283.007
20
-120.745
11
283.007
21
-134.745
0
LINE
8
BLACK
6
CONTINUOUS
10
263.67
20
-82.645
11
249.67
21
-82.645
0
LINE
8
BLACK
6
CONTINUOUS
10
363.683
20
-139.795
11
349.683
21
-139.795
0
LINE
8
BLACK
6
CONTINUOUS
10
463.695
20
-164.758
11
448.695
21
-164.758
0
LINE
8
BLACK
6
CONTINUOUS
10
317.352
20
-126.658
11
317.352
21
-125.22
0
LINE
8
BLACK
6
CONTINUOUS
10
349.683
20
-96.645
11
363.683
21
-96.645
0
LINE
8
BLACK
6
CONTINUOUS
10
263.67
20
-54.07
11
249.67
21
-54.07
0
LINE
8
BLACK
6
CONTINUOUS
10
130.607
20
-120.745
11
130.607
21
-134.745
0
LINE
8
BLACK
6
CONTINUOUS
10
97.27
20
-82.645
11
97.27
21
-96.645
0
LINE
8
BLACK
6
CONTINUOUS
10
320.82
20
-68.07
11
320.82
21
-54.07
0
LINE
8
BLACK
6
CONTINUOUS
10
96.9825
20
-153.795
11
96.9825
21
-139.795
0
LINE
8
BLACK
6
CONTINUOUS
10
130.32
20
-82.645
11
116.32
21
-82.645
0
LINE
8
BLACK
6
CONTINUOUS
10
73.17
20
-82.645
11
59.17
21
-82.645
0
LINE
8
BLACK
6
CONTINUOUS
10
59.17
20
-82.645
11
59.17
21
-96.645
0
LINE
8
BLACK
6
CONTINUOUS
10
330.632
20
-101.695
11
330.632
21
-115.695
0
LINE
8
BLACK
6
CONTINUOUS
10
159.183
20
-139.795
11
159.183
21
-153.795
0
LINE
8
BLACK
6
CONTINUOUS
10
196.995
20
-54.07
11
182.995
21
-54.07
0
LINE
8
BLACK
6
CONTINUOUS
10
163.945
20
-54.07
11
163.945
21
-68.07
0
LINE
8
BLACK
6
CONTINUOUS
10
40.12
20
-96.645
11
54.12
21
-96.645
0
LINE
8
BLACK
6
CONTINUOUS
10
221.095
20
-68.07
11
235.095
21
-68.07
0
LINE
8
BLACK
6
CONTINUOUS
10
302.058
20
-101.695
11
302.058
21
-115.695
0
LINE
8
BLACK
6
CONTINUOUS
10
56.5012
20
-139.795
11
42.5012
21
-139.795
0
LINE
8
BLACK
6
CONTINUOUS
10
125.557
20
-120.745
11
111.557
21
-120.745
0
LINE
8
BLACK
6
CONTINUOUS
10
225.57
20
-96.645
11
225.57
21
-82.645
0
LINE
8
BLACK
6
CONTINUOUS
10
130.607
20
-134.745
11
144.607
21
-134.745
0
LINE
8
BLACK
6
CONTINUOUS
10
219.832
20
-172.845
11
222.064
21
-172.845
0
LINE
8
BLACK
6
CONTINUOUS
10
449.695
20
-163.32
11
463.695
21
-163.32
0
LINE
8
BLACK
6
CONTINUOUS
10
135.082
20
-139.795
11
121.082
21
-139.795
0
LINE
8
BLACK
6
CONTINUOUS
10
173.47
20
-96.645
11
187.47
21
-96.645
0
LINE
8
BLACK
6
CONTINUOUS
10
244.62
20
-82.645
11
230.62
21
-82.645
0
LINE
8
BLACK
6
CONTINUOUS
10
61.2637
20
-134.745
11
61.2637
21
-120.745
0
LINE
8
BLACK
6
CONTINUOUS
10
104.126
20
-158.845
11
96.9825
21
-158.845
0
LINE
8
BLACK
6
CONTINUOUS
10
161.564
20
-158.845
11
159.183
21
-158.845
0
LINE
8
BLACK
6
CONTINUOUS
10
56.5012
20
-153.795
11
56.5012
21
-139.795
0
LINE
8
BLACK
6
CONTINUOUS
10
283.007
20
-134.745
11
286.476
21
-134.745
0
LINE
8
BLACK
6
CONTINUOUS
10
444.645
20
-82.645
11
430.645
21
-82.645
0
LINE
8
BLACK
6
CONTINUOUS
10
121.082
20
-153.795
11
135.082
21
-153.795
0
LINE
8
BLACK
6
CONTINUOUS
10
319.733
20
-97.645
11
319.733
21
-82.645
0
LINE
8
BLACK
6
CONTINUOUS
10
182.707
20
-134.745
11
182.707
21
-120.745
0
LINE
8
BLACK
6
CONTINUOUS
10
135.37
20
-96.645
11
149.37
21
-96.645
0
LINE
8
BLACK
6
CONTINUOUS
10
317.352
20
-135.745
11
317.352
21
-133.658
0
LINE
8
BLACK
6
CONTINUOUS
10
268.72
20
-68.07
11
282.72
21
-68.07
0
LINE
8
BLACK
6
CONTINUOUS
10
121.082
20
-139.795
11
121.082
21
-153.795
0
LINE
8
BLACK
6
CONTINUOUS
10
425.595
20
-96.645
11
425.595
21
-82.645
0
LINE
8
BLACK
6
CONTINUOUS
10
318.439
20
-158.845
11
304.439
21
-158.845
0
LINE
8
BLACK
6
CONTINUOUS
10
235.095
20
-68.07
11
235.095
21
-54.07
0
LINE
8
BLACK
6
CONTINUOUS
10
139.845
20
-101.695
11
125.845
21
-101.695
0
LINE
8
BLACK
6
CONTINUOUS
10
135.37
20
-68.07
11
149.37
21
-68.07
0
LINE
8
BLACK
6
CONTINUOUS
10
292.245
20
-115.695
11
292.245
21
-101.695
0
LINE
8
BLACK
6
CONTINUOUS
10
363.683
20
-82.645
11
349.683
21
-82.645
0
LINE
8
BLACK
6
CONTINUOUS
10
40.12
20
-158.845
11
40.12
21
-172.845
0
LINE
8
BLACK
6
CONTINUOUS
10
163.945
20
-68.07
11
177.945
21
-68.07
0
LINE
8
BLACK
6
CONTINUOUS
10
73.4575
20
-120.745
11
73.4575
21
-134.745
0
LINE
8
BLACK
6
CONTINUOUS
10
173.47
20
-82.645
11
173.47
21
-96.645
0
LINE
8
BLACK
6
CONTINUOUS
10
77.9325
20
-153.795
11
77.9325
21
-139.795
0
LINE
8
BLACK
6
CONTINUOUS
10
149.37
20
-82.645
11
135.37
21
-82.645
0
LINE
8
BLACK
6
CONTINUOUS
10
105.532
20
-172.845
11
112.532
21
-172.845
0
LINE
8
BLACK
6
CONTINUOUS
10
222.064
20
-157.845
11
219.832
21
-157.845
0
LINE
8
BLACK
6
CONTINUOUS
10
130.32
20
-68.07
11
130.32
21
-54.07
0
LINE
8
BLACK
6
CONTINUOUS
10
430.645
20
-120.745
11
430.645
21
-134.745
0
LINE
8
BLACK
6
CONTINUOUS
10
235.382
20
-153.795
11
249.382
21
-153.795
0
LINE
8
BLACK
6
CONTINUOUS
10
256.814
20
-172.845
11
270.814
21
-172.845
0
LINE
8
BLACK
6
CONTINUOUS
10
211.282
20
-139.795
11
197.282
21
-139.795
0
LINE
8
BLACK
6
CONTINUOUS
10
168.42
20
-96.645
11
168.42
21
-82.645
0
LINE
8
BLACK
6
CONTINUOUS
10
406.545
20
-134.745
11
406.545
21
-120.745
0
LINE
8
BLACK
6
CONTINUOUS
10
163.945
20
-115.695
11
177.945
21
-115.695
0
LINE
8
BLACK
6
CONTINUOUS
10
216.332
20
-139.795
11
216.332
21
-153.795
0
LINE
8
BLACK
6
CONTINUOUS
10
192.232
20
-139.795
11
178.232
21
-139.795
0
LINE
8
BLACK
6
CONTINUOUS
10
192.52
20
-96.645
11
206.52
21
-96.645
0
LINE
8
BLACK
6
CONTINUOUS
10
222.064
20
-172.845
11
226.832
21
-172.845
0
LINE
8
BLACK
6
CONTINUOUS
10
177.945
20
-68.07
11
177.945
21
-54.07
0
LINE
8
BLACK
6
CONTINUOUS
10
301.77
20
-54.07
11
287.77
21
-54.07
0
LINE
8
BLACK
6
CONTINUOUS
10
56.5012
20
-158.845
11
54.12
21
-158.845
0
LINE
8
BLACK
6
CONTINUOUS
10
318.439
20
-111.22
11
316.058
21
-111.22
0
LINE
8
BLACK
6
CONTINUOUS
10
149.37
20
-68.07
11
149.37
21
-54.07
0
LINE
8
BLACK
6
CONTINUOUS
10
235.382
20
-139.795
11
235.382
21
-153.795
0
LINE
8
BLACK
6
CONTINUOUS
10
42.5012
20
-158.845
11
40.12
21
-158.845
0
LINE
8
BLACK
6
CONTINUOUS
10
32.3
20
-54.3
11
32.3
21
-173.1
0
LINE
8
BLACK
6
CONTINUOUS
10
349.683
20
-101.695
11
349.683
21
-115.695
0
LINE
8
BLACK
6
CONTINUOUS
10
149.37
20
-54.07
11
135.37
21
-54.07
0
LINE
8
BLACK
6
CONTINUOUS
10
330.632
20
-172.845
11
344.632
21
-172.845
0
LINE
8
BLACK
6
CONTINUOUS
10
244.907
20
-120.745
11
244.907
21
-134.745
0
LINE
8
BLACK
6
CONTINUOUS
10
469.6
20
-51.3
11
399.803
21
-51.3
0
LINE
8
BLACK
6
CONTINUOUS
10
411.595
20
-96.645
11
425.595
21
-96.645
0
LINE
8
BLACK
6
CONTINUOUS
10
392.545
20
-120.745
11
392.545
21
-134.745
0
LINE
8
BLACK
6
CONTINUOUS
10
330.632
20
-158.845
11
330.632
21
-172.845
0
LINE
8
BLACK
6
CONTINUOUS
10
105.532
20
-157.845
11
105.532
21
-172.845
0
CIRCLE
8
BLACK
10
469.4
20
-54
40
1.2
0
LINE
8
BLACK
6
CONTINUOUS
10
304.439
20
-120.745
11
297.007
21
-120.745
0
LINE
8
BLACK
6
CONTINUOUS
10
125.557
20
-134.745
11
125.557
21
-120.745
0
LINE
8
BLACK
6
CONTINUOUS
10
201.757
20
-134.745
11
201.757
21
-120.745
0
LINE
8
BLACK
6
CONTINUOUS
10
368.732
20
-101.695
11
368.732
21
-115.695
0
LINE
8
BLACK
6
CONTINUOUS
10
392.545
20
-101.695
11
392.545
21
-115.695
0
LINE
8
BLACK
6
CONTINUOUS
10
268.72
20
-82.645
11
268.72
21
-96.645
0
LINE
8
BLACK
6
CONTINUOUS
10
463.695
20
-140.882
11
448.695
21
-140.882
0
LINE
8
BLACK
6
CONTINUOUS
10
382.732
20
-68.07
11
382.732
21
-54.07
0
LINE
8
BLACK
6
CONTINUOUS
10
206.52
20
-96.645
11
206.52
21
-82.645
0
LINE
8
BLACK
6
CONTINUOUS
10
58.8825
20
-115.695
11
58.8825
21
-101.695
0
LINE
8
BLACK
6
CONTINUOUS
10
240.145
20
-115.695
11
254.145
21
-115.695
0
LINE
8
BLACK
6
CONTINUOUS
10
216.045
20
-101.695
11
202.045
21
-101.695
0
LINE
8
BLACK
6
CONTINUOUS
10
444.645
20
-134.745
11
444.645
21
-120.745
0
LINE
8
BLACK
6
CONTINUOUS
10
92.22
20
-96.645
11
92.22
21
-82.645
0
LINE
8
BLACK
6
CONTINUOUS
10
125.845
20
-101.695
11
125.845
21
-115.695
0
LINE
8
BLACK
6
CONTINUOUS
10
297.295
20
-96.645
11
311.295
21
-96.645
0
LINE
8
BLACK
6
CONTINUOUS
10
96.9825
20
-158.845
11
90.1262
21
-158.845
0
LINE
8
BLACK
6
CONTINUOUS
10
130.32
20
-54.07
11
116.32
21
-54.07
0
LINE
8
BLACK
6
CONTINUOUS
10
82.9825
20
-158.845
11
82.9825
21
-172.845
0
LINE
8
BLACK
6
CONTINUOUS
10
219.832
20
-157.845
11
215.064
21
-157.845
0
LINE
8
BLACK
6
CONTINUOUS
10
192.232
20
-153.795
11
192.232
21
-139.795
0
LINE
8
BLACK
6
CONTINUOUS
10
463.695
20
-149.32
11
449.695
21
-149.32
0
CIRCLE
8
BLACK
10
325
20
-156.4
40
1.2
0
LINE
8
BLACK
6
CONTINUOUS
10
63.9325
20
-153.795
11
77.9325
21
-153.795
0
LINE
8
BLACK
6
CONTINUOUS
10
61.5512
20
-158.845
11
61.5512
21
-172.845
0
LINE
8
BLACK
6
CONTINUOUS
10
111.27
20
-96.645
11
111.27
21
-82.645
0
LINE
8
BLACK
6
CONTINUOUS
10
263.957
20
-134.745
11
277.957
21
-134.745
0
LINE
8
BLACK
6
CONTINUOUS
10
80.3137
20
-172.845
11
80.3137
21
-158.845
0
LINE
8
BLACK
6
CONTINUOUS
10
235.095
20
-115.695
11
235.095
21
-101.695
0
LINE
8
BLACK
6
CONTINUOUS
10
294.914
20
-134.745
11
297.007
21
-134.745
0
LINE
8
BLACK
6
CONTINUOUS
10
187.757
20
-120.745
11
187.757
21
-134.745
0
LINE
8
BLACK
6
CONTINUOUS
10
425.595
20
-153.795
11
425.595
21
-139.795
0
ARC
8
BLACK
10
35.3
20
-173.1
40
3
50
-180
51
-90
0
LINE
8
BLACK
6
CONTINUOUS
10
411.595
20
-120.745
11
411.595
21
-134.745
0
LINE
8
BLACK
6
CONTINUOUS
10
82.9825
20
-172.845
11
90.1262
21
-172.845
0
LINE
8
BLACK
6
CONTINUOUS
10
330.632
20
-115.695
11
344.632
21
-115.695
0
LINE
8
BLACK
6
CONTINUOUS
10
158.895
20
-115.695
11
158.895
21
-101.695
0
LINE
8
BLACK
6
CONTINUOUS
10
317.352
20
-133.658
11
318.439
21
-133.658
0
LINE
8
BLACK
6
CONTINUOUS
10
344.632
20
-68.07
11
344.632
21
-54.07
0
LINE
8
BLACK
6
CONTINUOUS
10
111.557
20
-134.745
11
125.557
21
-134.745
0
LINE
8
BLACK
6
CONTINUOUS
10
144.607
20
-134.745
11
144.607
21
-120.745
0
LINE
8
BLACK
6
CONTINUOUS
10
444.645
20
-153.795
11
444.645
21
-139.795
0
LINE
8
BLACK
6
CONTINUOUS
10
168.707
20
-134.745
11
182.707
21
-134.745
0
LINE
8
BLACK
6
CONTINUOUS
10
312.733
20
-82.645
11
312.733
21
-97.645
0
LINE
8
BLACK
6
CONTINUOUS
10
173.183
20
-153.795
11
173.183
21
-139.795
0
LINE
8
BLACK
6
CONTINUOUS
10
305.589
20
-154.795
11
312.589
21
-154.795
0
LINE
8
BLACK
6
CONTINUOUS
10
233.001
20
-172.845
11
235.382
21
-172.845
0
LINE
8
BLACK
6
CONTINUOUS
10
294.626
20
-172.845
11
294.626
21
-158.845
0
LINE
8
BLACK
6
CONTINUOUS
10
268.72
20
-54.07
11
268.72
21
-68.07
0
LINE
8
BLACK
6
CONTINUOUS
10
425.595
20
-115.695
11
425.595
21
-101.695
0
LINE
8
BLACK
6
CONTINUOUS
10
140.132
20
-153.795
11
154.132
21
-153.795
0
LINE
8
BLACK
6
CONTINUOUS
10
318.439
20
-172.845
11
318.439
21
-158.845
0
LINE
8
BLACK
6
CONTINUOUS
10
122.064
20
-157.845
11
115.064
21
-157.845
0
LINE
8
BLACK
6
CONTINUOUS
10
277.957
20
-134.745
11
277.957
21
-120.745
0
LINE
8
BLACK
6
CONTINUOUS
10
306.82
20
-68.07
11
320.82
21
-68.07
0
LINE
8
BLACK
6
CONTINUOUS
10
244.62
20
-96.645
11
244.62
21
-82.645
0
LINE
8
BLACK
6
CONTINUOUS
10
259.195
20
-115.695
11
273.195
21
-115.695
0
LINE
8
BLACK
6
CONTINUOUS
10
304.439
20
-115.695
11
304.439
21
-120.745
0
LINE
8
BLACK
6
CONTINUOUS
10
278.245
20
-115.695
11
292.245
21
-115.695
0
LINE
8
BLACK
6
CONTINUOUS
10
249.382
20
-139.795
11
235.382
21
-139.795
0
LINE
8
BLACK
6
CONTINUOUS
10
163.657
20
-134.745
11
163.657
21
-120.745
0
LINE
8
BLACK
6
CONTINUOUS
10
281.713
20
-139.795
11
281.713
21
-154.795
0
CIRCLE
8
BLACK
10
469.4
20
-118
40
1.2
0
LINE
8
BLACK
6
CONTINUOUS
10
226.832
20
-172.845
11
226.832
21
-157.845
0
LINE
8
BLACK
6
CONTINUOUS
10
244.907
20
-134.745
11
258.907
21
-134.745
0
LINE
8
BLACK
6
CONTINUOUS
10
424.508
20
-172.845
11
424.508
21
-157.845
0
LINE
8
BLACK
6
CONTINUOUS
10
368.732
20
-172.845
11
382.732
21
-172.845
0
LINE
8
BLACK
6
CONTINUOUS
10
177.945
20
-101.695
11
163.945
21
-101.695
0
LINE
8
BLACK
6
CONTINUOUS
10
112.532
20
-157.845
11
105.532
21
-157.845
0
LINE
8
BLACK
6
CONTINUOUS
10
106.795
20
-115.695
11
120.795
21
-115.695
0
LINE
8
BLACK
6
CONTINUOUS
10
116.032
20
-153.795
11
116.032
21
-139.795
0
LINE
8
BLACK
6
CONTINUOUS
10
310.352
20
-133.658
11
310.352
21
-135.745
0
LINE
8
BLACK
6
CONTINUOUS
10
73.4575
20
-134.745
11
87.4575
21
-134.745
0
LINE
8
BLACK
6
CONTINUOUS
10
163.945
20
-101.695
11
163.945
21
-115.695
0
LINE
8
BLACK
6
CONTINUOUS
10
444.645
20
-172.845
11
444.645
21
-158.845
0
LINE
8
BLACK
6
CONTINUOUS
10
216.045
20
-115.695
11
216.045
21
-101.695
0
LINE
8
BLACK
6
CONTINUOUS
10
297.007
20
-120.745
11
294.914
21
-120.745
0
LINE
8
BLACK
6
CONTINUOUS
10
318.439
20
-125.22
11
318.439
21
-111.22
0
LINE
8
BLACK
6
CONTINUOUS
10
263.67
20
-68.07
11
263.67
21
-54.07
0
LINE
8
BLACK
6
CONTINUOUS
10
288.713
20
-154.795
11
288.713
21
-139.795
0
LINE
8
BLACK
6
CONTINUOUS
10
330.632
20
-82.645
11
330.632
21
-96.645
0
LINE
8
BLACK
6
CONTINUOUS
10
268.72
20
-96.645
11
282.72
21
-96.645
0
LINE
8
BLACK
6
CONTINUOUS
10
187.47
20
-96.645
11
187.47
21
-82.645
0
LINE
8
BLACK
6
CONTINUOUS
10
42.5012
20
-134.745
11
47.2637
21
-134.745
0
LINE
8
BLACK
6
CONTINUOUS
10
282.72
20
-96.645
11
282.72
21
-82.645
0
LINE
8
BLACK
6
CONTINUOUS
10
40.12
20
-172.845
11
42.5012
21
-172.845
0
LINE
8
BLACK
6
CONTINUOUS
10
393.632
20
-157.845
11
393.632
21
-172.845
0
LINE
8
BLACK
6
CONTINUOUS
10
177.945
20
-54.07
11
163.945
21
-54.07
0
LINE
8
BLACK
6
CONTINUOUS
10
77.9325
20
-139.795
11
63.9325
21
-139.795
0
LINE
8
BLACK
6
CONTINUOUS
10
444.645
20
-139.795
11
430.645
21
-139.795
0
LINE
8
BLACK
6
CONTINUOUS
10
102.032
20
-139.795
11
102.032
21
-153.795
0
LINE
8
BLACK
6
CONTINUOUS
10
54.12
20
-172.845
11
56.5012
21
-172.845
0
LINE
8
BLACK
6
CONTINUOUS
10
430.645
20
-82.645
11
430.645
21
-96.645
0
LINE
8
BLACK
6
CONTINUOUS
10
430.645
20
-158.845
11
430.645
21
-172.845
0
LINE
8
BLACK
6
CONTINUOUS
10
392.545
20
-134.745
11
406.545
21
-134.745
0
LINE
8
BLACK
6
CONTINUOUS
10
202.045
20
-54.07
11
202.045
21
-68.07
0
LINE
8
BLACK
6
CONTINUOUS
10
202.045
20
-115.695
11
216.045
21
-115.695
0
LINE
8
BLACK
6
CONTINUOUS
10
111.557
20
-120.745
11
111.557
21
-134.745
0
LINE
8
BLACK
6
CONTINUOUS
10
221.095
20
-115.695
11
235.095
21
-115.695
0
LINE
8
BLACK
6
CONTINUOUS
10
349.683
20
-158.845
11
349.683
21
-172.845
  0
ENDSEC
  0
EOF
