  0
SECTION
  2
HEADER
  9
$ANGBASE
  50
0.0
  9
$ANGDIR
  70
1
  9
$MEASUREMENT
  70
1
  0
ENDSEC
  0
SECTION
  2
TABLES
  0
TABLE
  2
LTYPE
  70
4
  0
LTYPE
  5
40F
  2
CONTINUOUS
  70
0
  3
Solid line
  72
65
  73
0
  40
0.0
  0
LTYPE
  5
410
  2
DASHDOT
 70
0
  3
Dash Dot ____ _ ____ _
 72
65
 73
4
 40
2.0
 49
1.25
 49
-0.25
 49
0.25
 49
-0.25
  0
LTYPE
  5
411
  2
DASHED
 70
0
  3
Dashed __ __ __ __ __
 72
65
 73
2
 40
0.75
 49
0.5
 49
-0.25
  0
LTYPE
  5
43B
  2
DOTTED
 70
0
  3
Dotted .  .  .  .
 72
65
 73
2
 40
0.2
 49
0.0
 49
-0.2
  0
ENDTAB
  0
TABLE
  2
STYLE
  70
4
  0
STYLE
  2
KICAD
  70
0
  40
0
  41
1
  42
1
  50
0
  71
0
  3
isocp.shx
  0
STYLE
  2
KICADB
  70
0
  40
0
  41
1
  42
1
  50
0
  71
0
  3
isocp.shx
  0
STYLE
  2
KICADI
  70
0
  40
0
  41
1
  42
1
  50
15
  71
0
  3
isocp.shx
  0
STYLE
  2
KICADBI
  70
0
  40
0
  41
1
  42
1
  50
15
  71
0
  3
isocp.shx
  0
ENDTAB
  0
TABLE
  2
LAYER
  70
1
  0
LAYER
  2
BLACK
  70
0
  62
7
  6
CONTINUOUS
  0
ENDTAB
  0
ENDSEC
  0
SECTION
  2
ENTITIES
0
LINE
8
BLACK
6
CONTINUOUS
10
430.65
20
-159.35
11
430.65
21
-172.35
0
LINE
8
BLACK
6
CONTINUOUS
10
444.65
20
-172.35
11
444.65
21
-159.35
0
LINE
8
BLACK
6
CONTINUOUS
10
444.15
20
-158.85
11
431.15
21
-158.85
0
LINE
8
BLACK
6
CONTINUOUS
10
431.15
20
-172.85
11
444.15
21
-172.85
0
ARC
8
BLACK
10
431.15
20
-159.35
40
0.5
50
90
51
180
0
ARC
8
BLACK
10
444.15
20
-159.35
40
0.5
50
-0
51
90
0
ARC
8
BLACK
10
444.15
20
-172.35
40
0.5
50
-90
51
-0
0
ARC
8
BLACK
10
431.15
20
-172.35
40
0.5
50
-180
51
-90
0
LINE
8
BLACK
6
CONTINUOUS
10
400.637
20
-172.35
11
400.637
21
-158.35
0
LINE
8
BLACK
6
CONTINUOUS
10
393.637
20
-158.35
11
393.637
21
-172.35
0
LINE
8
BLACK
6
CONTINUOUS
10
394.137
20
-172.85
11
400.137
21
-172.85
0
LINE
8
BLACK
6
CONTINUOUS
10
400.137
20
-157.85
11
394.137
21
-157.85
0
ARC
8
BLACK
10
400.137
20
-172.35
40
0.5
50
-90
51
-0
0
ARC
8
BLACK
10
394.137
20
-172.35
40
0.5
50
-180
51
-90
0
ARC
8
BLACK
10
394.137
20
-158.35
40
0.5
50
90
51
180
0
ARC
8
BLACK
10
400.137
20
-158.35
40
0.5
50
-0
51
90
0
LINE
8
BLACK
6
CONTINUOUS
10
424.513
20
-172.35
11
424.513
21
-158.35
0
LINE
8
BLACK
6
CONTINUOUS
10
417.513
20
-158.35
11
417.513
21
-172.35
0
LINE
8
BLACK
6
CONTINUOUS
10
418.013
20
-172.85
11
424.013
21
-172.85
0
LINE
8
BLACK
6
CONTINUOUS
10
424.013
20
-157.85
11
418.013
21
-157.85
0
ARC
8
BLACK
10
424.013
20
-172.35
40
0.5
50
-90
51
-0
0
ARC
8
BLACK
10
418.013
20
-172.35
40
0.5
50
-180
51
-90
0
ARC
8
BLACK
10
418.013
20
-158.35
40
0.5
50
90
51
180
0
ARC
8
BLACK
10
424.013
20
-158.35
40
0.5
50
-0
51
90
0
LINE
8
BLACK
6
CONTINUOUS
10
402.075
20
-159.35
11
402.075
21
-172.35
0
LINE
8
BLACK
6
CONTINUOUS
10
416.075
20
-172.35
11
416.075
21
-159.35
0
LINE
8
BLACK
6
CONTINUOUS
10
415.575
20
-158.85
11
402.575
21
-158.85
0
LINE
8
BLACK
6
CONTINUOUS
10
402.575
20
-172.85
11
415.575
21
-172.85
0
ARC
8
BLACK
10
402.575
20
-159.35
40
0.5
50
90
51
180
0
ARC
8
BLACK
10
415.575
20
-159.35
40
0.5
50
-0
51
90
0
ARC
8
BLACK
10
415.575
20
-172.35
40
0.5
50
-90
51
-0
0
ARC
8
BLACK
10
402.575
20
-172.35
40
0.5
50
-180
51
-90
0
LINE
8
BLACK
6
CONTINUOUS
10
368.738
20
-159.35
11
368.738
21
-172.35
0
LINE
8
BLACK
6
CONTINUOUS
10
382.737
20
-172.35
11
382.737
21
-159.35
0
LINE
8
BLACK
6
CONTINUOUS
10
382.237
20
-158.85
11
369.238
21
-158.85
0
LINE
8
BLACK
6
CONTINUOUS
10
369.238
20
-172.85
11
382.237
21
-172.85
0
ARC
8
BLACK
10
369.238
20
-159.35
40
0.5
50
90
51
180
0
ARC
8
BLACK
10
382.237
20
-159.35
40
0.5
50
-0
51
90
0
ARC
8
BLACK
10
382.237
20
-172.35
40
0.5
50
-90
51
-0
0
ARC
8
BLACK
10
369.238
20
-172.35
40
0.5
50
-180
51
-90
0
LINE
8
BLACK
6
CONTINUOUS
10
349.688
20
-159.35
11
349.688
21
-172.35
0
LINE
8
BLACK
6
CONTINUOUS
10
363.688
20
-172.35
11
363.688
21
-159.35
0
LINE
8
BLACK
6
CONTINUOUS
10
363.188
20
-158.85
11
350.188
21
-158.85
0
LINE
8
BLACK
6
CONTINUOUS
10
350.188
20
-172.85
11
363.188
21
-172.85
0
ARC
8
BLACK
10
350.188
20
-159.35
40
0.5
50
90
51
180
0
ARC
8
BLACK
10
363.188
20
-159.35
40
0.5
50
-0
51
90
0
ARC
8
BLACK
10
363.188
20
-172.35
40
0.5
50
-90
51
-0
0
ARC
8
BLACK
10
350.188
20
-172.35
40
0.5
50
-180
51
-90
0
LINE
8
BLACK
6
CONTINUOUS
10
330.637
20
-159.35
11
330.637
21
-172.35
0
LINE
8
BLACK
6
CONTINUOUS
10
344.637
20
-172.35
11
344.637
21
-159.35
0
LINE
8
BLACK
6
CONTINUOUS
10
344.137
20
-158.85
11
331.137
21
-158.85
0
LINE
8
BLACK
6
CONTINUOUS
10
331.137
20
-172.85
11
344.137
21
-172.85
0
ARC
8
BLACK
10
331.137
20
-159.35
40
0.5
50
90
51
180
0
ARC
8
BLACK
10
344.137
20
-159.35
40
0.5
50
-0
51
90
0
ARC
8
BLACK
10
344.137
20
-172.35
40
0.5
50
-90
51
-0
0
ARC
8
BLACK
10
331.137
20
-172.35
40
0.5
50
-180
51
-90
0
LINE
8
BLACK
6
CONTINUOUS
10
304.444
20
-159.35
11
304.444
21
-172.35
0
LINE
8
BLACK
6
CONTINUOUS
10
318.444
20
-172.35
11
318.444
21
-159.35
0
LINE
8
BLACK
6
CONTINUOUS
10
317.944
20
-158.85
11
304.944
21
-158.85
0
LINE
8
BLACK
6
CONTINUOUS
10
304.944
20
-172.85
11
317.944
21
-172.85
0
ARC
8
BLACK
10
304.944
20
-159.35
40
0.50005
50
90.0057
51
180
0
ARC
8
BLACK
10
317.944
20
-159.35
40
0.5
50
-0
51
89.9943
0
ARC
8
BLACK
10
317.944
20
-172.35
40
0.50005
50
-89.9943
51
-0
0
ARC
8
BLACK
10
304.944
20
-172.35
40
0.5
50
-180
51
-90.0057
0
LINE
8
BLACK
6
CONTINUOUS
10
280.631
20
-159.35
11
280.631
21
-172.35
0
LINE
8
BLACK
6
CONTINUOUS
10
294.631
20
-172.35
11
294.631
21
-159.35
0
LINE
8
BLACK
6
CONTINUOUS
10
294.131
20
-158.85
11
281.131
21
-158.85
0
LINE
8
BLACK
6
CONTINUOUS
10
281.131
20
-172.85
11
294.131
21
-172.85
0
ARC
8
BLACK
10
281.131
20
-159.35
40
0.50005
50
90.0057
51
180
0
ARC
8
BLACK
10
294.131
20
-159.35
40
0.5
50
-0
51
89.9943
0
ARC
8
BLACK
10
294.131
20
-172.35
40
0.50005
50
-89.9943
51
-0
0
ARC
8
BLACK
10
281.131
20
-172.35
40
0.5
50
-180
51
-90.0057
0
LINE
8
BLACK
6
CONTINUOUS
10
256.819
20
-159.35
11
256.819
21
-172.35
0
LINE
8
BLACK
6
CONTINUOUS
10
270.819
20
-172.35
11
270.819
21
-159.35
0
LINE
8
BLACK
6
CONTINUOUS
10
270.319
20
-158.85
11
257.319
21
-158.85
0
LINE
8
BLACK
6
CONTINUOUS
10
257.319
20
-172.85
11
270.319
21
-172.85
0
ARC
8
BLACK
10
257.319
20
-159.35
40
0.50005
50
90.0057
51
180
0
ARC
8
BLACK
10
270.319
20
-159.35
40
0.5
50
-0
51
89.9943
0
ARC
8
BLACK
10
270.319
20
-172.35
40
0.50005
50
-89.9943
51
-0
0
ARC
8
BLACK
10
257.319
20
-172.35
40
0.5
50
-180
51
-90.0057
0
LINE
8
BLACK
6
CONTINUOUS
10
249.387
20
-172.35
11
249.387
21
-159.35
0
LINE
8
BLACK
6
CONTINUOUS
10
248.887
20
-158.85
11
246.506
21
-158.85
0
LINE
8
BLACK
6
CONTINUOUS
10
246.506
20
-172.85
11
248.887
21
-172.85
0
ARC
8
BLACK
10
248.887
20
-159.35
40
0.5
50
-0
51
90
0
ARC
8
BLACK
10
248.887
20
-172.35
40
0.5
50
-90
51
-0
0
LINE
8
BLACK
6
CONTINUOUS
10
233.006
20
-159.35
11
233.006
21
-172.35
0
LINE
8
BLACK
6
CONTINUOUS
10
235.887
20
-158.85
11
233.506
21
-158.85
0
LINE
8
BLACK
6
CONTINUOUS
10
246.506
20
-158.85
11
235.887
21
-158.85
0
LINE
8
BLACK
6
CONTINUOUS
10
235.887
20
-172.85
11
246.506
21
-172.85
0
LINE
8
BLACK
6
CONTINUOUS
10
233.506
20
-172.85
11
235.887
21
-172.85
0
ARC
8
BLACK
10
233.506
20
-159.35
40
0.50005
50
90.0057
51
180
0
ARC
8
BLACK
10
233.506
20
-172.35
40
0.5
50
-180
51
-90.0057
0
LINE
8
BLACK
6
CONTINUOUS
10
122.069
20
-172.35
11
122.069
21
-158.35
0
LINE
8
BLACK
6
CONTINUOUS
10
115.069
20
-158.35
11
115.069
21
-172.35
0
LINE
8
BLACK
6
CONTINUOUS
10
115.569
20
-172.85
11
121.569
21
-172.85
0
LINE
8
BLACK
6
CONTINUOUS
10
121.569
20
-157.85
11
115.569
21
-157.85
0
ARC
8
BLACK
10
121.569
20
-172.35
40
0.50005
50
-89.9943
51
-0
0
ARC
8
BLACK
10
115.569
20
-172.35
40
0.5
50
-180
51
-90.0057
0
ARC
8
BLACK
10
115.569
20
-158.35
40
0.50005
50
90.0057
51
180
0
ARC
8
BLACK
10
121.569
20
-158.35
40
0.5
50
-0
51
89.9943
0
LINE
8
BLACK
6
CONTINUOUS
10
215.069
20
-158.35
11
215.069
21
-172.35
0
LINE
8
BLACK
6
CONTINUOUS
10
215.569
20
-172.85
11
220.337
21
-172.85
0
LINE
8
BLACK
6
CONTINUOUS
10
220.337
20
-157.85
11
215.569
21
-157.85
0
ARC
8
BLACK
10
215.569
20
-172.35
40
0.5
50
-180
51
-90.0057
0
ARC
8
BLACK
10
215.569
20
-158.35
40
0.50005
50
90.0057
51
180
0
LINE
8
BLACK
6
CONTINUOUS
10
175.569
20
-172.35
11
175.569
21
-159.35
0
LINE
8
BLACK
6
CONTINUOUS
10
175.069
20
-158.85
11
172.688
21
-158.85
0
LINE
8
BLACK
6
CONTINUOUS
10
172.688
20
-172.85
11
175.069
21
-172.85
0
ARC
8
BLACK
10
175.069
20
-159.35
40
0.5
50
-0
51
89.9943
0
ARC
8
BLACK
10
175.069
20
-172.35
40
0.50005
50
-89.9943
51
-0
0
LINE
8
BLACK
6
CONTINUOUS
10
112.537
20
-172.35
11
112.537
21
-158.35
0
LINE
8
BLACK
6
CONTINUOUS
10
105.537
20
-158.35
11
105.537
21
-172.35
0
LINE
8
BLACK
6
CONTINUOUS
10
106.037
20
-172.85
11
112.037
21
-172.85
0
LINE
8
BLACK
6
CONTINUOUS
10
112.037
20
-157.85
11
106.037
21
-157.85
0
ARC
8
BLACK
10
112.037
20
-172.35
40
0.5
50
-90
51
-0
0
ARC
8
BLACK
10
106.037
20
-172.35
40
0.5
50
-180
51
-90
0
ARC
8
BLACK
10
106.037
20
-158.35
40
0.5
50
90
51
180
0
ARC
8
BLACK
10
112.037
20
-158.35
40
0.5
50
-0
51
90
0
LINE
8
BLACK
6
CONTINUOUS
10
226.837
20
-172.35
11
226.837
21
-158.35
0
LINE
8
BLACK
6
CONTINUOUS
10
221.569
20
-172.85
11
226.337
21
-172.85
0
LINE
8
BLACK
6
CONTINUOUS
10
220.337
20
-172.85
11
221.569
21
-172.85
0
LINE
8
BLACK
6
CONTINUOUS
10
221.569
20
-157.85
11
220.337
21
-157.85
0
LINE
8
BLACK
6
CONTINUOUS
10
226.337
20
-157.85
11
221.569
21
-157.85
0
ARC
8
BLACK
10
226.337
20
-172.35
40
0.5
50
-90
51
-0
0
ARC
8
BLACK
10
226.337
20
-158.35
40
0.5
50
-0
51
90
0
LINE
8
BLACK
6
CONTINUOUS
10
159.188
20
-159.35
11
159.188
21
-172.35
0
LINE
8
BLACK
6
CONTINUOUS
10
162.069
20
-158.85
11
159.688
21
-158.85
0
LINE
8
BLACK
6
CONTINUOUS
10
172.688
20
-158.85
11
162.069
21
-158.85
0
LINE
8
BLACK
6
CONTINUOUS
10
162.069
20
-172.85
11
172.688
21
-172.85
0
LINE
8
BLACK
6
CONTINUOUS
10
159.688
20
-172.85
11
162.069
21
-172.85
0
ARC
8
BLACK
10
159.688
20
-159.35
40
0.5
50
90
51
180
0
ARC
8
BLACK
10
159.688
20
-172.35
40
0.5
50
-180
51
-90
0
LINE
8
BLACK
6
CONTINUOUS
10
104.131
20
-172.35
11
104.131
21
-159.35
0
LINE
8
BLACK
6
CONTINUOUS
10
103.631
20
-158.85
11
96.4875
21
-158.85
0
LINE
8
BLACK
6
CONTINUOUS
10
96.4875
20
-172.85
11
103.631
21
-172.85
0
ARC
8
BLACK
10
103.631
20
-159.35
40
0.5
50
-0
51
89.9943
0
ARC
8
BLACK
10
103.631
20
-172.35
40
0.50005
50
-89.9943
51
-0
0
LINE
8
BLACK
6
CONTINUOUS
10
82.9875
20
-159.35
11
82.9875
21
-172.35
0
LINE
8
BLACK
6
CONTINUOUS
10
90.6312
20
-158.85
11
83.4875
21
-158.85
0
LINE
8
BLACK
6
CONTINUOUS
10
96.4875
20
-158.85
11
90.6312
21
-158.85
0
LINE
8
BLACK
6
CONTINUOUS
10
90.6312
20
-172.85
11
96.4875
21
-172.85
0
LINE
8
BLACK
6
CONTINUOUS
10
83.4875
20
-172.85
11
90.6312
21
-172.85
0
ARC
8
BLACK
10
83.4875
20
-159.35
40
0.5
50
90
51
180
0
ARC
8
BLACK
10
83.4875
20
-172.35
40
0.5
50
-180
51
-90
0
LINE
8
BLACK
6
CONTINUOUS
10
80.3187
20
-172.35
11
80.3187
21
-159.35
0
LINE
8
BLACK
6
CONTINUOUS
10
79.8187
20
-158.85
11
75.0562
21
-158.85
0
LINE
8
BLACK
6
CONTINUOUS
10
75.0562
20
-172.85
11
79.8187
21
-172.85
0
ARC
8
BLACK
10
79.8187
20
-159.35
40
0.5
50
-0
51
89.9943
0
ARC
8
BLACK
10
79.8187
20
-172.35
40
0.50005
50
-89.9943
51
-0
0
LINE
8
BLACK
6
CONTINUOUS
10
61.5562
20
-159.35
11
61.5562
21
-172.35
0
LINE
8
BLACK
6
CONTINUOUS
10
66.8187
20
-158.85
11
62.0562
21
-158.85
0
LINE
8
BLACK
6
CONTINUOUS
10
75.0562
20
-158.85
11
66.8187
21
-158.85
0
LINE
8
BLACK
6
CONTINUOUS
10
66.8187
20
-172.85
11
75.0562
21
-172.85
0
LINE
8
BLACK
6
CONTINUOUS
10
62.0562
20
-172.85
11
66.8187
21
-172.85
0
ARC
8
BLACK
10
62.0563
20
-159.35
40
0.50005
50
90.0057
51
180
0
ARC
8
BLACK
10
62.0563
20
-172.35
40
0.5
50
-180
51
-90.0057
0
LINE
8
BLACK
6
CONTINUOUS
10
40.125
20
-159.35
11
40.125
21
-172.35
0
LINE
8
BLACK
6
CONTINUOUS
10
43.0063
20
-158.85
11
40.625
21
-158.85
0
LINE
8
BLACK
6
CONTINUOUS
10
40.625
20
-172.85
11
43.0063
21
-172.85
0
ARC
8
BLACK
10
40.625
20
-159.35
40
0.5
50
90
51
180
0
ARC
8
BLACK
10
40.625
20
-172.35
40
0.5
50
-180
51
-90
0
LINE
8
BLACK
6
CONTINUOUS
10
56.5062
20
-172.35
11
56.5062
21
-159.35
0
LINE
8
BLACK
6
CONTINUOUS
10
53.625
20
-158.85
11
43.0063
21
-158.85
0
LINE
8
BLACK
6
CONTINUOUS
10
56.0062
20
-158.85
11
53.625
21
-158.85
0
LINE
8
BLACK
6
CONTINUOUS
10
53.625
20
-172.85
11
56.0062
21
-172.85
0
LINE
8
BLACK
6
CONTINUOUS
10
43.0063
20
-172.85
11
53.625
21
-172.85
0
ARC
8
BLACK
10
56.0062
20
-159.35
40
0.5
50
-0
51
89.9943
0
ARC
8
BLACK
10
56.0062
20
-172.35
40
0.50005
50
-89.9943
51
-0
0
LINE
8
BLACK
6
CONTINUOUS
10
463.2
20
-164.763
11
449.2
21
-164.763
0
LINE
8
BLACK
6
CONTINUOUS
10
449.2
20
-171.763
11
463.2
21
-171.763
0
LINE
8
BLACK
6
CONTINUOUS
10
463.7
20
-171.263
11
463.7
21
-165.263
0
LINE
8
BLACK
6
CONTINUOUS
10
448.7
20
-165.263
11
448.7
21
-171.263
0
ARC
8
BLACK
10
463.2
20
-165.263
40
0.5
50
-0
51
90
0
ARC
8
BLACK
10
463.2
20
-171.263
40
0.5
50
-90
51
-0
0
ARC
8
BLACK
10
449.2
20
-171.263
40
0.5
50
-180
51
-90
0
ARC
8
BLACK
10
449.2
20
-165.263
40
0.5
50
90
51
180
0
LINE
8
BLACK
6
CONTINUOUS
10
463.2
20
-140.887
11
449.2
21
-140.887
0
LINE
8
BLACK
6
CONTINUOUS
10
449.2
20
-147.887
11
463.2
21
-147.887
0
LINE
8
BLACK
6
CONTINUOUS
10
463.7
20
-147.387
11
463.7
21
-141.387
0
LINE
8
BLACK
6
CONTINUOUS
10
448.7
20
-141.387
11
448.7
21
-147.387
0
ARC
8
BLACK
10
463.2
20
-141.387
40
0.5
50
-0
51
90
0
ARC
8
BLACK
10
463.2
20
-147.387
40
0.5
50
-90
51
-0
0
ARC
8
BLACK
10
449.2
20
-147.387
40
0.5
50
-180
51
-90
0
ARC
8
BLACK
10
449.2
20
-141.387
40
0.5
50
90
51
180
0
LINE
8
BLACK
6
CONTINUOUS
10
449.7
20
-149.825
11
449.7
21
-162.825
0
LINE
8
BLACK
6
CONTINUOUS
10
463.7
20
-162.825
11
463.7
21
-149.825
0
LINE
8
BLACK
6
CONTINUOUS
10
463.2
20
-149.325
11
450.2
21
-149.325
0
LINE
8
BLACK
6
CONTINUOUS
10
450.2
20
-163.325
11
463.2
21
-163.325
0
ARC
8
BLACK
10
450.2
20
-149.825
40
0.5
50
90
51
180
0
ARC
8
BLACK
10
463.2
20
-149.825
40
0.5
50
-0
51
90
0
ARC
8
BLACK
10
463.2
20
-162.825
40
0.5
50
-90
51
-0
0
ARC
8
BLACK
10
450.2
20
-162.825
40
0.5
50
-180
51
-90
0
LINE
8
BLACK
6
CONTINUOUS
10
430.65
20
-140.3
11
430.65
21
-153.3
0
LINE
8
BLACK
6
CONTINUOUS
10
444.65
20
-153.3
11
444.65
21
-140.3
0
LINE
8
BLACK
6
CONTINUOUS
10
444.15
20
-139.8
11
431.15
21
-139.8
0
LINE
8
BLACK
6
CONTINUOUS
10
431.15
20
-153.8
11
444.15
21
-153.8
0
ARC
8
BLACK
10
431.15
20
-140.3
40
0.5
50
90
51
180
0
ARC
8
BLACK
10
444.15
20
-140.3
40
0.5
50
-0
51
90
0
ARC
8
BLACK
10
444.15
20
-153.3
40
0.5
50
-90
51
-0
0
ARC
8
BLACK
10
431.15
20
-153.3
40
0.5
50
-180
51
-90
0
LINE
8
BLACK
6
CONTINUOUS
10
411.6
20
-140.3
11
411.6
21
-153.3
0
LINE
8
BLACK
6
CONTINUOUS
10
425.6
20
-153.3
11
425.6
21
-140.3
0
LINE
8
BLACK
6
CONTINUOUS
10
425.1
20
-139.8
11
412.1
21
-139.8
0
LINE
8
BLACK
6
CONTINUOUS
10
412.1
20
-153.8
11
425.1
21
-153.8
0
ARC
8
BLACK
10
412.1
20
-140.3
40
0.5
50
90
51
180
0
ARC
8
BLACK
10
425.1
20
-140.3
40
0.5
50
-0
51
90
0
ARC
8
BLACK
10
425.1
20
-153.3
40
0.5
50
-90
51
-0
0
ARC
8
BLACK
10
412.1
20
-153.3
40
0.5
50
-180
51
-90
0
LINE
8
BLACK
6
CONTINUOUS
10
392.55
20
-140.3
11
392.55
21
-153.3
0
LINE
8
BLACK
6
CONTINUOUS
10
406.55
20
-153.3
11
406.55
21
-140.3
0
LINE
8
BLACK
6
CONTINUOUS
10
406.05
20
-139.8
11
393.05
21
-139.8
0
LINE
8
BLACK
6
CONTINUOUS
10
393.05
20
-153.8
11
406.05
21
-153.8
0
ARC
8
BLACK
10
393.05
20
-140.3
40
0.5
50
90
51
180
0
ARC
8
BLACK
10
406.05
20
-140.3
40
0.5
50
-0
51
90
0
ARC
8
BLACK
10
406.05
20
-153.3
40
0.5
50
-90
51
-0
0
ARC
8
BLACK
10
393.05
20
-153.3
40
0.5
50
-180
51
-90
0
LINE
8
BLACK
6
CONTINUOUS
10
349.688
20
-140.3
11
349.688
21
-153.3
0
LINE
8
BLACK
6
CONTINUOUS
10
363.688
20
-153.3
11
363.688
21
-140.3
0
LINE
8
BLACK
6
CONTINUOUS
10
363.188
20
-139.8
11
350.188
21
-139.8
0
LINE
8
BLACK
6
CONTINUOUS
10
350.188
20
-153.8
11
363.188
21
-153.8
0
ARC
8
BLACK
10
350.188
20
-140.3
40
0.5
50
90
51
180
0
ARC
8
BLACK
10
363.188
20
-140.3
40
0.5
50
-0
51
90
0
ARC
8
BLACK
10
363.188
20
-153.3
40
0.5
50
-90
51
-0
0
ARC
8
BLACK
10
350.188
20
-153.3
40
0.5
50
-180
51
-90
0
LINE
8
BLACK
6
CONTINUOUS
10
305.594
20
-140.3
11
305.594
21
-154.3
0
LINE
8
BLACK
6
CONTINUOUS
10
312.594
20
-154.3
11
312.594
21
-140.3
0
LINE
8
BLACK
6
CONTINUOUS
10
312.094
20
-139.8
11
306.094
21
-139.8
0
LINE
8
BLACK
6
CONTINUOUS
10
306.094
20
-154.8
11
312.094
21
-154.8
0
ARC
8
BLACK
10
306.094
20
-140.3
40
0.50005
50
90.0057
51
180
0
ARC
8
BLACK
10
312.094
20
-140.3
40
0.5
50
-0
51
89.9943
0
ARC
8
BLACK
10
312.094
20
-154.3
40
0.50005
50
-89.9943
51
-0
0
ARC
8
BLACK
10
306.094
20
-154.3
40
0.5
50
-180
51
-90.0057
0
LINE
8
BLACK
6
CONTINUOUS
10
281.718
20
-140.3
11
281.718
21
-154.3
0
LINE
8
BLACK
6
CONTINUOUS
10
288.718
20
-154.3
11
288.718
21
-140.3
0
LINE
8
BLACK
6
CONTINUOUS
10
288.218
20
-139.8
11
282.218
21
-139.8
0
LINE
8
BLACK
6
CONTINUOUS
10
282.218
20
-154.8
11
288.218
21
-154.8
0
ARC
8
BLACK
10
282.218
20
-140.3
40
0.50005
50
90.0057
51
180
0
ARC
8
BLACK
10
288.218
20
-140.3
40
0.5
50
-0
51
89.9943
0
ARC
8
BLACK
10
288.218
20
-154.3
40
0.50005
50
-89.9943
51
-0
0
ARC
8
BLACK
10
282.218
20
-154.3
40
0.5
50
-180
51
-90.0057
0
LINE
8
BLACK
6
CONTINUOUS
10
290.156
20
-140.3
11
290.156
21
-153.3
0
LINE
8
BLACK
6
CONTINUOUS
10
304.156
20
-153.3
11
304.156
21
-140.3
0
LINE
8
BLACK
6
CONTINUOUS
10
303.656
20
-139.8
11
290.656
21
-139.8
0
LINE
8
BLACK
6
CONTINUOUS
10
290.656
20
-153.8
11
303.656
21
-153.8
0
ARC
8
BLACK
10
290.656
20
-140.3
40
0.50005
50
90.0057
51
180
0
ARC
8
BLACK
10
303.656
20
-140.3
40
0.5
50
-0
51
89.9943
0
ARC
8
BLACK
10
303.656
20
-153.3
40
0.50005
50
-89.9943
51
-0
0
ARC
8
BLACK
10
290.656
20
-153.3
40
0.5
50
-180
51
-90.0057
0
LINE
8
BLACK
6
CONTINUOUS
10
254.438
20
-140.3
11
254.438
21
-153.3
0
LINE
8
BLACK
6
CONTINUOUS
10
268.438
20
-153.3
11
268.438
21
-140.3
0
LINE
8
BLACK
6
CONTINUOUS
10
267.938
20
-139.8
11
254.938
21
-139.8
0
LINE
8
BLACK
6
CONTINUOUS
10
254.938
20
-153.8
11
267.938
21
-153.8
0
ARC
8
BLACK
10
254.938
20
-140.3
40
0.5
50
90
51
180
0
ARC
8
BLACK
10
267.938
20
-140.3
40
0.5
50
-0
51
90
0
ARC
8
BLACK
10
267.938
20
-153.3
40
0.5
50
-90
51
-0
0
ARC
8
BLACK
10
254.938
20
-153.3
40
0.5
50
-180
51
-90
0
LINE
8
BLACK
6
CONTINUOUS
10
235.387
20
-140.3
11
235.387
21
-153.3
0
LINE
8
BLACK
6
CONTINUOUS
10
249.387
20
-153.3
11
249.387
21
-140.3
0
LINE
8
BLACK
6
CONTINUOUS
10
248.887
20
-139.8
11
235.887
21
-139.8
0
LINE
8
BLACK
6
CONTINUOUS
10
235.887
20
-153.8
11
248.887
21
-153.8
0
ARC
8
BLACK
10
235.887
20
-140.3
40
0.5
50
90
51
180
0
ARC
8
BLACK
10
248.887
20
-140.3
40
0.5
50
-0
51
90
0
ARC
8
BLACK
10
248.887
20
-153.3
40
0.5
50
-90
51
-0
0
ARC
8
BLACK
10
235.887
20
-153.3
40
0.5
50
-180
51
-90
0
LINE
8
BLACK
6
CONTINUOUS
10
216.337
20
-140.3
11
216.337
21
-153.3
0
LINE
8
BLACK
6
CONTINUOUS
10
230.337
20
-153.3
11
230.337
21
-140.3
0
LINE
8
BLACK
6
CONTINUOUS
10
229.837
20
-139.8
11
216.837
21
-139.8
0
LINE
8
BLACK
6
CONTINUOUS
10
216.837
20
-153.8
11
229.837
21
-153.8
0
ARC
8
BLACK
10
216.837
20
-140.3
40
0.5
50
90
51
180
0
ARC
8
BLACK
10
229.837
20
-140.3
40
0.5
50
-0
51
90
0
ARC
8
BLACK
10
229.837
20
-153.3
40
0.5
50
-90
51
-0
0
ARC
8
BLACK
10
216.837
20
-153.3
40
0.5
50
-180
51
-90
0
LINE
8
BLACK
6
CONTINUOUS
10
197.287
20
-140.3
11
197.287
21
-153.3
0
LINE
8
BLACK
6
CONTINUOUS
10
211.287
20
-153.3
11
211.287
21
-140.3
0
LINE
8
BLACK
6
CONTINUOUS
10
210.787
20
-139.8
11
197.787
21
-139.8
0
LINE
8
BLACK
6
CONTINUOUS
10
197.787
20
-153.8
11
210.787
21
-153.8
0
ARC
8
BLACK
10
197.787
20
-140.3
40
0.5
50
90
51
180
0
ARC
8
BLACK
10
210.787
20
-140.3
40
0.5
50
-0
51
90
0
ARC
8
BLACK
10
210.787
20
-153.3
40
0.5
50
-90
51
-0
0
ARC
8
BLACK
10
197.787
20
-153.3
40
0.5
50
-180
51
-90
0
LINE
8
BLACK
6
CONTINUOUS
10
178.237
20
-140.3
11
178.237
21
-153.3
0
LINE
8
BLACK
6
CONTINUOUS
10
192.237
20
-153.3
11
192.237
21
-140.3
0
LINE
8
BLACK
6
CONTINUOUS
10
191.737
20
-139.8
11
178.737
21
-139.8
0
LINE
8
BLACK
6
CONTINUOUS
10
178.737
20
-153.8
11
191.737
21
-153.8
0
ARC
8
BLACK
10
178.737
20
-140.3
40
0.5
50
90
51
180
0
ARC
8
BLACK
10
191.737
20
-140.3
40
0.5
50
-0
51
90
0
ARC
8
BLACK
10
191.737
20
-153.3
40
0.5
50
-90
51
-0
0
ARC
8
BLACK
10
178.737
20
-153.3
40
0.5
50
-180
51
-90
0
LINE
8
BLACK
6
CONTINUOUS
10
159.188
20
-140.3
11
159.188
21
-153.3
0
LINE
8
BLACK
6
CONTINUOUS
10
173.188
20
-153.3
11
173.188
21
-140.3
0
LINE
8
BLACK
6
CONTINUOUS
10
172.688
20
-139.8
11
159.688
21
-139.8
0
LINE
8
BLACK
6
CONTINUOUS
10
159.688
20
-153.8
11
172.688
21
-153.8
0
ARC
8
BLACK
10
159.688
20
-140.3
40
0.5
50
90
51
180
0
ARC
8
BLACK
10
172.688
20
-140.3
40
0.5
50
-0
51
90
0
ARC
8
BLACK
10
172.688
20
-153.3
40
0.5
50
-90
51
-0
0
ARC
8
BLACK
10
159.688
20
-153.3
40
0.5
50
-180
51
-90
0
LINE
8
BLACK
6
CONTINUOUS
10
140.137
20
-140.3
11
140.137
21
-153.3
0
LINE
8
BLACK
6
CONTINUOUS
10
154.137
20
-153.3
11
154.137
21
-140.3
0
LINE
8
BLACK
6
CONTINUOUS
10
153.637
20
-139.8
11
140.637
21
-139.8
0
LINE
8
BLACK
6
CONTINUOUS
10
140.637
20
-153.8
11
153.637
21
-153.8
0
ARC
8
BLACK
10
140.637
20
-140.3
40
0.5
50
90
51
180
0
ARC
8
BLACK
10
153.637
20
-140.3
40
0.5
50
-0
51
90
0
ARC
8
BLACK
10
153.637
20
-153.3
40
0.5
50
-90
51
-0
0
ARC
8
BLACK
10
140.637
20
-153.3
40
0.5
50
-180
51
-90
0
LINE
8
BLACK
6
CONTINUOUS
10
121.087
20
-140.3
11
121.087
21
-153.3
0
LINE
8
BLACK
6
CONTINUOUS
10
135.088
20
-153.3
11
135.088
21
-140.3
0
LINE
8
BLACK
6
CONTINUOUS
10
134.588
20
-139.8
11
121.587
21
-139.8
0
LINE
8
BLACK
6
CONTINUOUS
10
121.587
20
-153.8
11
134.588
21
-153.8
0
ARC
8
BLACK
10
121.587
20
-140.3
40
0.5
50
90
51
180
0
ARC
8
BLACK
10
134.588
20
-140.3
40
0.5
50
-0
51
90
0
ARC
8
BLACK
10
134.588
20
-153.3
40
0.5
50
-90
51
-0
0
ARC
8
BLACK
10
121.587
20
-153.3
40
0.5
50
-180
51
-90
0
LINE
8
BLACK
6
CONTINUOUS
10
102.037
20
-140.3
11
102.037
21
-153.3
0
LINE
8
BLACK
6
CONTINUOUS
10
116.037
20
-153.3
11
116.037
21
-140.3
0
LINE
8
BLACK
6
CONTINUOUS
10
115.537
20
-139.8
11
102.537
21
-139.8
0
LINE
8
BLACK
6
CONTINUOUS
10
102.537
20
-153.8
11
115.537
21
-153.8
0
ARC
8
BLACK
10
102.537
20
-140.3
40
0.5
50
90
51
180
0
ARC
8
BLACK
10
115.537
20
-140.3
40
0.5
50
-0
51
90
0
ARC
8
BLACK
10
115.537
20
-153.3
40
0.5
50
-90
51
-0
0
ARC
8
BLACK
10
102.537
20
-153.3
40
0.5
50
-180
51
-90
0
LINE
8
BLACK
6
CONTINUOUS
10
82.9875
20
-140.3
11
82.9875
21
-153.3
0
LINE
8
BLACK
6
CONTINUOUS
10
96.9875
20
-153.3
11
96.9875
21
-140.3
0
LINE
8
BLACK
6
CONTINUOUS
10
96.4875
20
-139.8
11
83.4875
21
-139.8
0
LINE
8
BLACK
6
CONTINUOUS
10
83.4875
20
-153.8
11
96.4875
21
-153.8
0
ARC
8
BLACK
10
83.4875
20
-140.3
40
0.5
50
90
51
180
0
ARC
8
BLACK
10
96.4875
20
-140.3
40
0.5
50
-0
51
90
0
ARC
8
BLACK
10
96.4875
20
-153.3
40
0.5
50
-90
51
-0
0
ARC
8
BLACK
10
83.4875
20
-153.3
40
0.5
50
-180
51
-90
0
LINE
8
BLACK
6
CONTINUOUS
10
77.9375
20
-153.3
11
77.9375
21
-140.3
0
LINE
8
BLACK
6
CONTINUOUS
10
67.9693
20
-139.8
11
65.5312
21
-139.8
0
LINE
8
BLACK
6
CONTINUOUS
10
77.4375
20
-139.8
11
73.9693
21
-139.8
0
LINE
8
BLACK
6
CONTINUOUS
10
74.4693
20
-153.8
11
77.4375
21
-153.8
0
LINE
8
BLACK
6
CONTINUOUS
10
65.5312
20
-153.8
11
67.4693
21
-153.8
0
ARC
8
BLACK
10
77.4375
20
-140.3
40
0.5
50
-0
51
90
0
ARC
8
BLACK
10
77.4375
20
-153.3
40
0.5
50
-90
51
-0
0
LINE
8
BLACK
6
CONTINUOUS
10
67.4693
20
-153.8
11
67.4693
21
-154.3
0
LINE
8
BLACK
6
CONTINUOUS
10
74.4693
20
-154.3
11
74.4693
21
-153.8
0
LINE
8
BLACK
6
CONTINUOUS
10
73.9693
20
-139.8
11
67.9693
21
-139.8
0
LINE
8
BLACK
6
CONTINUOUS
10
67.9693
20
-154.8
11
73.9693
21
-154.8
0
ARC
8
BLACK
10
73.9692
20
-154.3
40
0.50005
50
-89.9943
51
-0
0
ARC
8
BLACK
10
67.9693
20
-154.3
40
0.5
50
-180
51
-90.0057
0
LINE
8
BLACK
6
CONTINUOUS
10
43.5932
20
-153.8
11
43.5932
21
-154.3
0
LINE
8
BLACK
6
CONTINUOUS
10
50.5932
20
-154.3
11
50.5932
21
-153.8
0
LINE
8
BLACK
6
CONTINUOUS
10
44.0932
20
-154.8
11
50.0932
21
-154.8
0
ARC
8
BLACK
10
50.0932
20
-154.3
40
0.50005
50
-89.9943
51
-0
0
ARC
8
BLACK
10
44.0932
20
-154.3
40
0.5
50
-180
51
-90
0
LINE
8
BLACK
6
CONTINUOUS
10
64.4375
20
-139.8
11
56.0062
21
-139.8
0
LINE
8
BLACK
6
CONTINUOUS
10
65.5312
20
-139.8
11
64.4375
21
-139.8
0
LINE
8
BLACK
6
CONTINUOUS
10
64.4375
20
-153.8
11
65.5312
21
-153.8
0
LINE
8
BLACK
6
CONTINUOUS
10
56.0062
20
-153.8
11
64.4375
21
-153.8
0
LINE
8
BLACK
6
CONTINUOUS
10
42.5063
20
-140.3
11
42.5063
21
-153.3
0
LINE
8
BLACK
6
CONTINUOUS
10
44.0932
20
-139.8
11
43.0063
21
-139.8
0
LINE
8
BLACK
6
CONTINUOUS
10
50.0932
20
-139.8
11
44.0932
21
-139.8
0
LINE
8
BLACK
6
CONTINUOUS
10
52.5312
20
-139.8
11
50.0932
21
-139.8
0
LINE
8
BLACK
6
CONTINUOUS
10
56.0062
20
-139.8
11
52.5312
21
-139.8
0
LINE
8
BLACK
6
CONTINUOUS
10
50.5932
20
-153.8
11
52.5312
21
-153.8
0
LINE
8
BLACK
6
CONTINUOUS
10
52.5312
20
-153.8
11
56.0062
21
-153.8
0
LINE
8
BLACK
6
CONTINUOUS
10
43.0063
20
-153.8
11
43.5932
21
-153.8
0
ARC
8
BLACK
10
43.0063
20
-140.3
40
0.5
50
90
51
180
0
ARC
8
BLACK
10
43.0063
20
-153.3
40
0.5
50
-180
51
-90
0
LINE
8
BLACK
6
CONTINUOUS
10
430.65
20
-121.25
11
430.65
21
-134.25
0
LINE
8
BLACK
6
CONTINUOUS
10
444.65
20
-134.25
11
444.65
21
-121.25
0
LINE
8
BLACK
6
CONTINUOUS
10
444.15
20
-120.75
11
431.15
21
-120.75
0
LINE
8
BLACK
6
CONTINUOUS
10
431.15
20
-134.75
11
444.15
21
-134.75
0
ARC
8
BLACK
10
431.15
20
-121.25
40
0.5
50
90
51
180
0
ARC
8
BLACK
10
444.15
20
-121.25
40
0.5
50
-0
51
90
0
ARC
8
BLACK
10
444.15
20
-134.25
40
0.5
50
-90
51
-0
0
ARC
8
BLACK
10
431.15
20
-134.25
40
0.5
50
-180
51
-90
0
LINE
8
BLACK
6
CONTINUOUS
10
411.6
20
-121.25
11
411.6
21
-134.25
0
LINE
8
BLACK
6
CONTINUOUS
10
425.6
20
-134.25
11
425.6
21
-121.25
0
LINE
8
BLACK
6
CONTINUOUS
10
425.1
20
-120.75
11
412.1
21
-120.75
0
LINE
8
BLACK
6
CONTINUOUS
10
412.1
20
-134.75
11
425.1
21
-134.75
0
ARC
8
BLACK
10
412.1
20
-121.25
40
0.5
50
90
51
180
0
ARC
8
BLACK
10
425.1
20
-121.25
40
0.5
50
-0
51
90
0
ARC
8
BLACK
10
425.1
20
-134.25
40
0.5
50
-90
51
-0
0
ARC
8
BLACK
10
412.1
20
-134.25
40
0.5
50
-180
51
-90
0
LINE
8
BLACK
6
CONTINUOUS
10
392.55
20
-121.25
11
392.55
21
-134.25
0
LINE
8
BLACK
6
CONTINUOUS
10
406.55
20
-134.25
11
406.55
21
-121.25
0
LINE
8
BLACK
6
CONTINUOUS
10
406.05
20
-120.75
11
393.05
21
-120.75
0
LINE
8
BLACK
6
CONTINUOUS
10
393.05
20
-134.75
11
406.05
21
-134.75
0
ARC
8
BLACK
10
393.05
20
-121.25
40
0.5
50
90
51
180
0
ARC
8
BLACK
10
406.05
20
-121.25
40
0.5
50
-0
51
90
0
ARC
8
BLACK
10
406.05
20
-134.25
40
0.5
50
-90
51
-0
0
ARC
8
BLACK
10
393.05
20
-134.25
40
0.5
50
-180
51
-90
0
LINE
8
BLACK
6
CONTINUOUS
10
283.012
20
-121.25
11
283.012
21
-134.25
0
LINE
8
BLACK
6
CONTINUOUS
10
286.981
20
-120.75
11
283.512
21
-120.75
0
LINE
8
BLACK
6
CONTINUOUS
10
295.419
20
-120.75
11
292.981
21
-120.75
0
LINE
8
BLACK
6
CONTINUOUS
10
293.481
20
-134.75
11
295.419
21
-134.75
0
LINE
8
BLACK
6
CONTINUOUS
10
283.512
20
-134.75
11
286.481
21
-134.75
0
ARC
8
BLACK
10
283.512
20
-121.25
40
0.5
50
90
51
180
0
ARC
8
BLACK
10
283.512
20
-134.25
40
0.5
50
-180
51
-90
0
LINE
8
BLACK
6
CONTINUOUS
10
310.357
20
-133.663
11
310.357
21
-135.25
0
LINE
8
BLACK
6
CONTINUOUS
10
317.357
20
-126.663
11
317.357
21
-125.225
0
LINE
8
BLACK
6
CONTINUOUS
10
317.357
20
-135.25
11
317.357
21
-133.663
0
LINE
8
BLACK
6
CONTINUOUS
10
310.857
20
-135.75
11
316.857
21
-135.75
0
ARC
8
BLACK
10
316.857
20
-135.25
40
0.50005
50
-89.9943
51
-0
0
ARC
8
BLACK
10
310.857
20
-135.25
40
0.5
50
-180
51
-90.0057
0
LINE
8
BLACK
6
CONTINUOUS
10
286.481
20
-134.75
11
286.481
21
-135.25
0
LINE
8
BLACK
6
CONTINUOUS
10
293.481
20
-135.25
11
293.481
21
-134.75
0
LINE
8
BLACK
6
CONTINUOUS
10
292.981
20
-120.75
11
286.981
21
-120.75
0
LINE
8
BLACK
6
CONTINUOUS
10
286.981
20
-135.75
11
292.981
21
-135.75
0
ARC
8
BLACK
10
292.981
20
-135.25
40
0.50005
50
-89.9943
51
-0
0
ARC
8
BLACK
10
286.981
20
-135.25
40
0.5
50
-180
51
-90.0057
0
LINE
8
BLACK
6
CONTINUOUS
10
308.919
20
-134.25
11
308.919
21
-133.663
0
LINE
8
BLACK
6
CONTINUOUS
10
296.512
20
-120.75
11
295.419
21
-120.75
0
LINE
8
BLACK
6
CONTINUOUS
10
304.444
20
-120.75
11
296.512
21
-120.75
0
LINE
8
BLACK
6
CONTINUOUS
10
296.512
20
-134.75
11
308.419
21
-134.75
0
LINE
8
BLACK
6
CONTINUOUS
10
295.419
20
-134.75
11
296.512
21
-134.75
0
ARC
8
BLACK
10
308.419
20
-134.25
40
0.50005
50
-89.9943
51
-0
0
LINE
8
BLACK
6
CONTINUOUS
10
263.962
20
-121.25
11
263.962
21
-134.25
0
LINE
8
BLACK
6
CONTINUOUS
10
277.962
20
-134.25
11
277.962
21
-121.25
0
LINE
8
BLACK
6
CONTINUOUS
10
277.462
20
-120.75
11
264.462
21
-120.75
0
LINE
8
BLACK
6
CONTINUOUS
10
264.462
20
-134.75
11
277.462
21
-134.75
0
ARC
8
BLACK
10
264.462
20
-121.25
40
0.5
50
90
51
180
0
ARC
8
BLACK
10
277.462
20
-121.25
40
0.5
50
-0
51
90
0
ARC
8
BLACK
10
277.462
20
-134.25
40
0.5
50
-90
51
-0
0
ARC
8
BLACK
10
264.462
20
-134.25
40
0.5
50
-180
51
-90
0
LINE
8
BLACK
6
CONTINUOUS
10
244.912
20
-121.25
11
244.912
21
-134.25
0
LINE
8
BLACK
6
CONTINUOUS
10
258.912
20
-134.25
11
258.912
21
-121.25
0
LINE
8
BLACK
6
CONTINUOUS
10
258.412
20
-120.75
11
245.412
21
-120.75
0
LINE
8
BLACK
6
CONTINUOUS
10
245.412
20
-134.75
11
258.412
21
-134.75
0
ARC
8
BLACK
10
245.412
20
-121.25
40
0.5
50
90
51
180
0
ARC
8
BLACK
10
258.412
20
-121.25
40
0.5
50
-0
51
90
0
ARC
8
BLACK
10
258.412
20
-134.25
40
0.5
50
-90
51
-0
0
ARC
8
BLACK
10
245.412
20
-134.25
40
0.5
50
-180
51
-90
0
LINE
8
BLACK
6
CONTINUOUS
10
225.862
20
-121.25
11
225.862
21
-134.25
0
LINE
8
BLACK
6
CONTINUOUS
10
239.862
20
-134.25
11
239.862
21
-121.25
0
LINE
8
BLACK
6
CONTINUOUS
10
239.362
20
-120.75
11
226.362
21
-120.75
0
LINE
8
BLACK
6
CONTINUOUS
10
226.362
20
-134.75
11
239.362
21
-134.75
0
ARC
8
BLACK
10
226.362
20
-121.25
40
0.5
50
90
51
180
0
ARC
8
BLACK
10
239.362
20
-121.25
40
0.5
50
-0
51
90
0
ARC
8
BLACK
10
239.362
20
-134.25
40
0.5
50
-90
51
-0
0
ARC
8
BLACK
10
226.362
20
-134.25
40
0.5
50
-180
51
-90
0
LINE
8
BLACK
6
CONTINUOUS
10
206.812
20
-121.25
11
206.812
21
-134.25
0
LINE
8
BLACK
6
CONTINUOUS
10
220.812
20
-134.25
11
220.812
21
-121.25
0
LINE
8
BLACK
6
CONTINUOUS
10
220.312
20
-120.75
11
207.312
21
-120.75
0
LINE
8
BLACK
6
CONTINUOUS
10
207.312
20
-134.75
11
220.312
21
-134.75
0
ARC
8
BLACK
10
207.312
20
-121.25
40
0.5
50
90
51
180
0
ARC
8
BLACK
10
220.312
20
-121.25
40
0.5
50
-0
51
90
0
ARC
8
BLACK
10
220.312
20
-134.25
40
0.5
50
-90
51
-0
0
ARC
8
BLACK
10
207.312
20
-134.25
40
0.5
50
-180
51
-90
0
LINE
8
BLACK
6
CONTINUOUS
10
187.762
20
-121.25
11
187.762
21
-134.25
0
LINE
8
BLACK
6
CONTINUOUS
10
201.762
20
-134.25
11
201.762
21
-121.25
0
LINE
8
BLACK
6
CONTINUOUS
10
201.262
20
-120.75
11
188.262
21
-120.75
0
LINE
8
BLACK
6
CONTINUOUS
10
188.262
20
-134.75
11
201.262
21
-134.75
0
ARC
8
BLACK
10
188.262
20
-121.25
40
0.5
50
90
51
180
0
ARC
8
BLACK
10
201.262
20
-121.25
40
0.5
50
-0
51
90
0
ARC
8
BLACK
10
201.262
20
-134.25
40
0.5
50
-90
51
-0
0
ARC
8
BLACK
10
188.262
20
-134.25
40
0.5
50
-180
51
-90
0
LINE
8
BLACK
6
CONTINUOUS
10
168.713
20
-121.25
11
168.713
21
-134.25
0
LINE
8
BLACK
6
CONTINUOUS
10
182.713
20
-134.25
11
182.713
21
-121.25
0
LINE
8
BLACK
6
CONTINUOUS
10
182.213
20
-120.75
11
169.213
21
-120.75
0
LINE
8
BLACK
6
CONTINUOUS
10
169.213
20
-134.75
11
182.213
21
-134.75
0
ARC
8
BLACK
10
169.213
20
-121.25
40
0.5
50
90
51
180
0
ARC
8
BLACK
10
182.213
20
-121.25
40
0.5
50
-0
51
90
0
ARC
8
BLACK
10
182.213
20
-134.25
40
0.5
50
-90
51
-0
0
ARC
8
BLACK
10
169.213
20
-134.25
40
0.5
50
-180
51
-90
0
LINE
8
BLACK
6
CONTINUOUS
10
149.662
20
-121.25
11
149.662
21
-134.25
0
LINE
8
BLACK
6
CONTINUOUS
10
163.662
20
-134.25
11
163.662
21
-121.25
0
LINE
8
BLACK
6
CONTINUOUS
10
163.162
20
-120.75
11
150.162
21
-120.75
0
LINE
8
BLACK
6
CONTINUOUS
10
150.162
20
-134.75
11
163.162
21
-134.75
0
ARC
8
BLACK
10
150.162
20
-121.25
40
0.5
50
90
51
180
0
ARC
8
BLACK
10
163.162
20
-121.25
40
0.5
50
-0
51
90
0
ARC
8
BLACK
10
163.162
20
-134.25
40
0.5
50
-90
51
-0
0
ARC
8
BLACK
10
150.162
20
-134.25
40
0.5
50
-180
51
-90
0
LINE
8
BLACK
6
CONTINUOUS
10
130.612
20
-121.25
11
130.612
21
-134.25
0
LINE
8
BLACK
6
CONTINUOUS
10
144.612
20
-134.25
11
144.612
21
-121.25
0
LINE
8
BLACK
6
CONTINUOUS
10
144.112
20
-120.75
11
131.112
21
-120.75
0
LINE
8
BLACK
6
CONTINUOUS
10
131.112
20
-134.75
11
144.112
21
-134.75
0
ARC
8
BLACK
10
131.112
20
-121.25
40
0.5
50
90
51
180
0
ARC
8
BLACK
10
144.112
20
-121.25
40
0.5
50
-0
51
90
0
ARC
8
BLACK
10
144.112
20
-134.25
40
0.5
50
-90
51
-0
0
ARC
8
BLACK
10
131.112
20
-134.25
40
0.5
50
-180
51
-90
0
LINE
8
BLACK
6
CONTINUOUS
10
111.562
20
-121.25
11
111.562
21
-134.25
0
LINE
8
BLACK
6
CONTINUOUS
10
125.562
20
-134.25
11
125.562
21
-121.25
0
LINE
8
BLACK
6
CONTINUOUS
10
125.062
20
-120.75
11
112.062
21
-120.75
0
LINE
8
BLACK
6
CONTINUOUS
10
112.062
20
-134.75
11
125.062
21
-134.75
0
ARC
8
BLACK
10
112.062
20
-121.25
40
0.5
50
90
51
180
0
ARC
8
BLACK
10
125.062
20
-121.25
40
0.5
50
-0
51
90
0
ARC
8
BLACK
10
125.062
20
-134.25
40
0.5
50
-90
51
-0
0
ARC
8
BLACK
10
112.062
20
-134.25
40
0.5
50
-180
51
-90
0
LINE
8
BLACK
6
CONTINUOUS
10
92.5125
20
-121.25
11
92.5125
21
-134.25
0
LINE
8
BLACK
6
CONTINUOUS
10
106.512
20
-134.25
11
106.512
21
-121.25
0
LINE
8
BLACK
6
CONTINUOUS
10
106.012
20
-120.75
11
93.0125
21
-120.75
0
LINE
8
BLACK
6
CONTINUOUS
10
93.0125
20
-134.75
11
106.012
21
-134.75
0
ARC
8
BLACK
10
93.0125
20
-121.25
40
0.5
50
90
51
180
0
ARC
8
BLACK
10
106.012
20
-121.25
40
0.5
50
-0
51
90
0
ARC
8
BLACK
10
106.012
20
-134.25
40
0.5
50
-90
51
-0
0
ARC
8
BLACK
10
93.0125
20
-134.25
40
0.5
50
-180
51
-90
0
LINE
8
BLACK
6
CONTINUOUS
10
73.4625
20
-121.25
11
73.4625
21
-134.25
0
LINE
8
BLACK
6
CONTINUOUS
10
87.4625
20
-134.25
11
87.4625
21
-121.25
0
LINE
8
BLACK
6
CONTINUOUS
10
86.9625
20
-120.75
11
73.9625
21
-120.75
0
LINE
8
BLACK
6
CONTINUOUS
10
73.9625
20
-134.75
11
86.9625
21
-134.75
0
ARC
8
BLACK
10
73.9625
20
-121.25
40
0.5
50
90
51
180
0
ARC
8
BLACK
10
86.9625
20
-121.25
40
0.5
50
-0
51
90
0
ARC
8
BLACK
10
86.9625
20
-134.25
40
0.5
50
-90
51
-0
0
ARC
8
BLACK
10
73.9625
20
-134.25
40
0.5
50
-180
51
-90
0
LINE
8
BLACK
6
CONTINUOUS
10
42.5063
20
-121.25
11
42.5063
21
-134.25
0
LINE
8
BLACK
6
CONTINUOUS
10
47.7687
20
-120.75
11
43.0063
21
-120.75
0
LINE
8
BLACK
6
CONTINUOUS
10
43.0063
20
-134.75
11
47.7687
21
-134.75
0
ARC
8
BLACK
10
43.0063
20
-121.25
40
0.5
50
90
51
180
0
ARC
8
BLACK
10
43.0063
20
-134.25
40
0.5
50
-180
51
-90
0
LINE
8
BLACK
6
CONTINUOUS
10
61.2687
20
-134.25
11
61.2687
21
-121.25
0
LINE
8
BLACK
6
CONTINUOUS
10
56.0062
20
-120.75
11
47.7687
21
-120.75
0
LINE
8
BLACK
6
CONTINUOUS
10
60.7687
20
-120.75
11
56.0062
21
-120.75
0
LINE
8
BLACK
6
CONTINUOUS
10
56.0062
20
-134.75
11
60.7687
21
-134.75
0
LINE
8
BLACK
6
CONTINUOUS
10
47.7687
20
-134.75
11
56.0062
21
-134.75
0
ARC
8
BLACK
10
60.7687
20
-121.25
40
0.5
50
-0
51
89.9943
0
ARC
8
BLACK
10
60.7687
20
-134.25
40
0.50005
50
-89.9943
51
-0
0
LINE
8
BLACK
6
CONTINUOUS
10
463.2
20
-126.663
11
449.2
21
-126.663
0
LINE
8
BLACK
6
CONTINUOUS
10
449.2
20
-133.663
11
463.2
21
-133.663
0
LINE
8
BLACK
6
CONTINUOUS
10
463.7
20
-133.163
11
463.7
21
-127.163
0
LINE
8
BLACK
6
CONTINUOUS
10
448.7
20
-127.163
11
448.7
21
-133.163
0
ARC
8
BLACK
10
463.2
20
-127.163
40
0.5
50
-0
51
90
0
ARC
8
BLACK
10
463.2
20
-133.163
40
0.5
50
-90
51
-0
0
ARC
8
BLACK
10
449.2
20
-133.163
40
0.5
50
-180
51
-90
0
ARC
8
BLACK
10
449.2
20
-127.163
40
0.5
50
90
51
180
0
LINE
8
BLACK
6
CONTINUOUS
10
463.2
20
-102.787
11
449.2
21
-102.787
0
LINE
8
BLACK
6
CONTINUOUS
10
449.2
20
-109.787
11
463.2
21
-109.787
0
LINE
8
BLACK
6
CONTINUOUS
10
463.7
20
-109.287
11
463.7
21
-103.287
0
LINE
8
BLACK
6
CONTINUOUS
10
448.7
20
-103.287
11
448.7
21
-109.287
0
ARC
8
BLACK
10
463.2
20
-103.287
40
0.5
50
-0
51
90
0
ARC
8
BLACK
10
463.2
20
-109.287
40
0.5
50
-90
51
-0
0
ARC
8
BLACK
10
449.2
20
-109.287
40
0.5
50
-180
51
-90
0
ARC
8
BLACK
10
449.2
20
-103.287
40
0.5
50
90
51
180
0
LINE
8
BLACK
6
CONTINUOUS
10
449.7
20
-111.725
11
449.7
21
-124.725
0
LINE
8
BLACK
6
CONTINUOUS
10
463.7
20
-124.725
11
463.7
21
-111.725
0
LINE
8
BLACK
6
CONTINUOUS
10
463.2
20
-111.225
11
450.2
21
-111.225
0
LINE
8
BLACK
6
CONTINUOUS
10
450.2
20
-125.225
11
463.2
21
-125.225
0
ARC
8
BLACK
10
450.2
20
-111.725
40
0.5
50
90
51
180
0
ARC
8
BLACK
10
463.2
20
-111.725
40
0.5
50
-0
51
90
0
ARC
8
BLACK
10
463.2
20
-124.725
40
0.5
50
-90
51
-0
0
ARC
8
BLACK
10
450.2
20
-124.725
40
0.5
50
-180
51
-90
0
LINE
8
BLACK
6
CONTINUOUS
10
430.65
20
-102.2
11
430.65
21
-115.2
0
LINE
8
BLACK
6
CONTINUOUS
10
444.65
20
-115.2
11
444.65
21
-102.2
0
LINE
8
BLACK
6
CONTINUOUS
10
444.15
20
-101.7
11
431.15
21
-101.7
0
LINE
8
BLACK
6
CONTINUOUS
10
431.15
20
-115.7
11
444.15
21
-115.7
0
ARC
8
BLACK
10
431.15
20
-102.2
40
0.5
50
90
51
180
0
ARC
8
BLACK
10
444.15
20
-102.2
40
0.5
50
-0
51
90
0
ARC
8
BLACK
10
444.15
20
-115.2
40
0.5
50
-90
51
-0
0
ARC
8
BLACK
10
431.15
20
-115.2
40
0.5
50
-180
51
-90
0
LINE
8
BLACK
6
CONTINUOUS
10
411.6
20
-102.2
11
411.6
21
-115.2
0
LINE
8
BLACK
6
CONTINUOUS
10
425.6
20
-115.2
11
425.6
21
-102.2
0
LINE
8
BLACK
6
CONTINUOUS
10
425.1
20
-101.7
11
412.1
21
-101.7
0
LINE
8
BLACK
6
CONTINUOUS
10
412.1
20
-115.7
11
425.1
21
-115.7
0
ARC
8
BLACK
10
412.1
20
-102.2
40
0.5
50
90
51
180
0
ARC
8
BLACK
10
425.1
20
-102.2
40
0.5
50
-0
51
90
0
ARC
8
BLACK
10
425.1
20
-115.2
40
0.5
50
-90
51
-0
0
ARC
8
BLACK
10
412.1
20
-115.2
40
0.5
50
-180
51
-90
0
LINE
8
BLACK
6
CONTINUOUS
10
392.55
20
-102.2
11
392.55
21
-115.2
0
LINE
8
BLACK
6
CONTINUOUS
10
406.55
20
-115.2
11
406.55
21
-102.2
0
LINE
8
BLACK
6
CONTINUOUS
10
406.05
20
-101.7
11
393.05
21
-101.7
0
LINE
8
BLACK
6
CONTINUOUS
10
393.05
20
-115.7
11
406.05
21
-115.7
0
ARC
8
BLACK
10
393.05
20
-102.2
40
0.5
50
90
51
180
0
ARC
8
BLACK
10
406.05
20
-102.2
40
0.5
50
-0
51
90
0
ARC
8
BLACK
10
406.05
20
-115.2
40
0.5
50
-90
51
-0
0
ARC
8
BLACK
10
393.05
20
-115.2
40
0.5
50
-180
51
-90
0
LINE
8
BLACK
6
CONTINUOUS
10
368.738
20
-102.2
11
368.738
21
-115.2
0
LINE
8
BLACK
6
CONTINUOUS
10
382.737
20
-115.2
11
382.737
21
-102.2
0
LINE
8
BLACK
6
CONTINUOUS
10
382.237
20
-101.7
11
369.238
21
-101.7
0
LINE
8
BLACK
6
CONTINUOUS
10
369.238
20
-115.7
11
382.237
21
-115.7
0
ARC
8
BLACK
10
369.238
20
-102.2
40
0.5
50
90
51
180
0
ARC
8
BLACK
10
382.237
20
-102.2
40
0.5
50
-0
51
90
0
ARC
8
BLACK
10
382.237
20
-115.2
40
0.5
50
-90
51
-0
0
ARC
8
BLACK
10
369.238
20
-115.2
40
0.5
50
-180
51
-90
0
LINE
8
BLACK
6
CONTINUOUS
10
349.688
20
-102.2
11
349.688
21
-115.2
0
LINE
8
BLACK
6
CONTINUOUS
10
363.688
20
-115.2
11
363.688
21
-102.2
0
LINE
8
BLACK
6
CONTINUOUS
10
363.188
20
-101.7
11
350.188
21
-101.7
0
LINE
8
BLACK
6
CONTINUOUS
10
350.188
20
-115.7
11
363.188
21
-115.7
0
ARC
8
BLACK
10
350.188
20
-102.2
40
0.5
50
90
51
180
0
ARC
8
BLACK
10
363.188
20
-102.2
40
0.5
50
-0
51
90
0
ARC
8
BLACK
10
363.188
20
-115.2
40
0.5
50
-90
51
-0
0
ARC
8
BLACK
10
350.188
20
-115.2
40
0.5
50
-180
51
-90
0
LINE
8
BLACK
6
CONTINUOUS
10
330.637
20
-102.2
11
330.637
21
-115.2
0
LINE
8
BLACK
6
CONTINUOUS
10
344.637
20
-115.2
11
344.637
21
-102.2
0
LINE
8
BLACK
6
CONTINUOUS
10
344.137
20
-101.7
11
331.137
21
-101.7
0
LINE
8
BLACK
6
CONTINUOUS
10
331.137
20
-115.7
11
344.137
21
-115.7
0
ARC
8
BLACK
10
331.137
20
-102.2
40
0.5
50
90
51
180
0
ARC
8
BLACK
10
344.137
20
-102.2
40
0.5
50
-0
51
90
0
ARC
8
BLACK
10
344.137
20
-115.2
40
0.5
50
-90
51
-0
0
ARC
8
BLACK
10
331.137
20
-115.2
40
0.5
50
-180
51
-90
0
LINE
8
BLACK
6
CONTINUOUS
10
317.944
20
-126.663
11
317.357
21
-126.663
0
LINE
8
BLACK
6
CONTINUOUS
10
317.357
20
-133.663
11
317.944
21
-133.663
0
LINE
8
BLACK
6
CONTINUOUS
10
308.919
20
-133.663
11
310.357
21
-133.663
0
LINE
8
BLACK
6
CONTINUOUS
10
318.444
20
-133.163
11
318.444
21
-127.163
0
ARC
8
BLACK
10
317.944
20
-127.163
40
0.5
50
-0
51
89.9943
0
ARC
8
BLACK
10
317.944
20
-133.163
40
0.50005
50
-89.9943
51
-0
0
LINE
8
BLACK
6
CONTINUOUS
10
317.944
20
-102.787
11
316.062
21
-102.787
0
LINE
8
BLACK
6
CONTINUOUS
10
316.062
20
-109.787
11
317.944
21
-109.787
0
LINE
8
BLACK
6
CONTINUOUS
10
318.444
20
-109.287
11
318.444
21
-103.287
0
ARC
8
BLACK
10
317.944
20
-103.287
40
0.5
50
-0
51
89.9943
0
ARC
8
BLACK
10
317.944
20
-109.287
40
0.50005
50
-89.9943
51
-0
0
LINE
8
BLACK
6
CONTINUOUS
10
304.444
20
-115.7
11
304.444
21
-120.75
0
LINE
8
BLACK
6
CONTINUOUS
10
318.444
20
-124.725
11
318.444
21
-111.725
0
LINE
8
BLACK
6
CONTINUOUS
10
317.944
20
-111.225
11
316.062
21
-111.225
0
LINE
8
BLACK
6
CONTINUOUS
10
317.357
20
-125.225
11
317.944
21
-125.225
0
ARC
8
BLACK
10
317.944
20
-111.725
40
0.5
50
-0
51
89.9943
0
ARC
8
BLACK
10
317.944
20
-124.725
40
0.50005
50
-89.9943
51
-0
0
LINE
8
BLACK
6
CONTINUOUS
10
302.062
20
-102.2
11
302.062
21
-115.2
0
LINE
8
BLACK
6
CONTINUOUS
10
316.062
20
-102.787
11
316.062
21
-102.2
0
LINE
8
BLACK
6
CONTINUOUS
10
316.062
20
-111.225
11
316.062
21
-109.787
0
LINE
8
BLACK
6
CONTINUOUS
10
315.562
20
-101.7
11
302.562
21
-101.7
0
LINE
8
BLACK
6
CONTINUOUS
10
302.562
20
-115.7
11
304.444
21
-115.7
0
ARC
8
BLACK
10
302.562
20
-102.2
40
0.5
50
90
51
180
0
ARC
8
BLACK
10
315.562
20
-102.2
40
0.5
50
-0
51
90
0
ARC
8
BLACK
10
302.562
20
-115.2
40
0.5
50
-180
51
-90
0
LINE
8
BLACK
6
CONTINUOUS
10
278.25
20
-102.2
11
278.25
21
-115.2
0
LINE
8
BLACK
6
CONTINUOUS
10
292.25
20
-115.2
11
292.25
21
-102.2
0
LINE
8
BLACK
6
CONTINUOUS
10
291.75
20
-101.7
11
278.75
21
-101.7
0
LINE
8
BLACK
6
CONTINUOUS
10
278.75
20
-115.7
11
291.75
21
-115.7
0
ARC
8
BLACK
10
278.75
20
-102.2
40
0.5
50
90
51
180
0
ARC
8
BLACK
10
291.75
20
-102.2
40
0.5
50
-0
51
90
0
ARC
8
BLACK
10
291.75
20
-115.2
40
0.5
50
-90
51
-0
0
ARC
8
BLACK
10
278.75
20
-115.2
40
0.5
50
-180
51
-90
0
LINE
8
BLACK
6
CONTINUOUS
10
259.2
20
-102.2
11
259.2
21
-115.2
0
LINE
8
BLACK
6
CONTINUOUS
10
273.2
20
-115.2
11
273.2
21
-102.2
0
LINE
8
BLACK
6
CONTINUOUS
10
272.7
20
-101.7
11
259.7
21
-101.7
0
LINE
8
BLACK
6
CONTINUOUS
10
259.7
20
-115.7
11
272.7
21
-115.7
0
ARC
8
BLACK
10
259.7
20
-102.2
40
0.5
50
90
51
180
0
ARC
8
BLACK
10
272.7
20
-102.2
40
0.5
50
-0
51
90
0
ARC
8
BLACK
10
272.7
20
-115.2
40
0.5
50
-90
51
-0
0
ARC
8
BLACK
10
259.7
20
-115.2
40
0.5
50
-180
51
-90
0
LINE
8
BLACK
6
CONTINUOUS
10
240.15
20
-102.2
11
240.15
21
-115.2
0
LINE
8
BLACK
6
CONTINUOUS
10
254.15
20
-115.2
11
254.15
21
-102.2
0
LINE
8
BLACK
6
CONTINUOUS
10
253.65
20
-101.7
11
240.65
21
-101.7
0
LINE
8
BLACK
6
CONTINUOUS
10
240.65
20
-115.7
11
253.65
21
-115.7
0
ARC
8
BLACK
10
240.65
20
-102.2
40
0.5
50
90
51
180
0
ARC
8
BLACK
10
253.65
20
-102.2
40
0.5
50
-0
51
90
0
ARC
8
BLACK
10
253.65
20
-115.2
40
0.5
50
-90
51
-0
0
ARC
8
BLACK
10
240.65
20
-115.2
40
0.5
50
-180
51
-90
0
LINE
8
BLACK
6
CONTINUOUS
10
221.1
20
-102.2
11
221.1
21
-115.2
0
LINE
8
BLACK
6
CONTINUOUS
10
235.1
20
-115.2
11
235.1
21
-102.2
0
LINE
8
BLACK
6
CONTINUOUS
10
234.6
20
-101.7
11
221.6
21
-101.7
0
LINE
8
BLACK
6
CONTINUOUS
10
221.6
20
-115.7
11
234.6
21
-115.7
0
ARC
8
BLACK
10
221.6
20
-102.2
40
0.5
50
90
51
180
0
ARC
8
BLACK
10
234.6
20
-102.2
40
0.5
50
-0
51
90
0
ARC
8
BLACK
10
234.6
20
-115.2
40
0.5
50
-90
51
-0
0
ARC
8
BLACK
10
221.6
20
-115.2
40
0.5
50
-180
51
-90
0
LINE
8
BLACK
6
CONTINUOUS
10
202.05
20
-102.2
11
202.05
21
-115.2
0
LINE
8
BLACK
6
CONTINUOUS
10
216.05
20
-115.2
11
216.05
21
-102.2
0
LINE
8
BLACK
6
CONTINUOUS
10
215.55
20
-101.7
11
202.55
21
-101.7
0
LINE
8
BLACK
6
CONTINUOUS
10
202.55
20
-115.7
11
215.55
21
-115.7
0
ARC
8
BLACK
10
202.55
20
-102.2
40
0.5
50
90
51
180
0
ARC
8
BLACK
10
215.55
20
-102.2
40
0.5
50
-0
51
90
0
ARC
8
BLACK
10
215.55
20
-115.2
40
0.5
50
-90
51
-0
0
ARC
8
BLACK
10
202.55
20
-115.2
40
0.5
50
-180
51
-90
0
LINE
8
BLACK
6
CONTINUOUS
10
183
20
-102.2
11
183
21
-115.2
0
LINE
8
BLACK
6
CONTINUOUS
10
197
20
-115.2
11
197
21
-102.2
0
LINE
8
BLACK
6
CONTINUOUS
10
196.5
20
-101.7
11
183.5
21
-101.7
0
LINE
8
BLACK
6
CONTINUOUS
10
183.5
20
-115.7
11
196.5
21
-115.7
0
ARC
8
BLACK
10
183.5
20
-102.2
40
0.5
50
90
51
180
0
ARC
8
BLACK
10
196.5
20
-102.2
40
0.5
50
-0
51
90
0
ARC
8
BLACK
10
196.5
20
-115.2
40
0.5
50
-90
51
-0
0
ARC
8
BLACK
10
183.5
20
-115.2
40
0.5
50
-180
51
-90
0
LINE
8
BLACK
6
CONTINUOUS
10
163.95
20
-102.2
11
163.95
21
-115.2
0
LINE
8
BLACK
6
CONTINUOUS
10
177.95
20
-115.2
11
177.95
21
-102.2
0
LINE
8
BLACK
6
CONTINUOUS
10
177.45
20
-101.7
11
164.45
21
-101.7
0
LINE
8
BLACK
6
CONTINUOUS
10
164.45
20
-115.7
11
177.45
21
-115.7
0
ARC
8
BLACK
10
164.45
20
-102.2
40
0.5
50
90
51
180
0
ARC
8
BLACK
10
177.45
20
-102.2
40
0.5
50
-0
51
90
0
ARC
8
BLACK
10
177.45
20
-115.2
40
0.5
50
-90
51
-0
0
ARC
8
BLACK
10
164.45
20
-115.2
40
0.5
50
-180
51
-90
0
LINE
8
BLACK
6
CONTINUOUS
10
144.9
20
-102.2
11
144.9
21
-115.2
0
LINE
8
BLACK
6
CONTINUOUS
10
158.9
20
-115.2
11
158.9
21
-102.2
0
LINE
8
BLACK
6
CONTINUOUS
10
158.4
20
-101.7
11
145.4
21
-101.7
0
LINE
8
BLACK
6
CONTINUOUS
10
145.4
20
-115.7
11
158.4
21
-115.7
0
ARC
8
BLACK
10
145.4
20
-102.2
40
0.5
50
90
51
180
0
ARC
8
BLACK
10
158.4
20
-102.2
40
0.5
50
-0
51
90
0
ARC
8
BLACK
10
158.4
20
-115.2
40
0.5
50
-90
51
-0
0
ARC
8
BLACK
10
145.4
20
-115.2
40
0.5
50
-180
51
-90
0
LINE
8
BLACK
6
CONTINUOUS
10
125.85
20
-102.2
11
125.85
21
-115.2
0
LINE
8
BLACK
6
CONTINUOUS
10
139.85
20
-115.2
11
139.85
21
-102.2
0
LINE
8
BLACK
6
CONTINUOUS
10
139.35
20
-101.7
11
126.35
21
-101.7
0
LINE
8
BLACK
6
CONTINUOUS
10
126.35
20
-115.7
11
139.35
21
-115.7
0
ARC
8
BLACK
10
126.35
20
-102.2
40
0.5
50
90
51
180
0
ARC
8
BLACK
10
139.35
20
-102.2
40
0.5
50
-0
51
90
0
ARC
8
BLACK
10
139.35
20
-115.2
40
0.5
50
-90
51
-0
0
ARC
8
BLACK
10
126.35
20
-115.2
40
0.5
50
-180
51
-90
0
LINE
8
BLACK
6
CONTINUOUS
10
106.8
20
-102.2
11
106.8
21
-115.2
0
LINE
8
BLACK
6
CONTINUOUS
10
120.8
20
-115.2
11
120.8
21
-102.2
0
LINE
8
BLACK
6
CONTINUOUS
10
120.3
20
-101.7
11
107.3
21
-101.7
0
LINE
8
BLACK
6
CONTINUOUS
10
107.3
20
-115.7
11
120.3
21
-115.7
0
ARC
8
BLACK
10
107.3
20
-102.2
40
0.5
50
90
51
180
0
ARC
8
BLACK
10
120.3
20
-102.2
40
0.5
50
-0
51
90
0
ARC
8
BLACK
10
120.3
20
-115.2
40
0.5
50
-90
51
-0
0
ARC
8
BLACK
10
107.3
20
-115.2
40
0.5
50
-180
51
-90
0
LINE
8
BLACK
6
CONTINUOUS
10
87.75
20
-102.2
11
87.75
21
-115.2
0
LINE
8
BLACK
6
CONTINUOUS
10
101.75
20
-115.2
11
101.75
21
-102.2
0
LINE
8
BLACK
6
CONTINUOUS
10
101.25
20
-101.7
11
88.25
21
-101.7
0
LINE
8
BLACK
6
CONTINUOUS
10
88.25
20
-115.7
11
101.25
21
-115.7
0
ARC
8
BLACK
10
88.25
20
-102.2
40
0.5
50
90
51
180
0
ARC
8
BLACK
10
101.25
20
-102.2
40
0.5
50
-0
51
90
0
ARC
8
BLACK
10
101.25
20
-115.2
40
0.5
50
-90
51
-0
0
ARC
8
BLACK
10
88.25
20
-115.2
40
0.5
50
-180
51
-90
0
LINE
8
BLACK
6
CONTINUOUS
10
68.7
20
-102.2
11
68.7
21
-115.2
0
LINE
8
BLACK
6
CONTINUOUS
10
82.7
20
-115.2
11
82.7
21
-102.2
0
LINE
8
BLACK
6
CONTINUOUS
10
82.2
20
-101.7
11
69.2
21
-101.7
0
LINE
8
BLACK
6
CONTINUOUS
10
69.2
20
-115.7
11
82.2
21
-115.7
0
ARC
8
BLACK
10
69.2
20
-102.2
40
0.5
50
90
51
180
0
ARC
8
BLACK
10
82.2
20
-102.2
40
0.5
50
-0
51
90
0
ARC
8
BLACK
10
82.2
20
-115.2
40
0.5
50
-90
51
-0
0
ARC
8
BLACK
10
69.2
20
-115.2
40
0.5
50
-180
51
-90
0
LINE
8
BLACK
6
CONTINUOUS
10
44.8875
20
-102.2
11
44.8875
21
-115.2
0
LINE
8
BLACK
6
CONTINUOUS
10
58.8875
20
-115.2
11
58.8875
21
-102.2
0
LINE
8
BLACK
6
CONTINUOUS
10
58.3875
20
-101.7
11
45.3875
21
-101.7
0
LINE
8
BLACK
6
CONTINUOUS
10
45.3875
20
-115.7
11
58.3875
21
-115.7
0
ARC
8
BLACK
10
45.3875
20
-102.2
40
0.5
50
90
51
180
0
ARC
8
BLACK
10
58.3875
20
-102.2
40
0.5
50
-0
51
90
0
ARC
8
BLACK
10
58.3875
20
-115.2
40
0.5
50
-90
51
-0
0
ARC
8
BLACK
10
45.3875
20
-115.2
40
0.5
50
-180
51
-90
0
LINE
8
BLACK
6
CONTINUOUS
10
449.7
20
-83.15
11
449.7
21
-96.15
0
LINE
8
BLACK
6
CONTINUOUS
10
463.7
20
-96.15
11
463.7
21
-83.15
0
LINE
8
BLACK
6
CONTINUOUS
10
463.2
20
-82.65
11
450.2
21
-82.65
0
LINE
8
BLACK
6
CONTINUOUS
10
450.2
20
-96.65
11
463.2
21
-96.65
0
ARC
8
BLACK
10
450.2
20
-83.15
40
0.5
50
90
51
180
0
ARC
8
BLACK
10
463.2
20
-83.15
40
0.5
50
-0
51
90
0
ARC
8
BLACK
10
463.2
20
-96.15
40
0.5
50
-90
51
-0
0
ARC
8
BLACK
10
450.2
20
-96.15
40
0.5
50
-180
51
-90
0
LINE
8
BLACK
6
CONTINUOUS
10
430.65
20
-83.15
11
430.65
21
-96.15
0
LINE
8
BLACK
6
CONTINUOUS
10
444.65
20
-96.15
11
444.65
21
-83.15
0
LINE
8
BLACK
6
CONTINUOUS
10
444.15
20
-82.65
11
431.15
21
-82.65
0
LINE
8
BLACK
6
CONTINUOUS
10
431.15
20
-96.65
11
444.15
21
-96.65
0
ARC
8
BLACK
10
431.15
20
-83.15
40
0.5
50
90
51
180
0
ARC
8
BLACK
10
444.15
20
-83.15
40
0.5
50
-0
51
90
0
ARC
8
BLACK
10
444.15
20
-96.15
40
0.5
50
-90
51
-0
0
ARC
8
BLACK
10
431.15
20
-96.15
40
0.5
50
-180
51
-90
0
LINE
8
BLACK
6
CONTINUOUS
10
411.6
20
-83.15
11
411.6
21
-96.15
0
LINE
8
BLACK
6
CONTINUOUS
10
425.6
20
-96.15
11
425.6
21
-83.15
0
LINE
8
BLACK
6
CONTINUOUS
10
425.1
20
-82.65
11
412.1
21
-82.65
0
LINE
8
BLACK
6
CONTINUOUS
10
412.1
20
-96.65
11
425.1
21
-96.65
0
ARC
8
BLACK
10
412.1
20
-83.15
40
0.5
50
90
51
180
0
ARC
8
BLACK
10
425.1
20
-83.15
40
0.5
50
-0
51
90
0
ARC
8
BLACK
10
425.1
20
-96.15
40
0.5
50
-90
51
-0
0
ARC
8
BLACK
10
412.1
20
-96.15
40
0.5
50
-180
51
-90
0
LINE
8
BLACK
6
CONTINUOUS
10
392.55
20
-83.15
11
392.55
21
-96.15
0
LINE
8
BLACK
6
CONTINUOUS
10
406.55
20
-96.15
11
406.55
21
-83.15
0
LINE
8
BLACK
6
CONTINUOUS
10
406.05
20
-82.65
11
393.05
21
-82.65
0
LINE
8
BLACK
6
CONTINUOUS
10
393.05
20
-96.65
11
406.05
21
-96.65
0
ARC
8
BLACK
10
393.05
20
-83.15
40
0.5
50
90
51
180
0
ARC
8
BLACK
10
406.05
20
-83.15
40
0.5
50
-0
51
90
0
ARC
8
BLACK
10
406.05
20
-96.15
40
0.5
50
-90
51
-0
0
ARC
8
BLACK
10
393.05
20
-96.15
40
0.5
50
-180
51
-90
0
LINE
8
BLACK
6
CONTINUOUS
10
368.738
20
-83.15
11
368.738
21
-96.15
0
LINE
8
BLACK
6
CONTINUOUS
10
382.737
20
-96.15
11
382.737
21
-83.15
0
LINE
8
BLACK
6
CONTINUOUS
10
382.237
20
-82.65
11
369.238
21
-82.65
0
LINE
8
BLACK
6
CONTINUOUS
10
369.238
20
-96.65
11
382.237
21
-96.65
0
ARC
8
BLACK
10
369.238
20
-83.15
40
0.5
50
90
51
180
0
ARC
8
BLACK
10
382.237
20
-83.15
40
0.5
50
-0
51
90
0
ARC
8
BLACK
10
382.237
20
-96.15
40
0.5
50
-90
51
-0
0
ARC
8
BLACK
10
369.238
20
-96.15
40
0.5
50
-180
51
-90
0
LINE
8
BLACK
6
CONTINUOUS
10
349.688
20
-83.15
11
349.688
21
-96.15
0
LINE
8
BLACK
6
CONTINUOUS
10
363.688
20
-96.15
11
363.688
21
-83.15
0
LINE
8
BLACK
6
CONTINUOUS
10
363.188
20
-82.65
11
350.188
21
-82.65
0
LINE
8
BLACK
6
CONTINUOUS
10
350.188
20
-96.65
11
363.188
21
-96.65
0
ARC
8
BLACK
10
350.188
20
-83.15
40
0.5
50
90
51
180
0
ARC
8
BLACK
10
363.188
20
-83.15
40
0.5
50
-0
51
90
0
ARC
8
BLACK
10
363.188
20
-96.15
40
0.5
50
-90
51
-0
0
ARC
8
BLACK
10
350.188
20
-96.15
40
0.5
50
-180
51
-90
0
LINE
8
BLACK
6
CONTINUOUS
10
330.637
20
-83.15
11
330.637
21
-96.15
0
LINE
8
BLACK
6
CONTINUOUS
10
344.637
20
-96.15
11
344.637
21
-83.15
0
LINE
8
BLACK
6
CONTINUOUS
10
344.137
20
-82.65
11
331.137
21
-82.65
0
LINE
8
BLACK
6
CONTINUOUS
10
331.137
20
-96.65
11
344.137
21
-96.65
0
ARC
8
BLACK
10
331.137
20
-83.15
40
0.5
50
90
51
180
0
ARC
8
BLACK
10
344.137
20
-83.15
40
0.5
50
-0
51
90
0
ARC
8
BLACK
10
344.137
20
-96.15
40
0.5
50
-90
51
-0
0
ARC
8
BLACK
10
331.137
20
-96.15
40
0.5
50
-180
51
-90
0
LINE
8
BLACK
6
CONTINUOUS
10
312.738
20
-83.15
11
312.738
21
-97.15
0
LINE
8
BLACK
6
CONTINUOUS
10
319.738
20
-97.15
11
319.738
21
-83.15
0
LINE
8
BLACK
6
CONTINUOUS
10
319.238
20
-82.65
11
313.238
21
-82.65
0
LINE
8
BLACK
6
CONTINUOUS
10
313.238
20
-97.65
11
319.238
21
-97.65
0
ARC
8
BLACK
10
313.238
20
-83.15
40
0.5
50
90
51
180
0
ARC
8
BLACK
10
319.238
20
-83.15
40
0.5
50
-0
51
90
0
ARC
8
BLACK
10
319.238
20
-97.15
40
0.5
50
-90
51
-0
0
ARC
8
BLACK
10
313.238
20
-97.15
40
0.5
50
-180
51
-90
0
LINE
8
BLACK
6
CONTINUOUS
10
288.862
20
-83.15
11
288.862
21
-97.15
0
LINE
8
BLACK
6
CONTINUOUS
10
295.862
20
-97.15
11
295.862
21
-83.15
0
LINE
8
BLACK
6
CONTINUOUS
10
295.362
20
-82.65
11
289.362
21
-82.65
0
LINE
8
BLACK
6
CONTINUOUS
10
289.362
20
-97.65
11
295.362
21
-97.65
0
ARC
8
BLACK
10
289.362
20
-83.15
40
0.5
50
90
51
180
0
ARC
8
BLACK
10
295.362
20
-83.15
40
0.5
50
-0
51
90
0
ARC
8
BLACK
10
295.362
20
-97.15
40
0.5
50
-90
51
-0
0
ARC
8
BLACK
10
289.362
20
-97.15
40
0.5
50
-180
51
-90
0
LINE
8
BLACK
6
CONTINUOUS
10
297.3
20
-83.15
11
297.3
21
-96.15
0
LINE
8
BLACK
6
CONTINUOUS
10
311.3
20
-96.15
11
311.3
21
-83.15
0
LINE
8
BLACK
6
CONTINUOUS
10
310.8
20
-82.65
11
297.8
21
-82.65
0
LINE
8
BLACK
6
CONTINUOUS
10
297.8
20
-96.65
11
310.8
21
-96.65
0
ARC
8
BLACK
10
297.8
20
-83.15
40
0.5
50
90
51
180
0
ARC
8
BLACK
10
310.8
20
-83.15
40
0.5
50
-0
51
90
0
ARC
8
BLACK
10
310.8
20
-96.15
40
0.5
50
-90
51
-0
0
ARC
8
BLACK
10
297.8
20
-96.15
40
0.5
50
-180
51
-90
0
LINE
8
BLACK
6
CONTINUOUS
10
268.725
20
-83.15
11
268.725
21
-96.15
0
LINE
8
BLACK
6
CONTINUOUS
10
282.725
20
-96.15
11
282.725
21
-83.15
0
LINE
8
BLACK
6
CONTINUOUS
10
282.225
20
-82.65
11
269.225
21
-82.65
0
LINE
8
BLACK
6
CONTINUOUS
10
269.225
20
-96.65
11
282.225
21
-96.65
0
ARC
8
BLACK
10
269.225
20
-83.15
40
0.5
50
90
51
180
0
ARC
8
BLACK
10
282.225
20
-83.15
40
0.5
50
-0
51
90
0
ARC
8
BLACK
10
282.225
20
-96.15
40
0.5
50
-90
51
-0
0
ARC
8
BLACK
10
269.225
20
-96.15
40
0.5
50
-180
51
-90
0
LINE
8
BLACK
6
CONTINUOUS
10
249.675
20
-83.15
11
249.675
21
-96.15
0
LINE
8
BLACK
6
CONTINUOUS
10
263.675
20
-96.15
11
263.675
21
-83.15
0
LINE
8
BLACK
6
CONTINUOUS
10
263.175
20
-82.65
11
250.175
21
-82.65
0
LINE
8
BLACK
6
CONTINUOUS
10
250.175
20
-96.65
11
263.175
21
-96.65
0
ARC
8
BLACK
10
250.175
20
-83.15
40
0.5
50
90
51
180
0
ARC
8
BLACK
10
263.175
20
-83.15
40
0.5
50
-0
51
90
0
ARC
8
BLACK
10
263.175
20
-96.15
40
0.5
50
-90
51
-0
0
ARC
8
BLACK
10
250.175
20
-96.15
40
0.5
50
-180
51
-90
0
LINE
8
BLACK
6
CONTINUOUS
10
230.625
20
-83.15
11
230.625
21
-96.15
0
LINE
8
BLACK
6
CONTINUOUS
10
244.625
20
-96.15
11
244.625
21
-83.15
0
LINE
8
BLACK
6
CONTINUOUS
10
244.125
20
-82.65
11
231.125
21
-82.65
0
LINE
8
BLACK
6
CONTINUOUS
10
231.125
20
-96.65
11
244.125
21
-96.65
0
ARC
8
BLACK
10
231.125
20
-83.15
40
0.5
50
90
51
180
0
ARC
8
BLACK
10
244.125
20
-83.15
40
0.5
50
-0
51
90
0
ARC
8
BLACK
10
244.125
20
-96.15
40
0.5
50
-90
51
-0
0
ARC
8
BLACK
10
231.125
20
-96.15
40
0.5
50
-180
51
-90
0
LINE
8
BLACK
6
CONTINUOUS
10
211.575
20
-83.15
11
211.575
21
-96.15
0
LINE
8
BLACK
6
CONTINUOUS
10
225.575
20
-96.15
11
225.575
21
-83.15
0
LINE
8
BLACK
6
CONTINUOUS
10
225.075
20
-82.65
11
212.075
21
-82.65
0
LINE
8
BLACK
6
CONTINUOUS
10
212.075
20
-96.65
11
225.075
21
-96.65
0
ARC
8
BLACK
10
212.075
20
-83.15
40
0.5
50
90
51
180
0
ARC
8
BLACK
10
225.075
20
-83.15
40
0.5
50
-0
51
90
0
ARC
8
BLACK
10
225.075
20
-96.15
40
0.5
50
-90
51
-0
0
ARC
8
BLACK
10
212.075
20
-96.15
40
0.5
50
-180
51
-90
0
LINE
8
BLACK
6
CONTINUOUS
10
192.525
20
-83.15
11
192.525
21
-96.15
0
LINE
8
BLACK
6
CONTINUOUS
10
206.525
20
-96.15
11
206.525
21
-83.15
0
LINE
8
BLACK
6
CONTINUOUS
10
206.025
20
-82.65
11
193.025
21
-82.65
0
LINE
8
BLACK
6
CONTINUOUS
10
193.025
20
-96.65
11
206.025
21
-96.65
0
ARC
8
BLACK
10
193.025
20
-83.15
40
0.5
50
90
51
180
0
ARC
8
BLACK
10
206.025
20
-83.15
40
0.5
50
-0
51
90
0
ARC
8
BLACK
10
206.025
20
-96.15
40
0.5
50
-90
51
-0
0
ARC
8
BLACK
10
193.025
20
-96.15
40
0.5
50
-180
51
-90
0
LINE
8
BLACK
6
CONTINUOUS
10
173.475
20
-83.15
11
173.475
21
-96.15
0
LINE
8
BLACK
6
CONTINUOUS
10
187.475
20
-96.15
11
187.475
21
-83.15
0
LINE
8
BLACK
6
CONTINUOUS
10
186.975
20
-82.65
11
173.975
21
-82.65
0
LINE
8
BLACK
6
CONTINUOUS
10
173.975
20
-96.65
11
186.975
21
-96.65
0
ARC
8
BLACK
10
173.975
20
-83.15
40
0.5
50
90
51
180
0
ARC
8
BLACK
10
186.975
20
-83.15
40
0.5
50
-0
51
90
0
ARC
8
BLACK
10
186.975
20
-96.15
40
0.5
50
-90
51
-0
0
ARC
8
BLACK
10
173.975
20
-96.15
40
0.5
50
-180
51
-90
0
LINE
8
BLACK
6
CONTINUOUS
10
154.425
20
-83.15
11
154.425
21
-96.15
0
LINE
8
BLACK
6
CONTINUOUS
10
168.425
20
-96.15
11
168.425
21
-83.15
0
LINE
8
BLACK
6
CONTINUOUS
10
167.925
20
-82.65
11
154.925
21
-82.65
0
LINE
8
BLACK
6
CONTINUOUS
10
154.925
20
-96.65
11
167.925
21
-96.65
0
ARC
8
BLACK
10
154.925
20
-83.15
40
0.5
50
90
51
180
0
ARC
8
BLACK
10
167.925
20
-83.15
40
0.5
50
-0
51
90
0
ARC
8
BLACK
10
167.925
20
-96.15
40
0.5
50
-90
51
-0
0
ARC
8
BLACK
10
154.925
20
-96.15
40
0.5
50
-180
51
-90
0
LINE
8
BLACK
6
CONTINUOUS
10
135.375
20
-83.15
11
135.375
21
-96.15
0
LINE
8
BLACK
6
CONTINUOUS
10
149.375
20
-96.15
11
149.375
21
-83.15
0
LINE
8
BLACK
6
CONTINUOUS
10
148.875
20
-82.65
11
135.875
21
-82.65
0
LINE
8
BLACK
6
CONTINUOUS
10
135.875
20
-96.65
11
148.875
21
-96.65
0
ARC
8
BLACK
10
135.875
20
-83.15
40
0.5
50
90
51
180
0
ARC
8
BLACK
10
148.875
20
-83.15
40
0.5
50
-0
51
90
0
ARC
8
BLACK
10
148.875
20
-96.15
40
0.5
50
-90
51
-0
0
ARC
8
BLACK
10
135.875
20
-96.15
40
0.5
50
-180
51
-90
0
LINE
8
BLACK
6
CONTINUOUS
10
116.325
20
-83.15
11
116.325
21
-96.15
0
LINE
8
BLACK
6
CONTINUOUS
10
130.325
20
-96.15
11
130.325
21
-83.15
0
LINE
8
BLACK
6
CONTINUOUS
10
129.825
20
-82.65
11
116.825
21
-82.65
0
LINE
8
BLACK
6
CONTINUOUS
10
116.825
20
-96.65
11
129.825
21
-96.65
0
ARC
8
BLACK
10
116.825
20
-83.15
40
0.5
50
90
51
180
0
ARC
8
BLACK
10
129.825
20
-83.15
40
0.5
50
-0
51
90
0
ARC
8
BLACK
10
129.825
20
-96.15
40
0.5
50
-90
51
-0
0
ARC
8
BLACK
10
116.825
20
-96.15
40
0.5
50
-180
51
-90
0
LINE
8
BLACK
6
CONTINUOUS
10
97.275
20
-83.15
11
97.275
21
-96.15
0
LINE
8
BLACK
6
CONTINUOUS
10
111.275
20
-96.15
11
111.275
21
-83.15
0
LINE
8
BLACK
6
CONTINUOUS
10
110.775
20
-82.65
11
97.775
21
-82.65
0
LINE
8
BLACK
6
CONTINUOUS
10
97.775
20
-96.65
11
110.775
21
-96.65
0
ARC
8
BLACK
10
97.775
20
-83.15
40
0.5
50
90
51
180
0
ARC
8
BLACK
10
110.775
20
-83.15
40
0.5
50
-0
51
90
0
ARC
8
BLACK
10
110.775
20
-96.15
40
0.5
50
-90
51
-0
0
ARC
8
BLACK
10
97.775
20
-96.15
40
0.5
50
-180
51
-90
0
LINE
8
BLACK
6
CONTINUOUS
10
78.225
20
-83.15
11
78.225
21
-96.15
0
LINE
8
BLACK
6
CONTINUOUS
10
92.225
20
-96.15
11
92.225
21
-83.15
0
LINE
8
BLACK
6
CONTINUOUS
10
91.725
20
-82.65
11
78.725
21
-82.65
0
LINE
8
BLACK
6
CONTINUOUS
10
78.725
20
-96.65
11
91.725
21
-96.65
0
ARC
8
BLACK
10
78.725
20
-83.15
40
0.5
50
90
51
180
0
ARC
8
BLACK
10
91.725
20
-83.15
40
0.5
50
-0
51
90
0
ARC
8
BLACK
10
91.725
20
-96.15
40
0.5
50
-90
51
-0
0
ARC
8
BLACK
10
78.725
20
-96.15
40
0.5
50
-180
51
-90
0
LINE
8
BLACK
6
CONTINUOUS
10
59.175
20
-83.15
11
59.175
21
-96.15
0
LINE
8
BLACK
6
CONTINUOUS
10
73.175
20
-96.15
11
73.175
21
-83.15
0
LINE
8
BLACK
6
CONTINUOUS
10
72.675
20
-82.65
11
59.675
21
-82.65
0
LINE
8
BLACK
6
CONTINUOUS
10
59.675
20
-96.65
11
72.675
21
-96.65
0
ARC
8
BLACK
10
59.675
20
-83.15
40
0.5
50
90
51
180
0
ARC
8
BLACK
10
72.675
20
-83.15
40
0.5
50
-0
51
90
0
ARC
8
BLACK
10
72.675
20
-96.15
40
0.5
50
-90
51
-0
0
ARC
8
BLACK
10
59.675
20
-96.15
40
0.5
50
-180
51
-90
0
LINE
8
BLACK
6
CONTINUOUS
10
40.125
20
-83.15
11
40.125
21
-96.15
0
LINE
8
BLACK
6
CONTINUOUS
10
54.125
20
-96.15
11
54.125
21
-83.15
0
LINE
8
BLACK
6
CONTINUOUS
10
53.625
20
-82.65
11
40.625
21
-82.65
0
LINE
8
BLACK
6
CONTINUOUS
10
40.625
20
-96.65
11
53.625
21
-96.65
0
ARC
8
BLACK
10
40.625
20
-83.15
40
0.5
50
90
51
180
0
ARC
8
BLACK
10
53.625
20
-83.15
40
0.5
50
-0
51
90
0
ARC
8
BLACK
10
53.625
20
-96.15
40
0.5
50
-90
51
-0
0
ARC
8
BLACK
10
40.625
20
-96.15
40
0.5
50
-180
51
-90
0
LINE
8
BLACK
6
CONTINUOUS
10
368.738
20
-54.575
11
368.738
21
-67.575
0
LINE
8
BLACK
6
CONTINUOUS
10
382.737
20
-67.575
11
382.737
21
-54.575
0
LINE
8
BLACK
6
CONTINUOUS
10
382.237
20
-54.075
11
369.238
21
-54.075
0
LINE
8
BLACK
6
CONTINUOUS
10
369.238
20
-68.075
11
382.237
21
-68.075
0
ARC
8
BLACK
10
369.238
20
-54.575
40
0.5
50
90
51
180
0
ARC
8
BLACK
10
382.237
20
-54.575
40
0.5
50
-0
51
90
0
ARC
8
BLACK
10
382.237
20
-67.575
40
0.5
50
-90
51
-0
0
ARC
8
BLACK
10
369.238
20
-67.575
40
0.5
50
-180
51
-90
0
LINE
8
BLACK
6
CONTINUOUS
10
349.688
20
-54.575
11
349.688
21
-67.575
0
LINE
8
BLACK
6
CONTINUOUS
10
363.688
20
-67.575
11
363.688
21
-54.575
0
LINE
8
BLACK
6
CONTINUOUS
10
363.188
20
-54.075
11
350.188
21
-54.075
0
LINE
8
BLACK
6
CONTINUOUS
10
350.188
20
-68.075
11
363.188
21
-68.075
0
ARC
8
BLACK
10
350.188
20
-54.575
40
0.5
50
90
51
180
0
ARC
8
BLACK
10
363.188
20
-54.575
40
0.5
50
-0
51
90
0
ARC
8
BLACK
10
363.188
20
-67.575
40
0.5
50
-90
51
-0
0
ARC
8
BLACK
10
350.188
20
-67.575
40
0.5
50
-180
51
-90
0
LINE
8
BLACK
6
CONTINUOUS
10
330.637
20
-54.575
11
330.637
21
-67.575
0
LINE
8
BLACK
6
CONTINUOUS
10
344.637
20
-67.575
11
344.637
21
-54.575
0
LINE
8
BLACK
6
CONTINUOUS
10
344.137
20
-54.075
11
331.137
21
-54.075
0
LINE
8
BLACK
6
CONTINUOUS
10
331.137
20
-68.075
11
344.137
21
-68.075
0
ARC
8
BLACK
10
331.137
20
-54.575
40
0.5
50
90
51
180
0
ARC
8
BLACK
10
344.137
20
-54.575
40
0.5
50
-0
51
90
0
ARC
8
BLACK
10
344.137
20
-67.575
40
0.5
50
-90
51
-0
0
ARC
8
BLACK
10
331.137
20
-67.575
40
0.5
50
-180
51
-90
0
LINE
8
BLACK
6
CONTINUOUS
10
306.825
20
-54.575
11
306.825
21
-67.575
0
LINE
8
BLACK
6
CONTINUOUS
10
320.825
20
-67.575
11
320.825
21
-54.575
0
LINE
8
BLACK
6
CONTINUOUS
10
320.325
20
-54.075
11
307.325
21
-54.075
0
LINE
8
BLACK
6
CONTINUOUS
10
307.325
20
-68.075
11
320.325
21
-68.075
0
ARC
8
BLACK
10
307.325
20
-54.575
40
0.5
50
90
51
180
0
ARC
8
BLACK
10
320.325
20
-54.575
40
0.5
50
-0
51
90
0
ARC
8
BLACK
10
320.325
20
-67.575
40
0.5
50
-90
51
-0
0
ARC
8
BLACK
10
307.325
20
-67.575
40
0.5
50
-180
51
-90
0
LINE
8
BLACK
6
CONTINUOUS
10
287.775
20
-54.575
11
287.775
21
-67.575
0
LINE
8
BLACK
6
CONTINUOUS
10
301.775
20
-67.575
11
301.775
21
-54.575
0
LINE
8
BLACK
6
CONTINUOUS
10
301.275
20
-54.075
11
288.275
21
-54.075
0
LINE
8
BLACK
6
CONTINUOUS
10
288.275
20
-68.075
11
301.275
21
-68.075
0
ARC
8
BLACK
10
288.275
20
-54.575
40
0.5
50
90
51
180
0
ARC
8
BLACK
10
301.275
20
-54.575
40
0.5
50
-0
51
90
0
ARC
8
BLACK
10
301.275
20
-67.575
40
0.5
50
-90
51
-0
0
ARC
8
BLACK
10
288.275
20
-67.575
40
0.5
50
-180
51
-90
0
LINE
8
BLACK
6
CONTINUOUS
10
268.725
20
-54.575
11
268.725
21
-67.575
0
LINE
8
BLACK
6
CONTINUOUS
10
282.725
20
-67.575
11
282.725
21
-54.575
0
LINE
8
BLACK
6
CONTINUOUS
10
282.225
20
-54.075
11
269.225
21
-54.075
0
LINE
8
BLACK
6
CONTINUOUS
10
269.225
20
-68.075
11
282.225
21
-68.075
0
ARC
8
BLACK
10
269.225
20
-54.575
40
0.5
50
90
51
180
0
ARC
8
BLACK
10
282.225
20
-54.575
40
0.5
50
-0
51
90
0
ARC
8
BLACK
10
282.225
20
-67.575
40
0.5
50
-90
51
-0
0
ARC
8
BLACK
10
269.225
20
-67.575
40
0.5
50
-180
51
-90
0
LINE
8
BLACK
6
CONTINUOUS
10
249.675
20
-54.575
11
249.675
21
-67.575
0
LINE
8
BLACK
6
CONTINUOUS
10
263.675
20
-67.575
11
263.675
21
-54.575
0
LINE
8
BLACK
6
CONTINUOUS
10
263.175
20
-54.075
11
250.175
21
-54.075
0
LINE
8
BLACK
6
CONTINUOUS
10
250.175
20
-68.075
11
263.175
21
-68.075
0
ARC
8
BLACK
10
250.175
20
-54.575
40
0.5
50
90
51
180
0
ARC
8
BLACK
10
263.175
20
-54.575
40
0.5
50
-0
51
90
0
ARC
8
BLACK
10
263.175
20
-67.575
40
0.5
50
-90
51
-0
0
ARC
8
BLACK
10
250.175
20
-67.575
40
0.5
50
-180
51
-90
0
LINE
8
BLACK
6
CONTINUOUS
10
221.1
20
-54.575
11
221.1
21
-67.575
0
LINE
8
BLACK
6
CONTINUOUS
10
235.1
20
-67.575
11
235.1
21
-54.575
0
LINE
8
BLACK
6
CONTINUOUS
10
234.6
20
-54.075
11
221.6
21
-54.075
0
LINE
8
BLACK
6
CONTINUOUS
10
221.6
20
-68.075
11
234.6
21
-68.075
0
ARC
8
BLACK
10
221.6
20
-54.575
40
0.5
50
90
51
180
0
ARC
8
BLACK
10
234.6
20
-54.575
40
0.5
50
-0
51
90
0
ARC
8
BLACK
10
234.6
20
-67.575
40
0.5
50
-90
51
-0
0
ARC
8
BLACK
10
221.6
20
-67.575
40
0.5
50
-180
51
-90
0
LINE
8
BLACK
6
CONTINUOUS
10
202.05
20
-54.575
11
202.05
21
-67.575
0
LINE
8
BLACK
6
CONTINUOUS
10
216.05
20
-67.575
11
216.05
21
-54.575
0
LINE
8
BLACK
6
CONTINUOUS
10
215.55
20
-54.075
11
202.55
21
-54.075
0
LINE
8
BLACK
6
CONTINUOUS
10
202.55
20
-68.075
11
215.55
21
-68.075
0
ARC
8
BLACK
10
202.55
20
-54.575
40
0.5
50
90
51
180
0
ARC
8
BLACK
10
215.55
20
-54.575
40
0.5
50
-0
51
90
0
ARC
8
BLACK
10
215.55
20
-67.575
40
0.5
50
-90
51
-0
0
ARC
8
BLACK
10
202.55
20
-67.575
40
0.5
50
-180
51
-90
0
LINE
8
BLACK
6
CONTINUOUS
10
183
20
-54.575
11
183
21
-67.575
0
LINE
8
BLACK
6
CONTINUOUS
10
197
20
-67.575
11
197
21
-54.575
0
LINE
8
BLACK
6
CONTINUOUS
10
196.5
20
-54.075
11
183.5
21
-54.075
0
LINE
8
BLACK
6
CONTINUOUS
10
183.5
20
-68.075
11
196.5
21
-68.075
0
ARC
8
BLACK
10
183.5
20
-54.575
40
0.5
50
90
51
180
0
ARC
8
BLACK
10
196.5
20
-54.575
40
0.5
50
-0
51
90
0
ARC
8
BLACK
10
196.5
20
-67.575
40
0.5
50
-90
51
-0
0
ARC
8
BLACK
10
183.5
20
-67.575
40
0.5
50
-180
51
-90
0
LINE
8
BLACK
6
CONTINUOUS
10
163.95
20
-54.575
11
163.95
21
-67.575
0
LINE
8
BLACK
6
CONTINUOUS
10
177.95
20
-67.575
11
177.95
21
-54.575
0
LINE
8
BLACK
6
CONTINUOUS
10
177.45
20
-54.075
11
164.45
21
-54.075
0
LINE
8
BLACK
6
CONTINUOUS
10
164.45
20
-68.075
11
177.45
21
-68.075
0
ARC
8
BLACK
10
164.45
20
-54.575
40
0.5
50
90
51
180
0
ARC
8
BLACK
10
177.45
20
-54.575
40
0.5
50
-0
51
90
0
ARC
8
BLACK
10
177.45
20
-67.575
40
0.5
50
-90
51
-0
0
ARC
8
BLACK
10
164.45
20
-67.575
40
0.5
50
-180
51
-90
0
LINE
8
BLACK
6
CONTINUOUS
10
135.375
20
-54.575
11
135.375
21
-67.575
0
LINE
8
BLACK
6
CONTINUOUS
10
149.375
20
-67.575
11
149.375
21
-54.575
0
LINE
8
BLACK
6
CONTINUOUS
10
148.875
20
-54.075
11
135.875
21
-54.075
0
LINE
8
BLACK
6
CONTINUOUS
10
135.875
20
-68.075
11
148.875
21
-68.075
0
ARC
8
BLACK
10
135.875
20
-54.575
40
0.5
50
90
51
180
0
ARC
8
BLACK
10
148.875
20
-54.575
40
0.5
50
-0
51
90
0
ARC
8
BLACK
10
148.875
20
-67.575
40
0.5
50
-90
51
-0
0
ARC
8
BLACK
10
135.875
20
-67.575
40
0.5
50
-180
51
-90
0
LINE
8
BLACK
6
CONTINUOUS
10
116.325
20
-54.575
11
116.325
21
-67.575
0
LINE
8
BLACK
6
CONTINUOUS
10
130.325
20
-67.575
11
130.325
21
-54.575
0
LINE
8
BLACK
6
CONTINUOUS
10
129.825
20
-54.075
11
116.825
21
-54.075
0
LINE
8
BLACK
6
CONTINUOUS
10
116.825
20
-68.075
11
129.825
21
-68.075
0
ARC
8
BLACK
10
116.825
20
-54.575
40
0.5
50
90
51
180
0
ARC
8
BLACK
10
129.825
20
-54.575
40
0.5
50
-0
51
90
0
ARC
8
BLACK
10
129.825
20
-67.575
40
0.5
50
-90
51
-0
0
ARC
8
BLACK
10
116.825
20
-67.575
40
0.5
50
-180
51
-90
0
LINE
8
BLACK
6
CONTINUOUS
10
97.275
20
-54.575
11
97.275
21
-67.575
0
LINE
8
BLACK
6
CONTINUOUS
10
111.275
20
-67.575
11
111.275
21
-54.575
0
LINE
8
BLACK
6
CONTINUOUS
10
110.775
20
-54.075
11
97.775
21
-54.075
0
LINE
8
BLACK
6
CONTINUOUS
10
97.775
20
-68.075
11
110.775
21
-68.075
0
ARC
8
BLACK
10
97.775
20
-54.575
40
0.5
50
90
51
180
0
ARC
8
BLACK
10
110.775
20
-54.575
40
0.5
50
-0
51
90
0
ARC
8
BLACK
10
110.775
20
-67.575
40
0.5
50
-90
51
-0
0
ARC
8
BLACK
10
97.775
20
-67.575
40
0.5
50
-180
51
-90
0
LINE
8
BLACK
6
CONTINUOUS
10
78.225
20
-54.575
11
78.225
21
-67.575
0
LINE
8
BLACK
6
CONTINUOUS
10
92.225
20
-67.575
11
92.225
21
-54.575
0
LINE
8
BLACK
6
CONTINUOUS
10
91.725
20
-54.075
11
78.725
21
-54.075
0
LINE
8
BLACK
6
CONTINUOUS
10
78.725
20
-68.075
11
91.725
21
-68.075
0
ARC
8
BLACK
10
78.725
20
-54.575
40
0.5
50
90
51
180
0
ARC
8
BLACK
10
91.725
20
-54.575
40
0.5
50
-0
51
90
0
ARC
8
BLACK
10
91.725
20
-67.575
40
0.5
50
-90
51
-0
0
ARC
8
BLACK
10
78.725
20
-67.575
40
0.5
50
-180
51
-90
0
LINE
8
BLACK
6
CONTINUOUS
10
40.125
20
-54.575
11
40.125
21
-67.575
0
LINE
8
BLACK
6
CONTINUOUS
10
54.125
20
-67.575
11
54.125
21
-54.575
0
LINE
8
BLACK
6
CONTINUOUS
10
53.625
20
-54.075
11
40.625
21
-54.075
0
LINE
8
BLACK
6
CONTINUOUS
10
40.625
20
-68.075
11
53.625
21
-68.075
0
ARC
8
BLACK
10
40.625
20
-54.575
40
0.5
50
90
51
180
0
ARC
8
BLACK
10
53.625
20
-54.575
40
0.5
50
-0
51
90
0
ARC
8
BLACK
10
53.625
20
-67.575
40
0.5
50
-90
51
-0
0
ARC
8
BLACK
10
40.625
20
-67.575
40
0.5
50
-180
51
-90
0
CIRCLE
8
BLACK
10
35
20
-54
40
1.2
0
ARC
8
BLACK
10
469.6
20
-54.3
40
3
50
-0
51
90
0
CIRCLE
8
BLACK
10
325
20
-73.5
40
1.2
0
LINE
8
BLACK
6
CONTINUOUS
10
35.3
20
-176.1
11
469.6
21
-176.1
0
CIRCLE
8
BLACK
10
35
20
-118
40
1.2
0
ARC
8
BLACK
10
35.3
20
-54.3
40
3
50
90
51
180
0
CIRCLE
8
BLACK
10
469.4
20
-173.5
40
1.2
0
CIRCLE
8
BLACK
10
180.5
20
-117.5
40
1.2
0
LINE
8
BLACK
6
CONTINUOUS
10
390.397
20
-51.3
11
399.803
21
-51.3
0
CIRCLE
8
BLACK
10
35
20
-173.5
40
1.2
0
LINE
8
BLACK
6
CONTINUOUS
10
472.6
20
-173.1
11
472.6
21
-54.3
0
CIRCLE
8
BLACK
10
180
20
-73.5
40
1.2
0
ARC
8
BLACK
10
469.6
20
-173.1
40
3
50
-90
51
-0
0
CIRCLE
8
BLACK
10
325
20
-117.5
40
1.2
0
CIRCLE
8
BLACK
10
180
20
-157.4
40
1.2
0
LINE
8
BLACK
6
CONTINUOUS
10
390.397
20
-51.3
11
35.3
21
-51.3
0
LINE
8
BLACK
6
CONTINUOUS
10
32.3
20
-54.3
11
32.3
21
-173.1
0
LINE
8
BLACK
6
CONTINUOUS
10
469.6
20
-51.3
11
399.803
21
-51.3
0
CIRCLE
8
BLACK
10
469.4
20
-54
40
1.2
0
CIRCLE
8
BLACK
10
325
20
-156.4
40
1.2
0
ARC
8
BLACK
10
35.3
20
-173.1
40
3
50
-180
51
-90
0
CIRCLE
8
BLACK
10
469.4
20
-118
40
1.2
  0
ENDSEC
  0
EOF
