  0
SECTION
  2
HEADER
  9
$ANGBASE
  50
0.0
  9
$ANGDIR
  70
1
  9
$MEASUREMENT
  70
1
  0
ENDSEC
  0
SECTION
  2
TABLES
  0
TABLE
  2
LTYPE
  70
4
  0
LTYPE
  5
40F
  2
CONTINUOUS
  70
0
  3
Solid line
  72
65
  73
0
  40
0.0
  0
LTYPE
  5
410
  2
DASHDOT
 70
0
  3
Dash Dot ____ _ ____ _
 72
65
 73
4
 40
2.0
 49
1.25
 49
-0.25
 49
0.25
 49
-0.25
  0
LTYPE
  5
411
  2
DASHED
 70
0
  3
Dashed __ __ __ __ __
 72
65
 73
2
 40
0.75
 49
0.5
 49
-0.25
  0
LTYPE
  5
43B
  2
DOTTED
 70
0
  3
Dotted .  .  .  .
 72
65
 73
2
 40
0.2
 49
0.0
 49
-0.2
  0
ENDTAB
  0
TABLE
  2
STYLE
  70
4
  0
STYLE
  2
KICAD
  70
0
  40
0
  41
1
  42
1
  50
0
  71
0
  3
isocp.shx
  0
STYLE
  2
KICADB
  70
0
  40
0
  41
1
  42
1
  50
0
  71
0
  3
isocp.shx
  0
STYLE
  2
KICADI
  70
0
  40
0
  41
1
  42
1
  50
15
  71
0
  3
isocp.shx
  0
STYLE
  2
KICADBI
  70
0
  40
0
  41
1
  42
1
  50
15
  71
0
  3
isocp.shx
  0
ENDTAB
  0
TABLE
  2
LAYER
  70
1
  0
LAYER
  2
BLACK
  70
0
  62
7
  6
CONTINUOUS
  0
ENDTAB
  0
ENDSEC
  0
SECTION
  2
ENTITIES
0
ARC
8
BLACK
10
434.132
20
-243.85
40
0.5
50
-90
51
-0
0
ARC
8
BLACK
10
465.145
20
-228.85
40
0.5
50
90
51
180
0
LINE
8
BLACK
6
CONTINUOUS
10
434.632
20
-229.85
11
434.632
21
-243.85
0
ARC
8
BLACK
10
458.008
20
-229.85
40
0.5
50
-0
51
90
0
ARC
8
BLACK
10
452.008
20
-229.85
40
0.5
50
90
51
180
0
LINE
8
BLACK
6
CONTINUOUS
10
451.508
20
-229.85
11
451.508
21
-243.85
0
ARC
8
BLACK
10
478.145
20
-241.85
40
0.5
50
-90
51
-0
0
ARC
8
BLACK
10
458.008
20
-243.85
40
0.5
50
-90
51
-0
0
ARC
8
BLACK
10
449.57
20
-228.85
40
0.5
50
-0
51
90
0
ARC
8
BLACK
10
436.57
20
-241.85
40
0.5
50
180
51
270
0
ARC
8
BLACK
10
428.132
20
-243.85
40
0.5
50
180
51
270
0
ARC
8
BLACK
10
436.57
20
-228.85
40
0.5
50
90
51
180
0
LINE
8
BLACK
6
CONTINUOUS
10
465.145
20
-228.35
11
478.145
21
-228.35
0
ARC
8
BLACK
10
428.132
20
-229.85
40
0.5
50
90
51
180
0
LINE
8
BLACK
6
CONTINUOUS
10
452.008
20
-229.35
11
458.008
21
-229.35
0
LINE
8
BLACK
6
CONTINUOUS
10
465.145
20
-242.35
11
478.145
21
-242.35
0
LINE
8
BLACK
6
CONTINUOUS
10
478.645
20
-228.85
11
478.645
21
-241.85
0
LINE
8
BLACK
6
CONTINUOUS
10
427.632
20
-229.85
11
427.632
21
-243.85
0
LINE
8
BLACK
6
CONTINUOUS
10
458.508
20
-229.85
11
458.508
21
-243.85
0
LINE
8
BLACK
6
CONTINUOUS
10
464.645
20
-228.85
11
464.645
21
-241.85
0
ARC
8
BLACK
10
478.145
20
-228.85
40
0.5
50
-0
51
90
0
LINE
8
BLACK
6
CONTINUOUS
10
452.008
20
-244.35
11
458.008
21
-244.35
0
ARC
8
BLACK
10
434.132
20
-229.85
40
0.5
50
-0
51
90
0
LINE
8
BLACK
6
CONTINUOUS
10
428.132
20
-229.35
11
434.132
21
-229.35
0
ARC
8
BLACK
10
465.145
20
-241.85
40
0.5
50
180
51
270
0
ARC
8
BLACK
10
452.008
20
-243.85
40
0.5
50
180
51
270
0
ARC
8
BLACK
10
449.57
20
-241.85
40
0.5
50
-90
51
-0
0
LINE
8
BLACK
6
CONTINUOUS
10
428.132
20
-244.35
11
434.132
21
-244.35
0
LINE
8
BLACK
6
CONTINUOUS
10
384.183
20
-228.35
11
397.183
21
-228.35
0
ARC
8
BLACK
10
280.501
20
-228.85
40
0.5
50
-0
51
90
0
LINE
8
BLACK
6
CONTINUOUS
10
314.626
20
-228.85
11
314.626
21
-241.85
0
LINE
8
BLACK
6
CONTINUOUS
10
450.07
20
-228.85
11
450.07
21
-241.85
0
LINE
8
BLACK
6
CONTINUOUS
10
436.07
20
-228.85
11
436.07
21
-241.85
0
LINE
8
BLACK
6
CONTINUOUS
10
436.57
20
-242.35
11
449.57
21
-242.35
0
LINE
8
BLACK
6
CONTINUOUS
10
436.57
20
-228.35
11
449.57
21
-228.35
0
LINE
8
BLACK
6
CONTINUOUS
10
338.439
20
-228.85
11
338.439
21
-241.85
0
ARC
8
BLACK
10
416.232
20
-241.85
40
0.5
50
-90
51
-0
0
ARC
8
BLACK
10
403.232
20
-241.85
40
0.5
50
180
51
270
0
ARC
8
BLACK
10
378.132
20
-228.85
40
0.5
50
-0
51
90
0
LINE
8
BLACK
6
CONTINUOUS
10
267.001
20
-228.85
11
267.001
21
-241.85
0
ARC
8
BLACK
10
416.232
20
-228.85
40
0.5
50
-0
51
90
0
ARC
8
BLACK
10
403.232
20
-228.85
40
0.5
50
90
51
180
0
LINE
8
BLACK
6
CONTINUOUS
10
416.732
20
-228.85
11
416.732
21
-241.85
0
ARC
8
BLACK
10
315.126
20
-228.85
40
0.5
50
90
51
180
0
LINE
8
BLACK
6
CONTINUOUS
10
402.732
20
-228.85
11
402.732
21
-241.85
0
LINE
8
BLACK
6
CONTINUOUS
10
403.232
20
-228.35
11
416.232
21
-228.35
0
ARC
8
BLACK
10
328.126
20
-241.85
40
0.5
50
-90
51
-0
0
LINE
8
BLACK
6
CONTINUOUS
10
315.126
20
-242.35
11
328.126
21
-242.35
0
LINE
8
BLACK
6
CONTINUOUS
10
378.632
20
-228.85
11
378.632
21
-241.85
0
LINE
8
BLACK
6
CONTINUOUS
10
365.132
20
-242.35
11
378.132
21
-242.35
0
ARC
8
BLACK
10
304.314
20
-228.85
40
0.5
50
-0
51
90
0
ARC
8
BLACK
10
149.564
20
-243.85
40
0.5
50
180
51
270
0
LINE
8
BLACK
6
CONTINUOUS
10
352.439
20
-228.85
11
352.439
21
-241.85
0
LINE
8
BLACK
6
CONTINUOUS
10
267.501
20
-228.35
11
280.501
21
-228.35
0
ARC
8
BLACK
10
384.183
20
-228.85
40
0.5
50
90
51
180
0
LINE
8
BLACK
6
CONTINUOUS
10
384.183
20
-242.35
11
397.183
21
-242.35
0
LINE
8
BLACK
6
CONTINUOUS
10
315.126
20
-228.35
11
328.126
21
-228.35
0
ARC
8
BLACK
10
267.501
20
-241.85
40
0.5
50
180
51
270
0
LINE
8
BLACK
6
CONTINUOUS
10
291.314
20
-242.35
11
304.314
21
-242.35
0
ARC
8
BLACK
10
397.183
20
-241.85
40
0.5
50
-90
51
-0
0
ARC
8
BLACK
10
338.939
20
-241.85
40
0.5
50
180
51
270
0
ARC
8
BLACK
10
291.314
20
-228.85
40
0.5
50
90
51
180
0
LINE
8
BLACK
6
CONTINUOUS
10
328.626
20
-228.85
11
328.626
21
-241.85
0
ARC
8
BLACK
10
304.314
20
-241.85
40
0.5
50
-90
51
-0
0
LINE
8
BLACK
6
CONTINUOUS
10
403.232
20
-242.35
11
416.232
21
-242.35
0
ARC
8
BLACK
10
378.132
20
-241.85
40
0.5
50
-90
51
-0
0
ARC
8
BLACK
10
267.501
20
-228.85
40
0.5
50
90
51
180
0
ARC
8
BLACK
10
384.183
20
-241.85
40
0.5
50
180
51
270
0
ARC
8
BLACK
10
365.132
20
-241.85
40
0.5
50
180
51
270
0
ARC
8
BLACK
10
291.314
20
-241.85
40
0.5
50
180
51
270
0
ARC
8
BLACK
10
365.132
20
-228.85
40
0.5
50
90
51
180
0
ARC
8
BLACK
10
351.939
20
-228.85
40
0.5
50
-0
51
90
0
LINE
8
BLACK
6
CONTINUOUS
10
281.001
20
-228.85
11
281.001
21
-241.85
0
LINE
8
BLACK
6
CONTINUOUS
10
267.501
20
-242.35
11
280.501
21
-242.35
0
LINE
8
BLACK
6
CONTINUOUS
10
338.939
20
-242.35
11
351.939
21
-242.35
0
ARC
8
BLACK
10
328.126
20
-228.85
40
0.5
50
-0
51
90
0
ARC
8
BLACK
10
397.183
20
-228.85
40
0.5
50
-0
51
90
0
LINE
8
BLACK
6
CONTINUOUS
10
365.132
20
-228.35
11
378.132
21
-228.35
0
ARC
8
BLACK
10
155.564
20
-229.85
40
0.5
50
-0
51
90
0
LINE
8
BLACK
6
CONTINUOUS
10
397.683
20
-228.85
11
397.683
21
-241.85
0
LINE
8
BLACK
6
CONTINUOUS
10
383.683
20
-228.85
11
383.683
21
-241.85
0
LINE
8
BLACK
6
CONTINUOUS
10
364.632
20
-228.85
11
364.632
21
-241.85
0
ARC
8
BLACK
10
315.126
20
-241.85
40
0.5
50
180
51
270
0
ARC
8
BLACK
10
280.501
20
-241.85
40
0.5
50
-90
51
-0
0
LINE
8
BLACK
6
CONTINUOUS
10
290.814
20
-228.85
11
290.814
21
-241.85
0
ARC
8
BLACK
10
351.939
20
-241.85
40
0.5
50
-90
51
-0
0
LINE
8
BLACK
6
CONTINUOUS
10
338.939
20
-228.35
11
351.939
21
-228.35
0
ARC
8
BLACK
10
155.564
20
-243.85
40
0.5
50
-90
51
-0
0
LINE
8
BLACK
6
CONTINUOUS
10
291.314
20
-228.35
11
304.314
21
-228.35
0
LINE
8
BLACK
6
CONTINUOUS
10
304.814
20
-228.85
11
304.814
21
-241.85
0
ARC
8
BLACK
10
338.939
20
-228.85
40
0.5
50
90
51
180
0
ARC
8
BLACK
10
149.564
20
-229.85
40
0.5
50
90
51
180
0
LINE
8
BLACK
6
CONTINUOUS
10
249.564
20
-244.35
11
255.564
21
-244.35
0
ARC
8
BLACK
10
497.195
20
-232.325
40
0.5
50
-90
51
-0
0
ARC
8
BLACK
10
113.814
20
-241.85
40
0.5
50
-90
51
-0
0
LINE
8
BLACK
6
CONTINUOUS
10
196.064
20
-242.35
11
209.064
21
-242.35
0
LINE
8
BLACK
6
CONTINUOUS
10
481.695
20
-210.887
11
481.695
21
-216.887
0
LINE
8
BLACK
6
CONTINUOUS
10
90.5012
20
-228.85
11
90.5012
21
-241.85
0
ARC
8
BLACK
10
196.064
20
-228.85
40
0.5
50
90
51
180
0
ARC
8
BLACK
10
137.626
20
-228.85
40
0.5
50
-0
51
90
0
LINE
8
BLACK
6
CONTINUOUS
10
124.126
20
-228.85
11
124.126
21
-241.85
0
LINE
8
BLACK
6
CONTINUOUS
10
124.626
20
-242.35
11
137.626
21
-242.35
0
LINE
8
BLACK
6
CONTINUOUS
10
496.195
20
-234.263
11
482.195
21
-234.263
0
LINE
8
BLACK
6
CONTINUOUS
10
100.814
20
-228.35
11
113.814
21
-228.35
0
LINE
8
BLACK
6
CONTINUOUS
10
496.695
20
-210.887
11
496.695
21
-216.887
0
ARC
8
BLACK
10
496.195
20
-234.763
40
0.5
50
-0
51
90
0
LINE
8
BLACK
6
CONTINUOUS
10
100.814
20
-242.35
11
113.814
21
-242.35
0
ARC
8
BLACK
10
482.195
20
-240.763
40
0.5
50
180
51
270
0
LINE
8
BLACK
6
CONTINUOUS
10
156.064
20
-229.85
11
156.064
21
-243.85
0
LINE
8
BLACK
6
CONTINUOUS
10
496.195
20
-241.263
11
482.195
21
-241.263
0
ARC
8
BLACK
10
249.564
20
-229.85
40
0.5
50
90
51
180
0
LINE
8
BLACK
6
CONTINUOUS
10
149.564
20
-229.35
11
155.564
21
-229.35
0
ARC
8
BLACK
10
209.064
20
-228.85
40
0.5
50
-0
51
90
0
ARC
8
BLACK
10
137.626
20
-241.85
40
0.5
50
-90
51
-0
0
LINE
8
BLACK
6
CONTINUOUS
10
138.126
20
-228.85
11
138.126
21
-241.85
0
LINE
8
BLACK
6
CONTINUOUS
10
195.564
20
-228.85
11
195.564
21
-241.85
0
LINE
8
BLACK
6
CONTINUOUS
10
496.195
20
-217.387
11
482.195
21
-217.387
0
LINE
8
BLACK
6
CONTINUOUS
10
77.0012
20
-242.35
11
90.0012
21
-242.35
0
LINE
8
BLACK
6
CONTINUOUS
10
496.695
20
-234.763
11
496.695
21
-240.763
0
ARC
8
BLACK
10
100.814
20
-228.85
40
0.5
50
90
51
180
0
ARC
8
BLACK
10
496.195
20
-240.763
40
0.5
50
-90
51
-0
0
ARC
8
BLACK
10
100.814
20
-241.85
40
0.5
50
180
51
270
0
LINE
8
BLACK
6
CONTINUOUS
10
149.064
20
-229.85
11
149.064
21
-243.85
0
ARC
8
BLACK
10
497.195
20
-219.325
40
0.5
50
-0
51
90
0
ARC
8
BLACK
10
249.564
20
-243.85
40
0.5
50
180
51
270
0
ARC
8
BLACK
10
209.064
20
-241.85
40
0.5
50
-90
51
-0
0
LINE
8
BLACK
6
CONTINUOUS
10
249.564
20
-229.35
11
255.564
21
-229.35
0
ARC
8
BLACK
10
90.0012
20
-241.85
40
0.5
50
-90
51
-0
0
LINE
8
BLACK
6
CONTINUOUS
10
481.695
20
-234.763
11
481.695
21
-240.763
0
ARC
8
BLACK
10
255.564
20
-229.85
40
0.5
50
-0
51
90
0
LINE
8
BLACK
6
CONTINUOUS
10
256.064
20
-229.85
11
256.064
21
-243.85
0
LINE
8
BLACK
6
CONTINUOUS
10
249.064
20
-229.85
11
249.064
21
-243.85
0
ARC
8
BLACK
10
196.064
20
-241.85
40
0.5
50
180
51
270
0
LINE
8
BLACK
6
CONTINUOUS
10
196.064
20
-228.35
11
209.064
21
-228.35
0
LINE
8
BLACK
6
CONTINUOUS
10
209.564
20
-228.85
11
209.564
21
-241.85
0
ARC
8
BLACK
10
482.195
20
-210.887
40
0.5
50
90
51
180
0
LINE
8
BLACK
6
CONTINUOUS
10
100.314
20
-228.85
11
100.314
21
-241.85
0
ARC
8
BLACK
10
77.0012
20
-241.85
40
0.5
50
180
51
270
0
LINE
8
BLACK
6
CONTINUOUS
10
76.5012
20
-228.85
11
76.5012
21
-241.85
0
ARC
8
BLACK
10
482.195
20
-216.887
40
0.5
50
180
51
270
0
ARC
8
BLACK
10
484.195
20
-219.325
40
0.5
50
90
51
180
0
ARC
8
BLACK
10
124.626
20
-241.85
40
0.5
50
180
51
270
0
ARC
8
BLACK
10
496.195
20
-210.887
40
0.5
50
-0
51
90
0
ARC
8
BLACK
10
124.626
20
-228.85
40
0.5
50
90
51
180
0
ARC
8
BLACK
10
90.0012
20
-228.85
40
0.5
50
-0
51
90
0
LINE
8
BLACK
6
CONTINUOUS
10
114.314
20
-228.85
11
114.314
21
-241.85
0
LINE
8
BLACK
6
CONTINUOUS
10
496.195
20
-210.387
11
482.195
21
-210.387
0
LINE
8
BLACK
6
CONTINUOUS
10
124.626
20
-228.35
11
137.626
21
-228.35
0
ARC
8
BLACK
10
77.0012
20
-228.85
40
0.5
50
90
51
180
0
ARC
8
BLACK
10
484.195
20
-232.325
40
0.5
50
180
51
270
0
ARC
8
BLACK
10
113.814
20
-228.85
40
0.5
50
-0
51
90
0
ARC
8
BLACK
10
496.195
20
-216.887
40
0.5
50
-90
51
-0
0
ARC
8
BLACK
10
482.195
20
-234.763
40
0.5
50
90
51
180
0
LINE
8
BLACK
6
CONTINUOUS
10
77.0012
20
-228.35
11
90.0012
21
-228.35
0
LINE
8
BLACK
6
CONTINUOUS
10
149.564
20
-244.35
11
155.564
21
-244.35
0
ARC
8
BLACK
10
255.564
20
-243.85
40
0.5
50
-90
51
-0
0
ARC
8
BLACK
10
322.213
20
-210.8
40
0.5
50
-0
51
90
0
LINE
8
BLACK
6
CONTINUOUS
10
459.595
20
-209.8
11
459.595
21
-222.8
0
ARC
8
BLACK
10
324.651
20
-209.8
40
0.5
50
90
51
180
0
LINE
8
BLACK
6
CONTINUOUS
10
446.095
20
-223.3
11
459.095
21
-223.3
0
LINE
8
BLACK
6
CONTINUOUS
10
446.095
20
-209.3
11
459.095
21
-209.3
0
ARC
8
BLACK
10
427.045
20
-209.8
40
0.5
50
90
51
180
0
LINE
8
BLACK
6
CONTINUOUS
10
426.545
20
-209.8
11
426.545
21
-222.8
0
LINE
8
BLACK
6
CONTINUOUS
10
427.045
20
-223.3
11
440.045
21
-223.3
0
LINE
8
BLACK
6
CONTINUOUS
10
322.713
20
-210.8
11
322.713
21
-224.8
0
ARC
8
BLACK
10
397.183
20
-222.8
40
0.5
50
-90
51
-0
0
LINE
8
BLACK
6
CONTINUOUS
10
397.683
20
-209.8
11
397.683
21
-222.8
0
LINE
8
BLACK
6
CONTINUOUS
10
383.683
20
-209.8
11
383.683
21
-222.8
0
LINE
8
BLACK
6
CONTINUOUS
10
384.183
20
-209.3
11
397.183
21
-209.3
0
ARC
8
BLACK
10
316.213
20
-210.8
40
0.5
50
90
51
180
0
LINE
8
BLACK
6
CONTINUOUS
10
316.213
20
-225.3
11
322.213
21
-225.3
0
ARC
8
BLACK
10
322.213
20
-224.8
40
0.5
50
-90
51
-0
0
LINE
8
BLACK
6
CONTINUOUS
10
339.589
20
-210.8
11
339.589
21
-224.8
0
ARC
8
BLACK
10
346.089
20
-210.8
40
0.5
50
-0
51
90
0
ARC
8
BLACK
10
340.089
20
-210.8
40
0.5
50
90
51
180
0
LINE
8
BLACK
6
CONTINUOUS
10
338.151
20
-209.8
11
338.151
21
-222.8
0
LINE
8
BLACK
6
CONTINUOUS
10
384.183
20
-223.3
11
397.183
21
-223.3
0
LINE
8
BLACK
6
CONTINUOUS
10
346.589
20
-210.8
11
346.589
21
-224.8
0
ARC
8
BLACK
10
397.183
20
-209.8
40
0.5
50
-0
51
90
0
ARC
8
BLACK
10
301.933
20
-222.8
40
0.5
50
-90
51
-0
0
ARC
8
BLACK
10
337.651
20
-209.8
40
0.5
50
-0
51
90
0
ARC
8
BLACK
10
346.089
20
-224.8
40
0.5
50
-90
51
-0
0
ARC
8
BLACK
10
324.651
20
-222.8
40
0.5
50
180
51
270
0
LINE
8
BLACK
6
CONTINUOUS
10
497.195
20
-232.825
11
484.195
21
-232.825
0
LINE
8
BLACK
6
CONTINUOUS
10
497.195
20
-218.825
11
484.195
21
-218.825
0
LINE
8
BLACK
6
CONTINUOUS
10
324.151
20
-209.8
11
324.151
21
-222.8
0
LINE
8
BLACK
6
CONTINUOUS
10
483.695
20
-219.325
11
483.695
21
-232.325
0
ARC
8
BLACK
10
446.095
20
-222.8
40
0.5
50
180
51
270
0
LINE
8
BLACK
6
CONTINUOUS
10
465.145
20
-209.3
11
478.145
21
-209.3
0
ARC
8
BLACK
10
288.933
20
-222.8
40
0.5
50
180
51
270
0
LINE
8
BLACK
6
CONTINUOUS
10
497.695
20
-219.325
11
497.695
21
-232.325
0
LINE
8
BLACK
6
CONTINUOUS
10
324.651
20
-223.3
11
337.651
21
-223.3
0
ARC
8
BLACK
10
478.145
20
-222.8
40
0.5
50
-90
51
-0
0
ARC
8
BLACK
10
465.145
20
-222.8
40
0.5
50
180
51
270
0
ARC
8
BLACK
10
440.045
20
-222.8
40
0.5
50
-90
51
-0
0
LINE
8
BLACK
6
CONTINUOUS
10
427.045
20
-209.3
11
440.045
21
-209.3
0
LINE
8
BLACK
6
CONTINUOUS
10
315.713
20
-210.8
11
315.713
21
-224.8
0
LINE
8
BLACK
6
CONTINUOUS
10
324.651
20
-209.3
11
337.651
21
-209.3
0
ARC
8
BLACK
10
478.145
20
-209.8
40
0.5
50
-0
51
90
0
LINE
8
BLACK
6
CONTINUOUS
10
340.089
20
-225.3
11
346.089
21
-225.3
0
ARC
8
BLACK
10
465.145
20
-209.8
40
0.5
50
90
51
180
0
ARC
8
BLACK
10
459.095
20
-222.8
40
0.5
50
-90
51
-0
0
LINE
8
BLACK
6
CONTINUOUS
10
478.645
20
-209.8
11
478.645
21
-222.8
0
LINE
8
BLACK
6
CONTINUOUS
10
464.645
20
-209.8
11
464.645
21
-222.8
0
LINE
8
BLACK
6
CONTINUOUS
10
465.145
20
-223.3
11
478.145
21
-223.3
0
LINE
8
BLACK
6
CONTINUOUS
10
445.595
20
-209.8
11
445.595
21
-222.8
0
ARC
8
BLACK
10
384.183
20
-222.8
40
0.5
50
180
51
270
0
ARC
8
BLACK
10
337.651
20
-222.8
40
0.5
50
-90
51
-0
0
LINE
8
BLACK
6
CONTINUOUS
10
316.213
20
-210.3
11
322.213
21
-210.3
0
ARC
8
BLACK
10
316.213
20
-224.8
40
0.5
50
180
51
270
0
ARC
8
BLACK
10
440.045
20
-209.8
40
0.5
50
-0
51
90
0
ARC
8
BLACK
10
459.095
20
-209.8
40
0.5
50
-0
51
90
0
ARC
8
BLACK
10
288.933
20
-209.8
40
0.5
50
90
51
180
0
ARC
8
BLACK
10
446.095
20
-209.8
40
0.5
50
90
51
180
0
LINE
8
BLACK
6
CONTINUOUS
10
340.089
20
-210.3
11
346.089
21
-210.3
0
LINE
8
BLACK
6
CONTINUOUS
10
440.545
20
-209.8
11
440.545
21
-222.8
0
ARC
8
BLACK
10
384.183
20
-209.8
40
0.5
50
90
51
180
0
ARC
8
BLACK
10
301.933
20
-209.8
40
0.5
50
-0
51
90
0
ARC
8
BLACK
10
340.089
20
-224.8
40
0.5
50
180
51
270
0
ARC
8
BLACK
10
427.045
20
-222.8
40
0.5
50
180
51
270
0
LINE
8
BLACK
6
CONTINUOUS
10
302.433
20
-209.8
11
302.433
21
-222.8
0
ARC
8
BLACK
10
282.882
20
-222.8
40
0.5
50
-90
51
-0
0
LINE
8
BLACK
6
CONTINUOUS
10
193.683
20
-223.3
11
206.683
21
-223.3
0
LINE
8
BLACK
6
CONTINUOUS
10
288.433
20
-209.8
11
288.433
21
-222.8
0
LINE
8
BLACK
6
CONTINUOUS
10
226.232
20
-209.8
11
226.232
21
-222.8
0
ARC
8
BLACK
10
168.582
20
-209.8
40
0.5
50
-0
51
90
0
LINE
8
BLACK
6
CONTINUOUS
10
288.933
20
-223.3
11
301.933
21
-223.3
0
LINE
8
BLACK
6
CONTINUOUS
10
250.832
20
-223.3
11
263.832
21
-223.3
0
ARC
8
BLACK
10
269.882
20
-209.8
40
0.5
50
90
51
180
0
LINE
8
BLACK
6
CONTINUOUS
10
245.282
20
-209.8
11
245.282
21
-222.8
0
ARC
8
BLACK
10
206.683
20
-222.8
40
0.5
50
-90
51
-0
0
ARC
8
BLACK
10
212.732
20
-222.8
40
0.5
50
180
51
270
0
LINE
8
BLACK
6
CONTINUOUS
10
174.132
20
-209.8
11
174.132
21
-222.8
0
ARC
8
BLACK
10
193.683
20
-209.8
40
0.5
50
90
51
180
0
LINE
8
BLACK
6
CONTINUOUS
10
188.132
20
-209.8
11
188.132
21
-222.8
0
LINE
8
BLACK
6
CONTINUOUS
10
207.183
20
-209.8
11
207.183
21
-222.8
0
LINE
8
BLACK
6
CONTINUOUS
10
288.933
20
-209.3
11
301.933
21
-209.3
0
LINE
8
BLACK
6
CONTINUOUS
10
269.382
20
-209.8
11
269.382
21
-222.8
0
ARC
8
BLACK
10
231.782
20
-222.8
40
0.5
50
180
51
270
0
LINE
8
BLACK
6
CONTINUOUS
10
269.882
20
-209.3
11
282.882
21
-209.3
0
LINE
8
BLACK
6
CONTINUOUS
10
250.332
20
-209.8
11
250.332
21
-222.8
0
LINE
8
BLACK
6
CONTINUOUS
10
212.732
20
-223.3
11
225.732
21
-223.3
0
ARC
8
BLACK
10
206.683
20
-209.8
40
0.5
50
-0
51
90
0
ARC
8
BLACK
10
225.732
20
-222.8
40
0.5
50
-90
51
-0
0
ARC
8
BLACK
10
149.532
20
-209.8
40
0.5
50
-0
51
90
0
ARC
8
BLACK
10
212.732
20
-209.8
40
0.5
50
90
51
180
0
LINE
8
BLACK
6
CONTINUOUS
10
169.082
20
-209.8
11
169.082
21
-222.8
0
ARC
8
BLACK
10
174.632
20
-222.8
40
0.5
50
180
51
270
0
ARC
8
BLACK
10
269.882
20
-222.8
40
0.5
50
180
51
270
0
LINE
8
BLACK
6
CONTINUOUS
10
193.683
20
-209.3
11
206.683
21
-209.3
0
ARC
8
BLACK
10
282.882
20
-209.8
40
0.5
50
-0
51
90
0
LINE
8
BLACK
6
CONTINUOUS
10
283.382
20
-209.8
11
283.382
21
-222.8
0
ARC
8
BLACK
10
263.832
20
-209.8
40
0.5
50
-0
51
90
0
LINE
8
BLACK
6
CONTINUOUS
10
231.782
20
-223.3
11
244.782
21
-223.3
0
LINE
8
BLACK
6
CONTINUOUS
10
231.282
20
-209.8
11
231.282
21
-222.8
0
LINE
8
BLACK
6
CONTINUOUS
10
174.632
20
-223.3
11
187.632
21
-223.3
0
LINE
8
BLACK
6
CONTINUOUS
10
269.882
20
-223.3
11
282.882
21
-223.3
0
ARC
8
BLACK
10
263.832
20
-222.8
40
0.5
50
-90
51
-0
0
ARC
8
BLACK
10
250.832
20
-209.8
40
0.5
50
90
51
180
0
LINE
8
BLACK
6
CONTINUOUS
10
250.832
20
-209.3
11
263.832
21
-209.3
0
ARC
8
BLACK
10
244.782
20
-222.8
40
0.5
50
-90
51
-0
0
LINE
8
BLACK
6
CONTINUOUS
10
212.232
20
-209.8
11
212.232
21
-222.8
0
LINE
8
BLACK
6
CONTINUOUS
10
231.782
20
-209.3
11
244.782
21
-209.3
0
LINE
8
BLACK
6
CONTINUOUS
10
155.582
20
-209.3
11
168.582
21
-209.3
0
ARC
8
BLACK
10
174.632
20
-209.8
40
0.5
50
90
51
180
0
ARC
8
BLACK
10
231.782
20
-209.8
40
0.5
50
90
51
180
0
LINE
8
BLACK
6
CONTINUOUS
10
174.632
20
-209.3
11
187.632
21
-209.3
0
LINE
8
BLACK
6
CONTINUOUS
10
155.582
20
-223.3
11
168.582
21
-223.3
0
ARC
8
BLACK
10
155.582
20
-209.8
40
0.5
50
90
51
180
0
ARC
8
BLACK
10
244.782
20
-209.8
40
0.5
50
-0
51
90
0
ARC
8
BLACK
10
136.532
20
-222.8
40
0.5
50
180
51
270
0
ARC
8
BLACK
10
225.732
20
-209.8
40
0.5
50
-0
51
90
0
ARC
8
BLACK
10
168.582
20
-222.8
40
0.5
50
-90
51
-0
0
ARC
8
BLACK
10
187.632
20
-209.8
40
0.5
50
-0
51
90
0
ARC
8
BLACK
10
136.532
20
-209.8
40
0.5
50
90
51
180
0
LINE
8
BLACK
6
CONTINUOUS
10
212.732
20
-209.3
11
225.732
21
-209.3
0
ARC
8
BLACK
10
193.683
20
-222.8
40
0.5
50
180
51
270
0
ARC
8
BLACK
10
155.582
20
-222.8
40
0.5
50
180
51
270
0
ARC
8
BLACK
10
187.632
20
-222.8
40
0.5
50
-90
51
-0
0
ARC
8
BLACK
10
149.532
20
-222.8
40
0.5
50
-90
51
-0
0
LINE
8
BLACK
6
CONTINUOUS
10
193.183
20
-209.8
11
193.183
21
-222.8
0
LINE
8
BLACK
6
CONTINUOUS
10
155.082
20
-209.8
11
155.082
21
-222.8
0
ARC
8
BLACK
10
250.832
20
-222.8
40
0.5
50
180
51
270
0
LINE
8
BLACK
6
CONTINUOUS
10
264.332
20
-209.8
11
264.332
21
-222.8
0
ARC
8
BLACK
10
249.545
20
-133.6
40
0.5
50
-0
51
90
0
ARC
8
BLACK
10
230.495
20
-133.6
40
0.5
50
-0
51
90
0
ARC
8
BLACK
10
150.82
20
-146.6
40
0.5
50
180
51
270
0
ARC
8
BLACK
10
249.545
20
-146.6
40
0.5
50
-90
51
-0
0
LINE
8
BLACK
6
CONTINUOUS
10
211.945
20
-133.6
11
211.945
21
-146.6
0
LINE
8
BLACK
6
CONTINUOUS
10
316.72
20
-133.6
11
316.72
21
-146.6
0
LINE
8
BLACK
6
CONTINUOUS
10
302.72
20
-133.6
11
302.72
21
-146.6
0
LINE
8
BLACK
6
CONTINUOUS
10
297.67
20
-133.6
11
297.67
21
-146.6
0
ARC
8
BLACK
10
297.17
20
-146.6
40
0.5
50
-90
51
-0
0
ARC
8
BLACK
10
268.595
20
-133.6
40
0.5
50
-0
51
90
0
ARC
8
BLACK
10
255.595
20
-133.6
40
0.5
50
90
51
180
0
LINE
8
BLACK
6
CONTINUOUS
10
269.095
20
-133.6
11
269.095
21
-146.6
0
LINE
8
BLACK
6
CONTINUOUS
10
236.545
20
-147.1
11
249.545
21
-147.1
0
ARC
8
BLACK
10
236.545
20
-133.6
40
0.5
50
90
51
180
0
LINE
8
BLACK
6
CONTINUOUS
10
236.545
20
-133.1
11
249.545
21
-133.1
0
LINE
8
BLACK
6
CONTINUOUS
10
250.045
20
-133.6
11
250.045
21
-146.6
0
ARC
8
BLACK
10
217.495
20
-133.6
40
0.5
50
90
51
180
0
ARC
8
BLACK
10
217.495
20
-146.6
40
0.5
50
180
51
270
0
LINE
8
BLACK
6
CONTINUOUS
10
230.995
20
-133.6
11
230.995
21
-146.6
0
LINE
8
BLACK
6
CONTINUOUS
10
197.945
20
-133.6
11
197.945
21
-146.6
0
LINE
8
BLACK
6
CONTINUOUS
10
183.37
20
-133.6
11
183.37
21
-146.6
0
ARC
8
BLACK
10
169.87
20
-133.6
40
0.5
50
90
51
180
0
LINE
8
BLACK
6
CONTINUOUS
10
255.095
20
-133.6
11
255.095
21
-146.6
0
LINE
8
BLACK
6
CONTINUOUS
10
255.595
20
-147.1
11
268.595
21
-147.1
0
ARC
8
BLACK
10
182.87
20
-146.6
40
0.5
50
-90
51
-0
0
LINE
8
BLACK
6
CONTINUOUS
10
255.595
20
-133.1
11
268.595
21
-133.1
0
LINE
8
BLACK
6
CONTINUOUS
10
217.495
20
-133.1
11
230.495
21
-133.1
0
ARC
8
BLACK
10
198.445
20
-146.6
40
0.5
50
180
51
270
0
ARC
8
BLACK
10
198.445
20
-133.6
40
0.5
50
90
51
180
0
ARC
8
BLACK
10
303.22
20
-146.6
40
0.5
50
180
51
270
0
ARC
8
BLACK
10
316.22
20
-133.6
40
0.5
50
-0
51
90
0
LINE
8
BLACK
6
CONTINUOUS
10
169.37
20
-133.6
11
169.37
21
-146.6
0
ARC
8
BLACK
10
303.22
20
-133.6
40
0.5
50
90
51
180
0
LINE
8
BLACK
6
CONTINUOUS
10
303.22
20
-147.1
11
316.22
21
-147.1
0
LINE
8
BLACK
6
CONTINUOUS
10
303.22
20
-133.1
11
316.22
21
-133.1
0
ARC
8
BLACK
10
284.17
20
-146.6
40
0.5
50
180
51
270
0
LINE
8
BLACK
6
CONTINUOUS
10
284.17
20
-133.1
11
297.17
21
-133.1
0
ARC
8
BLACK
10
268.595
20
-146.6
40
0.5
50
-90
51
-0
0
ARC
8
BLACK
10
255.595
20
-146.6
40
0.5
50
180
51
270
0
LINE
8
BLACK
6
CONTINUOUS
10
236.045
20
-133.6
11
236.045
21
-146.6
0
ARC
8
BLACK
10
211.445
20
-133.6
40
0.5
50
-0
51
90
0
ARC
8
BLACK
10
297.17
20
-133.6
40
0.5
50
-0
51
90
0
ARC
8
BLACK
10
163.82
20
-146.6
40
0.5
50
-90
51
-0
0
ARC
8
BLACK
10
236.545
20
-146.6
40
0.5
50
180
51
270
0
LINE
8
BLACK
6
CONTINUOUS
10
284.17
20
-147.1
11
297.17
21
-147.1
0
LINE
8
BLACK
6
CONTINUOUS
10
216.995
20
-133.6
11
216.995
21
-146.6
0
LINE
8
BLACK
6
CONTINUOUS
10
198.445
20
-133.1
11
211.445
21
-133.1
0
ARC
8
BLACK
10
211.445
20
-146.6
40
0.5
50
-90
51
-0
0
LINE
8
BLACK
6
CONTINUOUS
10
169.87
20
-147.1
11
182.87
21
-147.1
0
LINE
8
BLACK
6
CONTINUOUS
10
217.495
20
-147.1
11
230.495
21
-147.1
0
LINE
8
BLACK
6
CONTINUOUS
10
283.67
20
-133.6
11
283.67
21
-146.6
0
LINE
8
BLACK
6
CONTINUOUS
10
198.445
20
-147.1
11
211.445
21
-147.1
0
LINE
8
BLACK
6
CONTINUOUS
10
169.87
20
-133.1
11
182.87
21
-133.1
0
ARC
8
BLACK
10
230.495
20
-146.6
40
0.5
50
-90
51
-0
0
ARC
8
BLACK
10
182.87
20
-133.6
40
0.5
50
-0
51
90
0
ARC
8
BLACK
10
169.87
20
-146.6
40
0.5
50
180
51
270
0
ARC
8
BLACK
10
284.17
20
-133.6
40
0.5
50
90
51
180
0
LINE
8
BLACK
6
CONTINUOUS
10
145.27
20
-133.6
11
145.27
21
-146.6
0
LINE
8
BLACK
6
CONTINUOUS
10
150.82
20
-147.1
11
163.82
21
-147.1
0
ARC
8
BLACK
10
131.77
20
-146.6
40
0.5
50
180
51
270
0
ARC
8
BLACK
10
87.62
20
-124.075
40
0.5
50
-0
51
90
0
ARC
8
BLACK
10
131.77
20
-133.6
40
0.5
50
90
51
180
0
ARC
8
BLACK
10
125.72
20
-133.6
40
0.5
50
-0
51
90
0
ARC
8
BLACK
10
384.183
20
-137.075
40
0.5
50
180
51
270
0
ARC
8
BLACK
10
397.183
20
-124.075
40
0.5
50
-0
51
90
0
LINE
8
BLACK
6
CONTINUOUS
10
112.72
20
-133.1
11
125.72
21
-133.1
0
ARC
8
BLACK
10
384.183
20
-124.075
40
0.5
50
90
51
180
0
ARC
8
BLACK
10
378.132
20
-137.075
40
0.5
50
-90
51
-0
0
ARC
8
BLACK
10
87.62
20
-137.075
40
0.5
50
-90
51
-0
0
LINE
8
BLACK
6
CONTINUOUS
10
74.62
20
-123.575
11
87.62
21
-123.575
0
LINE
8
BLACK
6
CONTINUOUS
10
341.32
20
-128.05
11
354.32
21
-128.05
0
ARC
8
BLACK
10
341.32
20
-127.55
40
0.5
50
180
51
270
0
LINE
8
BLACK
6
CONTINUOUS
10
341.32
20
-114.05
11
354.32
21
-114.05
0
LINE
8
BLACK
6
CONTINUOUS
10
378.632
20
-124.075
11
378.632
21
-137.075
0
LINE
8
BLACK
6
CONTINUOUS
10
88.12
20
-124.075
11
88.12
21
-137.075
0
ARC
8
BLACK
10
112.72
20
-146.6
40
0.5
50
180
51
270
0
ARC
8
BLACK
10
112.72
20
-133.6
40
0.5
50
90
51
180
0
ARC
8
BLACK
10
322.27
20
-127.55
40
0.5
50
180
51
270
0
LINE
8
BLACK
6
CONTINUOUS
10
384.183
20
-137.575
11
397.183
21
-137.575
0
LINE
8
BLACK
6
CONTINUOUS
10
340.82
20
-114.55
11
340.82
21
-127.55
0
LINE
8
BLACK
6
CONTINUOUS
10
126.22
20
-133.6
11
126.22
21
-146.6
0
LINE
8
BLACK
6
CONTINUOUS
10
112.72
20
-147.1
11
125.72
21
-147.1
0
ARC
8
BLACK
10
74.62
20
-124.075
40
0.5
50
90
51
180
0
LINE
8
BLACK
6
CONTINUOUS
10
74.62
20
-137.575
11
87.62
21
-137.575
0
LINE
8
BLACK
6
CONTINUOUS
10
397.683
20
-124.075
11
397.683
21
-137.075
0
ARC
8
BLACK
10
416.232
20
-137.075
40
0.5
50
-90
51
-0
0
ARC
8
BLACK
10
416.232
20
-124.075
40
0.5
50
-0
51
90
0
ARC
8
BLACK
10
403.232
20
-124.075
40
0.5
50
90
51
180
0
ARC
8
BLACK
10
365.132
20
-137.075
40
0.5
50
180
51
270
0
ARC
8
BLACK
10
354.32
20
-114.55
40
0.5
50
-0
51
90
0
ARC
8
BLACK
10
74.62
20
-137.075
40
0.5
50
180
51
270
0
LINE
8
BLACK
6
CONTINUOUS
10
365.132
20
-123.575
11
378.132
21
-123.575
0
LINE
8
BLACK
6
CONTINUOUS
10
74.12
20
-124.075
11
74.12
21
-137.075
0
ARC
8
BLACK
10
144.77
20
-133.6
40
0.5
50
-0
51
90
0
LINE
8
BLACK
6
CONTINUOUS
10
403.232
20
-137.575
11
416.232
21
-137.575
0
ARC
8
BLACK
10
403.232
20
-137.075
40
0.5
50
180
51
270
0
LINE
8
BLACK
6
CONTINUOUS
10
402.732
20
-124.075
11
402.732
21
-137.075
0
ARC
8
BLACK
10
144.77
20
-146.6
40
0.5
50
-90
51
-0
0
LINE
8
BLACK
6
CONTINUOUS
10
131.27
20
-133.6
11
131.27
21
-146.6
0
ARC
8
BLACK
10
365.132
20
-124.075
40
0.5
50
90
51
180
0
LINE
8
BLACK
6
CONTINUOUS
10
365.132
20
-137.575
11
378.132
21
-137.575
0
ARC
8
BLACK
10
378.132
20
-124.075
40
0.5
50
-0
51
90
0
LINE
8
BLACK
6
CONTINUOUS
10
364.632
20
-124.075
11
364.632
21
-137.075
0
LINE
8
BLACK
6
CONTINUOUS
10
131.77
20
-147.1
11
144.77
21
-147.1
0
LINE
8
BLACK
6
CONTINUOUS
10
112.22
20
-133.6
11
112.22
21
-146.6
0
ARC
8
BLACK
10
397.183
20
-137.075
40
0.5
50
-90
51
-0
0
LINE
8
BLACK
6
CONTINUOUS
10
131.77
20
-133.1
11
144.77
21
-133.1
0
ARC
8
BLACK
10
125.72
20
-146.6
40
0.5
50
-90
51
-0
0
LINE
8
BLACK
6
CONTINUOUS
10
416.732
20
-124.075
11
416.732
21
-137.075
0
LINE
8
BLACK
6
CONTINUOUS
10
384.183
20
-123.575
11
397.183
21
-123.575
0
ARC
8
BLACK
10
354.32
20
-127.55
40
0.5
50
-90
51
-0
0
LINE
8
BLACK
6
CONTINUOUS
10
150.82
20
-133.1
11
163.82
21
-133.1
0
LINE
8
BLACK
6
CONTINUOUS
10
383.683
20
-124.075
11
383.683
21
-137.075
0
LINE
8
BLACK
6
CONTINUOUS
10
403.232
20
-123.575
11
416.232
21
-123.575
0
LINE
8
BLACK
6
CONTINUOUS
10
354.82
20
-114.55
11
354.82
21
-127.55
0
ARC
8
BLACK
10
163.82
20
-133.6
40
0.5
50
-0
51
90
0
ARC
8
BLACK
10
150.82
20
-133.6
40
0.5
50
90
51
180
0
ARC
8
BLACK
10
341.32
20
-114.55
40
0.5
50
90
51
180
0
ARC
8
BLACK
10
335.27
20
-127.55
40
0.5
50
-90
51
-0
0
LINE
8
BLACK
6
CONTINUOUS
10
164.32
20
-133.6
11
164.32
21
-146.6
0
LINE
8
BLACK
6
CONTINUOUS
10
150.32
20
-133.6
11
150.32
21
-146.6
0
LINE
8
BLACK
6
CONTINUOUS
10
217.495
20
-114.05
11
230.495
21
-114.05
0
ARC
8
BLACK
10
198.445
20
-127.55
40
0.5
50
180
51
270
0
LINE
8
BLACK
6
CONTINUOUS
10
302.72
20
-114.55
11
302.72
21
-127.55
0
ARC
8
BLACK
10
236.545
20
-114.55
40
0.5
50
90
51
180
0
ARC
8
BLACK
10
169.87
20
-114.55
40
0.5
50
90
51
180
0
ARC
8
BLACK
10
255.595
20
-127.55
40
0.5
50
180
51
270
0
ARC
8
BLACK
10
303.22
20
-114.55
40
0.5
50
90
51
180
0
ARC
8
BLACK
10
297.17
20
-114.55
40
0.5
50
-0
51
90
0
LINE
8
BLACK
6
CONTINUOUS
10
297.67
20
-114.55
11
297.67
21
-127.55
0
ARC
8
BLACK
10
249.545
20
-114.55
40
0.5
50
-0
51
90
0
ARC
8
BLACK
10
230.495
20
-114.55
40
0.5
50
-0
51
90
0
LINE
8
BLACK
6
CONTINUOUS
10
250.045
20
-114.55
11
250.045
21
-127.55
0
ARC
8
BLACK
10
230.495
20
-127.55
40
0.5
50
-90
51
-0
0
ARC
8
BLACK
10
198.445
20
-114.55
40
0.5
50
90
51
180
0
LINE
8
BLACK
6
CONTINUOUS
10
236.045
20
-114.55
11
236.045
21
-127.55
0
ARC
8
BLACK
10
182.87
20
-127.55
40
0.5
50
-90
51
-0
0
ARC
8
BLACK
10
335.27
20
-114.55
40
0.5
50
-0
51
90
0
ARC
8
BLACK
10
217.495
20
-127.55
40
0.5
50
180
51
270
0
ARC
8
BLACK
10
249.545
20
-127.55
40
0.5
50
-90
51
-0
0
ARC
8
BLACK
10
322.27
20
-114.55
40
0.5
50
90
51
180
0
ARC
8
BLACK
10
303.22
20
-127.55
40
0.5
50
180
51
270
0
ARC
8
BLACK
10
236.545
20
-127.55
40
0.5
50
180
51
270
0
ARC
8
BLACK
10
255.595
20
-114.55
40
0.5
50
90
51
180
0
LINE
8
BLACK
6
CONTINUOUS
10
230.995
20
-114.55
11
230.995
21
-127.55
0
ARC
8
BLACK
10
150.82
20
-127.55
40
0.5
50
180
51
270
0
LINE
8
BLACK
6
CONTINUOUS
10
169.87
20
-114.05
11
182.87
21
-114.05
0
LINE
8
BLACK
6
CONTINUOUS
10
197.945
20
-114.55
11
197.945
21
-127.55
0
LINE
8
BLACK
6
CONTINUOUS
10
322.27
20
-128.05
11
335.27
21
-128.05
0
LINE
8
BLACK
6
CONTINUOUS
10
236.545
20
-114.05
11
249.545
21
-114.05
0
LINE
8
BLACK
6
CONTINUOUS
10
303.22
20
-128.05
11
316.22
21
-128.05
0
ARC
8
BLACK
10
211.445
20
-127.55
40
0.5
50
-90
51
-0
0
LINE
8
BLACK
6
CONTINUOUS
10
169.87
20
-128.05
11
182.87
21
-128.05
0
LINE
8
BLACK
6
CONTINUOUS
10
183.37
20
-114.55
11
183.37
21
-127.55
0
LINE
8
BLACK
6
CONTINUOUS
10
335.77
20
-114.55
11
335.77
21
-127.55
0
LINE
8
BLACK
6
CONTINUOUS
10
321.77
20
-114.55
11
321.77
21
-127.55
0
LINE
8
BLACK
6
CONTINUOUS
10
283.67
20
-114.55
11
283.67
21
-127.55
0
ARC
8
BLACK
10
217.495
20
-114.55
40
0.5
50
90
51
180
0
ARC
8
BLACK
10
163.82
20
-127.55
40
0.5
50
-90
51
-0
0
LINE
8
BLACK
6
CONTINUOUS
10
322.27
20
-114.05
11
335.27
21
-114.05
0
ARC
8
BLACK
10
316.22
20
-127.55
40
0.5
50
-90
51
-0
0
ARC
8
BLACK
10
284.17
20
-114.55
40
0.5
50
90
51
180
0
LINE
8
BLACK
6
CONTINUOUS
10
284.17
20
-128.05
11
297.17
21
-128.05
0
LINE
8
BLACK
6
CONTINUOUS
10
198.445
20
-114.05
11
211.445
21
-114.05
0
LINE
8
BLACK
6
CONTINUOUS
10
255.595
20
-128.05
11
268.595
21
-128.05
0
ARC
8
BLACK
10
268.595
20
-114.55
40
0.5
50
-0
51
90
0
LINE
8
BLACK
6
CONTINUOUS
10
169.37
20
-114.55
11
169.37
21
-127.55
0
LINE
8
BLACK
6
CONTINUOUS
10
255.095
20
-114.55
11
255.095
21
-127.55
0
LINE
8
BLACK
6
CONTINUOUS
10
217.495
20
-128.05
11
230.495
21
-128.05
0
ARC
8
BLACK
10
182.87
20
-114.55
40
0.5
50
-0
51
90
0
LINE
8
BLACK
6
CONTINUOUS
10
198.445
20
-128.05
11
211.445
21
-128.05
0
LINE
8
BLACK
6
CONTINUOUS
10
316.72
20
-114.55
11
316.72
21
-127.55
0
LINE
8
BLACK
6
CONTINUOUS
10
284.17
20
-114.05
11
297.17
21
-114.05
0
LINE
8
BLACK
6
CONTINUOUS
10
211.945
20
-114.55
11
211.945
21
-127.55
0
ARC
8
BLACK
10
211.445
20
-114.55
40
0.5
50
-0
51
90
0
LINE
8
BLACK
6
CONTINUOUS
10
303.22
20
-114.05
11
316.22
21
-114.05
0
ARC
8
BLACK
10
297.17
20
-127.55
40
0.5
50
-90
51
-0
0
ARC
8
BLACK
10
268.595
20
-127.55
40
0.5
50
-90
51
-0
0
LINE
8
BLACK
6
CONTINUOUS
10
216.995
20
-114.55
11
216.995
21
-127.55
0
LINE
8
BLACK
6
CONTINUOUS
10
255.595
20
-114.05
11
268.595
21
-114.05
0
LINE
8
BLACK
6
CONTINUOUS
10
236.545
20
-128.05
11
249.545
21
-128.05
0
ARC
8
BLACK
10
169.87
20
-127.55
40
0.5
50
180
51
270
0
LINE
8
BLACK
6
CONTINUOUS
10
269.095
20
-114.55
11
269.095
21
-127.55
0
ARC
8
BLACK
10
284.17
20
-127.55
40
0.5
50
180
51
270
0
ARC
8
BLACK
10
316.22
20
-114.55
40
0.5
50
-0
51
90
0
ARC
8
BLACK
10
220.97
20
-152.65
40
0.5
50
-0
51
90
0
ARC
8
BLACK
10
240.02
20
-152.65
40
0.5
50
-0
51
90
0
LINE
8
BLACK
6
CONTINUOUS
10
227.02
20
-152.15
11
240.02
21
-152.15
0
ARC
8
BLACK
10
316.22
20
-165.65
40
0.5
50
-90
51
-0
0
ARC
8
BLACK
10
303.22
20
-165.65
40
0.5
50
180
51
270
0
ARC
8
BLACK
10
316.22
20
-152.65
40
0.5
50
-0
51
90
0
ARC
8
BLACK
10
303.22
20
-152.65
40
0.5
50
90
51
180
0
LINE
8
BLACK
6
CONTINUOUS
10
316.72
20
-152.65
11
316.72
21
-165.65
0
ARC
8
BLACK
10
284.17
20
-165.65
40
0.5
50
180
51
270
0
ARC
8
BLACK
10
297.17
20
-152.65
40
0.5
50
-0
51
90
0
LINE
8
BLACK
6
CONTINUOUS
10
283.67
20
-152.65
11
283.67
21
-165.65
0
LINE
8
BLACK
6
CONTINUOUS
10
188.42
20
-152.65
11
188.42
21
-165.65
0
LINE
8
BLACK
6
CONTINUOUS
10
284.17
20
-152.15
11
297.17
21
-152.15
0
ARC
8
BLACK
10
201.92
20
-165.65
40
0.5
50
-90
51
-0
0
ARC
8
BLACK
10
265.12
20
-152.65
40
0.5
50
90
51
180
0
ARC
8
BLACK
10
227.02
20
-152.65
40
0.5
50
90
51
180
0
LINE
8
BLACK
6
CONTINUOUS
10
240.52
20
-152.65
11
240.52
21
-165.65
0
ARC
8
BLACK
10
259.07
20
-152.65
40
0.5
50
-0
51
90
0
ARC
8
BLACK
10
207.97
20
-165.65
40
0.5
50
180
51
270
0
ARC
8
BLACK
10
246.07
20
-165.65
40
0.5
50
180
51
270
0
ARC
8
BLACK
10
265.12
20
-165.65
40
0.5
50
180
51
270
0
LINE
8
BLACK
6
CONTINUOUS
10
265.12
20
-166.15
11
278.12
21
-166.15
0
ARC
8
BLACK
10
201.92
20
-152.65
40
0.5
50
-0
51
90
0
ARC
8
BLACK
10
188.92
20
-165.65
40
0.5
50
180
51
270
0
LINE
8
BLACK
6
CONTINUOUS
10
303.22
20
-166.15
11
316.22
21
-166.15
0
LINE
8
BLACK
6
CONTINUOUS
10
207.97
20
-152.15
11
220.97
21
-152.15
0
LINE
8
BLACK
6
CONTINUOUS
10
202.42
20
-152.65
11
202.42
21
-165.65
0
LINE
8
BLACK
6
CONTINUOUS
10
302.72
20
-152.65
11
302.72
21
-165.65
0
LINE
8
BLACK
6
CONTINUOUS
10
303.22
20
-152.15
11
316.22
21
-152.15
0
ARC
8
BLACK
10
246.07
20
-152.65
40
0.5
50
90
51
180
0
LINE
8
BLACK
6
CONTINUOUS
10
188.92
20
-166.15
11
201.92
21
-166.15
0
ARC
8
BLACK
10
182.87
20
-165.65
40
0.5
50
-90
51
-0
0
ARC
8
BLACK
10
220.97
20
-165.65
40
0.5
50
-90
51
-0
0
ARC
8
BLACK
10
284.17
20
-152.65
40
0.5
50
90
51
180
0
ARC
8
BLACK
10
278.12
20
-165.65
40
0.5
50
-90
51
-0
0
LINE
8
BLACK
6
CONTINUOUS
10
188.92
20
-152.15
11
201.92
21
-152.15
0
LINE
8
BLACK
6
CONTINUOUS
10
297.67
20
-152.65
11
297.67
21
-165.65
0
LINE
8
BLACK
6
CONTINUOUS
10
284.17
20
-166.15
11
297.17
21
-166.15
0
LINE
8
BLACK
6
CONTINUOUS
10
246.07
20
-166.15
11
259.07
21
-166.15
0
ARC
8
BLACK
10
227.02
20
-165.65
40
0.5
50
180
51
270
0
LINE
8
BLACK
6
CONTINUOUS
10
227.02
20
-166.15
11
240.02
21
-166.15
0
LINE
8
BLACK
6
CONTINUOUS
10
264.62
20
-152.65
11
264.62
21
-165.65
0
ARC
8
BLACK
10
188.92
20
-152.65
40
0.5
50
90
51
180
0
LINE
8
BLACK
6
CONTINUOUS
10
259.57
20
-152.65
11
259.57
21
-165.65
0
LINE
8
BLACK
6
CONTINUOUS
10
221.47
20
-152.65
11
221.47
21
-165.65
0
LINE
8
BLACK
6
CONTINUOUS
10
207.47
20
-152.65
11
207.47
21
-165.65
0
ARC
8
BLACK
10
207.97
20
-152.65
40
0.5
50
90
51
180
0
LINE
8
BLACK
6
CONTINUOUS
10
207.97
20
-166.15
11
220.97
21
-166.15
0
LINE
8
BLACK
6
CONTINUOUS
10
226.52
20
-152.65
11
226.52
21
-165.65
0
LINE
8
BLACK
6
CONTINUOUS
10
278.62
20
-152.65
11
278.62
21
-165.65
0
LINE
8
BLACK
6
CONTINUOUS
10
245.57
20
-152.65
11
245.57
21
-165.65
0
ARC
8
BLACK
10
297.17
20
-165.65
40
0.5
50
-90
51
-0
0
ARC
8
BLACK
10
259.07
20
-165.65
40
0.5
50
-90
51
-0
0
LINE
8
BLACK
6
CONTINUOUS
10
265.12
20
-152.15
11
278.12
21
-152.15
0
ARC
8
BLACK
10
278.12
20
-152.65
40
0.5
50
-0
51
90
0
LINE
8
BLACK
6
CONTINUOUS
10
246.07
20
-152.15
11
259.07
21
-152.15
0
ARC
8
BLACK
10
240.02
20
-165.65
40
0.5
50
-90
51
-0
0
ARC
8
BLACK
10
74.62
20
-152.65
40
0.5
50
90
51
180
0
ARC
8
BLACK
10
93.67
20
-152.65
40
0.5
50
90
51
180
0
ARC
8
BLACK
10
335.27
20
-133.6
40
0.5
50
-0
51
90
0
ARC
8
BLACK
10
322.27
20
-146.6
40
0.5
50
180
51
270
0
ARC
8
BLACK
10
163.82
20
-152.65
40
0.5
50
-0
51
90
0
LINE
8
BLACK
6
CONTINUOUS
10
150.82
20
-166.15
11
163.82
21
-166.15
0
LINE
8
BLACK
6
CONTINUOUS
10
131.77
20
-166.15
11
144.77
21
-166.15
0
ARC
8
BLACK
10
106.67
20
-165.65
40
0.5
50
-90
51
-0
0
LINE
8
BLACK
6
CONTINUOUS
10
74.62
20
-152.15
11
87.62
21
-152.15
0
LINE
8
BLACK
6
CONTINUOUS
10
93.67
20
-166.15
11
106.67
21
-166.15
0
LINE
8
BLACK
6
CONTINUOUS
10
341.32
20
-133.1
11
354.32
21
-133.1
0
ARC
8
BLACK
10
354.32
20
-146.6
40
0.5
50
-90
51
-0
0
LINE
8
BLACK
6
CONTINUOUS
10
354.82
20
-133.6
11
354.82
21
-146.6
0
ARC
8
BLACK
10
335.27
20
-146.6
40
0.5
50
-90
51
-0
0
ARC
8
BLACK
10
316.22
20
-146.6
40
0.5
50
-90
51
-0
0
LINE
8
BLACK
6
CONTINUOUS
10
107.17
20
-152.65
11
107.17
21
-165.65
0
ARC
8
BLACK
10
144.77
20
-152.65
40
0.5
50
-0
51
90
0
ARC
8
BLACK
10
125.72
20
-152.65
40
0.5
50
-0
51
90
0
LINE
8
BLACK
6
CONTINUOUS
10
164.32
20
-152.65
11
164.32
21
-165.65
0
LINE
8
BLACK
6
CONTINUOUS
10
150.82
20
-152.15
11
163.82
21
-152.15
0
ARC
8
BLACK
10
87.62
20
-152.65
40
0.5
50
-0
51
90
0
LINE
8
BLACK
6
CONTINUOUS
10
131.27
20
-152.65
11
131.27
21
-165.65
0
ARC
8
BLACK
10
112.72
20
-165.65
40
0.5
50
180
51
270
0
LINE
8
BLACK
6
CONTINUOUS
10
93.67
20
-152.15
11
106.67
21
-152.15
0
LINE
8
BLACK
6
CONTINUOUS
10
340.82
20
-133.6
11
340.82
21
-146.6
0
LINE
8
BLACK
6
CONTINUOUS
10
74.12
20
-152.65
11
74.12
21
-165.65
0
ARC
8
BLACK
10
341.32
20
-146.6
40
0.5
50
180
51
270
0
LINE
8
BLACK
6
CONTINUOUS
10
321.77
20
-133.6
11
321.77
21
-146.6
0
LINE
8
BLACK
6
CONTINUOUS
10
131.77
20
-152.15
11
144.77
21
-152.15
0
ARC
8
BLACK
10
322.27
20
-133.6
40
0.5
50
90
51
180
0
ARC
8
BLACK
10
112.72
20
-152.65
40
0.5
50
90
51
180
0
LINE
8
BLACK
6
CONTINUOUS
10
126.22
20
-152.65
11
126.22
21
-165.65
0
LINE
8
BLACK
6
CONTINUOUS
10
112.22
20
-152.65
11
112.22
21
-165.65
0
LINE
8
BLACK
6
CONTINUOUS
10
112.72
20
-166.15
11
125.72
21
-166.15
0
ARC
8
BLACK
10
74.62
20
-165.65
40
0.5
50
180
51
270
0
ARC
8
BLACK
10
354.32
20
-133.6
40
0.5
50
-0
51
90
0
ARC
8
BLACK
10
169.87
20
-152.65
40
0.5
50
90
51
180
0
LINE
8
BLACK
6
CONTINUOUS
10
183.37
20
-152.65
11
183.37
21
-165.65
0
ARC
8
BLACK
10
144.77
20
-165.65
40
0.5
50
-90
51
-0
0
ARC
8
BLACK
10
131.77
20
-165.65
40
0.5
50
180
51
270
0
LINE
8
BLACK
6
CONTINUOUS
10
145.27
20
-152.65
11
145.27
21
-165.65
0
LINE
8
BLACK
6
CONTINUOUS
10
341.32
20
-147.1
11
354.32
21
-147.1
0
ARC
8
BLACK
10
93.67
20
-165.65
40
0.5
50
180
51
270
0
LINE
8
BLACK
6
CONTINUOUS
10
112.72
20
-152.15
11
125.72
21
-152.15
0
LINE
8
BLACK
6
CONTINUOUS
10
322.27
20
-133.1
11
335.27
21
-133.1
0
ARC
8
BLACK
10
131.77
20
-152.65
40
0.5
50
90
51
180
0
ARC
8
BLACK
10
169.87
20
-165.65
40
0.5
50
180
51
270
0
ARC
8
BLACK
10
182.87
20
-152.65
40
0.5
50
-0
51
90
0
LINE
8
BLACK
6
CONTINUOUS
10
169.87
20
-166.15
11
182.87
21
-166.15
0
LINE
8
BLACK
6
CONTINUOUS
10
169.37
20
-152.65
11
169.37
21
-165.65
0
ARC
8
BLACK
10
150.82
20
-152.65
40
0.5
50
90
51
180
0
LINE
8
BLACK
6
CONTINUOUS
10
150.32
20
-152.65
11
150.32
21
-165.65
0
ARC
8
BLACK
10
87.62
20
-165.65
40
0.5
50
-90
51
-0
0
LINE
8
BLACK
6
CONTINUOUS
10
88.12
20
-152.65
11
88.12
21
-165.65
0
LINE
8
BLACK
6
CONTINUOUS
10
322.27
20
-147.1
11
335.27
21
-147.1
0
LINE
8
BLACK
6
CONTINUOUS
10
74.62
20
-166.15
11
87.62
21
-166.15
0
LINE
8
BLACK
6
CONTINUOUS
10
169.87
20
-152.15
11
182.87
21
-152.15
0
ARC
8
BLACK
10
341.32
20
-133.6
40
0.5
50
90
51
180
0
LINE
8
BLACK
6
CONTINUOUS
10
335.77
20
-133.6
11
335.77
21
-146.6
0
ARC
8
BLACK
10
163.82
20
-165.65
40
0.5
50
-90
51
-0
0
ARC
8
BLACK
10
106.67
20
-152.65
40
0.5
50
-0
51
90
0
LINE
8
BLACK
6
CONTINUOUS
10
93.17
20
-152.65
11
93.17
21
-165.65
0
ARC
8
BLACK
10
150.82
20
-165.65
40
0.5
50
180
51
270
0
ARC
8
BLACK
10
125.72
20
-165.65
40
0.5
50
-90
51
-0
0
ARC
8
BLACK
10
459.095
20
-165.65
40
0.5
50
-90
51
-0
0
ARC
8
BLACK
10
427.045
20
-152.65
40
0.5
50
90
51
180
0
LINE
8
BLACK
6
CONTINUOUS
10
329.857
20
-153.65
11
329.857
21
-167.65
0
LINE
8
BLACK
6
CONTINUOUS
10
365.132
20
-152.15
11
378.132
21
-152.15
0
LINE
8
BLACK
6
CONTINUOUS
10
331.795
20
-166.15
11
344.795
21
-166.15
0
ARC
8
BLACK
10
446.095
20
-165.65
40
0.5
50
180
51
270
0
ARC
8
BLACK
10
384.183
20
-165.65
40
0.5
50
180
51
270
0
ARC
8
BLACK
10
353.233
20
-153.65
40
0.5
50
-0
51
90
0
ARC
8
BLACK
10
459.095
20
-152.65
40
0.5
50
-0
51
90
0
ARC
8
BLACK
10
446.095
20
-152.65
40
0.5
50
90
51
180
0
LINE
8
BLACK
6
CONTINUOUS
10
427.045
20
-166.15
11
440.045
21
-166.15
0
LINE
8
BLACK
6
CONTINUOUS
10
323.357
20
-153.15
11
329.357
21
-153.15
0
LINE
8
BLACK
6
CONTINUOUS
10
384.183
20
-152.15
11
397.183
21
-152.15
0
ARC
8
BLACK
10
344.795
20
-165.65
40
0.5
50
-90
51
-0
0
LINE
8
BLACK
6
CONTINUOUS
10
378.632
20
-152.65
11
378.632
21
-165.65
0
LINE
8
BLACK
6
CONTINUOUS
10
322.857
20
-153.65
11
322.857
21
-167.65
0
LINE
8
BLACK
6
CONTINUOUS
10
459.595
20
-152.65
11
459.595
21
-165.65
0
ARC
8
BLACK
10
416.232
20
-165.65
40
0.5
50
-90
51
-0
0
LINE
8
BLACK
6
CONTINUOUS
10
397.683
20
-152.65
11
397.683
21
-165.65
0
ARC
8
BLACK
10
416.232
20
-152.65
40
0.5
50
-0
51
90
0
ARC
8
BLACK
10
397.183
20
-165.65
40
0.5
50
-90
51
-0
0
ARC
8
BLACK
10
323.357
20
-167.65
40
0.5
50
180
51
270
0
ARC
8
BLACK
10
344.795
20
-152.65
40
0.5
50
-0
51
90
0
ARC
8
BLACK
10
331.795
20
-165.65
40
0.5
50
180
51
270
0
ARC
8
BLACK
10
353.233
20
-167.65
40
0.5
50
-90
51
-0
0
ARC
8
BLACK
10
365.132
20
-152.65
40
0.5
50
90
51
180
0
LINE
8
BLACK
6
CONTINUOUS
10
365.132
20
-166.15
11
378.132
21
-166.15
0
LINE
8
BLACK
6
CONTINUOUS
10
446.095
20
-152.15
11
459.095
21
-152.15
0
ARC
8
BLACK
10
440.045
20
-152.65
40
0.5
50
-0
51
90
0
LINE
8
BLACK
6
CONTINUOUS
10
402.732
20
-152.65
11
402.732
21
-165.65
0
ARC
8
BLACK
10
331.795
20
-152.65
40
0.5
50
90
51
180
0
LINE
8
BLACK
6
CONTINUOUS
10
345.295
20
-152.65
11
345.295
21
-165.65
0
LINE
8
BLACK
6
CONTINUOUS
10
331.295
20
-152.65
11
331.295
21
-165.65
0
ARC
8
BLACK
10
365.132
20
-165.65
40
0.5
50
180
51
270
0
LINE
8
BLACK
6
CONTINUOUS
10
445.595
20
-152.65
11
445.595
21
-165.65
0
ARC
8
BLACK
10
378.132
20
-165.65
40
0.5
50
-90
51
-0
0
LINE
8
BLACK
6
CONTINUOUS
10
440.545
20
-152.65
11
440.545
21
-165.65
0
LINE
8
BLACK
6
CONTINUOUS
10
426.545
20
-152.65
11
426.545
21
-165.65
0
LINE
8
BLACK
6
CONTINUOUS
10
427.045
20
-152.15
11
440.045
21
-152.15
0
LINE
8
BLACK
6
CONTINUOUS
10
403.232
20
-166.15
11
416.232
21
-166.15
0
ARC
8
BLACK
10
378.132
20
-152.65
40
0.5
50
-0
51
90
0
ARC
8
BLACK
10
329.357
20
-167.65
40
0.5
50
-90
51
-0
0
ARC
8
BLACK
10
329.357
20
-153.65
40
0.5
50
-0
51
90
0
LINE
8
BLACK
6
CONTINUOUS
10
347.233
20
-168.15
11
353.233
21
-168.15
0
LINE
8
BLACK
6
CONTINUOUS
10
347.233
20
-153.15
11
353.233
21
-153.15
0
LINE
8
BLACK
6
CONTINUOUS
10
346.733
20
-153.65
11
346.733
21
-167.65
0
ARC
8
BLACK
10
397.183
20
-152.65
40
0.5
50
-0
51
90
0
LINE
8
BLACK
6
CONTINUOUS
10
384.183
20
-166.15
11
397.183
21
-166.15
0
LINE
8
BLACK
6
CONTINUOUS
10
331.795
20
-152.15
11
344.795
21
-152.15
0
LINE
8
BLACK
6
CONTINUOUS
10
446.095
20
-166.15
11
459.095
21
-166.15
0
ARC
8
BLACK
10
403.232
20
-152.65
40
0.5
50
90
51
180
0
ARC
8
BLACK
10
440.045
20
-165.65
40
0.5
50
-90
51
-0
0
LINE
8
BLACK
6
CONTINUOUS
10
353.733
20
-153.65
11
353.733
21
-167.65
0
LINE
8
BLACK
6
CONTINUOUS
10
383.683
20
-152.65
11
383.683
21
-165.65
0
ARC
8
BLACK
10
347.233
20
-167.65
40
0.5
50
180
51
270
0
ARC
8
BLACK
10
427.045
20
-165.65
40
0.5
50
180
51
270
0
ARC
8
BLACK
10
403.232
20
-165.65
40
0.5
50
180
51
270
0
ARC
8
BLACK
10
384.183
20
-152.65
40
0.5
50
90
51
180
0
LINE
8
BLACK
6
CONTINUOUS
10
364.632
20
-152.65
11
364.632
21
-165.65
0
ARC
8
BLACK
10
347.233
20
-153.65
40
0.5
50
90
51
180
0
ARC
8
BLACK
10
323.357
20
-153.65
40
0.5
50
90
51
180
0
LINE
8
BLACK
6
CONTINUOUS
10
323.357
20
-168.15
11
329.357
21
-168.15
0
LINE
8
BLACK
6
CONTINUOUS
10
416.732
20
-152.65
11
416.732
21
-165.65
0
LINE
8
BLACK
6
CONTINUOUS
10
403.232
20
-152.15
11
416.232
21
-152.15
0
LINE
8
BLACK
6
CONTINUOUS
10
297.957
20
-190.75
11
297.957
21
-203.75
0
ARC
8
BLACK
10
292.407
20
-190.75
40
0.5
50
-0
51
90
0
ARC
8
BLACK
10
184.157
20
-203.75
40
0.5
50
180
51
270
0
LINE
8
BLACK
6
CONTINUOUS
10
222.257
20
-190.25
11
235.257
21
-190.25
0
ARC
8
BLACK
10
273.358
20
-203.75
40
0.5
50
-90
51
-0
0
ARC
8
BLACK
10
273.358
20
-190.75
40
0.5
50
-0
51
90
0
ARC
8
BLACK
10
241.307
20
-203.75
40
0.5
50
180
51
270
0
LINE
8
BLACK
6
CONTINUOUS
10
241.307
20
-190.25
11
254.307
21
-190.25
0
ARC
8
BLACK
10
203.207
20
-190.75
40
0.5
50
90
51
180
0
LINE
8
BLACK
6
CONTINUOUS
10
235.757
20
-190.75
11
235.757
21
-203.75
0
LINE
8
BLACK
6
CONTINUOUS
10
203.207
20
-204.25
11
216.207
21
-204.25
0
LINE
8
BLACK
6
CONTINUOUS
10
184.157
20
-190.25
11
197.157
21
-190.25
0
LINE
8
BLACK
6
CONTINUOUS
10
203.207
20
-190.25
11
216.207
21
-190.25
0
LINE
8
BLACK
6
CONTINUOUS
10
298.457
20
-190.25
11
311.457
21
-190.25
0
LINE
8
BLACK
6
CONTINUOUS
10
292.907
20
-190.75
11
292.907
21
-203.75
0
LINE
8
BLACK
6
CONTINUOUS
10
254.807
20
-190.75
11
254.807
21
-203.75
0
LINE
8
BLACK
6
CONTINUOUS
10
259.858
20
-190.75
11
259.858
21
-203.75
0
ARC
8
BLACK
10
203.207
20
-203.75
40
0.5
50
180
51
270
0
LINE
8
BLACK
6
CONTINUOUS
10
202.707
20
-190.75
11
202.707
21
-203.75
0
ARC
8
BLACK
10
254.307
20
-203.75
40
0.5
50
-90
51
-0
0
ARC
8
BLACK
10
222.257
20
-190.75
40
0.5
50
90
51
180
0
LINE
8
BLACK
6
CONTINUOUS
10
222.257
20
-204.25
11
235.257
21
-204.25
0
LINE
8
BLACK
6
CONTINUOUS
10
197.657
20
-190.75
11
197.657
21
-203.75
0
ARC
8
BLACK
10
197.157
20
-190.75
40
0.5
50
-0
51
90
0
LINE
8
BLACK
6
CONTINUOUS
10
298.457
20
-204.25
11
311.457
21
-204.25
0
LINE
8
BLACK
6
CONTINUOUS
10
278.907
20
-190.75
11
278.907
21
-203.75
0
LINE
8
BLACK
6
CONTINUOUS
10
279.407
20
-190.25
11
292.407
21
-190.25
0
ARC
8
BLACK
10
222.257
20
-203.75
40
0.5
50
180
51
270
0
LINE
8
BLACK
6
CONTINUOUS
10
260.358
20
-204.25
11
273.358
21
-204.25
0
ARC
8
BLACK
10
235.257
20
-203.75
40
0.5
50
-90
51
-0
0
ARC
8
BLACK
10
292.407
20
-203.75
40
0.5
50
-90
51
-0
0
ARC
8
BLACK
10
260.358
20
-190.75
40
0.5
50
90
51
180
0
ARC
8
BLACK
10
279.407
20
-203.75
40
0.5
50
180
51
270
0
ARC
8
BLACK
10
260.358
20
-203.75
40
0.5
50
180
51
270
0
ARC
8
BLACK
10
216.207
20
-203.75
40
0.5
50
-90
51
-0
0
ARC
8
BLACK
10
235.257
20
-190.75
40
0.5
50
-0
51
90
0
LINE
8
BLACK
6
CONTINUOUS
10
184.157
20
-204.25
11
197.157
21
-204.25
0
ARC
8
BLACK
10
254.307
20
-190.75
40
0.5
50
-0
51
90
0
LINE
8
BLACK
6
CONTINUOUS
10
241.307
20
-204.25
11
254.307
21
-204.25
0
LINE
8
BLACK
6
CONTINUOUS
10
311.957
20
-190.75
11
311.957
21
-203.75
0
ARC
8
BLACK
10
279.407
20
-190.75
40
0.5
50
90
51
180
0
LINE
8
BLACK
6
CONTINUOUS
10
279.407
20
-204.25
11
292.407
21
-204.25
0
LINE
8
BLACK
6
CONTINUOUS
10
273.858
20
-190.75
11
273.858
21
-203.75
0
LINE
8
BLACK
6
CONTINUOUS
10
240.807
20
-190.75
11
240.807
21
-203.75
0
LINE
8
BLACK
6
CONTINUOUS
10
183.657
20
-190.75
11
183.657
21
-203.75
0
ARC
8
BLACK
10
241.307
20
-190.75
40
0.5
50
90
51
180
0
LINE
8
BLACK
6
CONTINUOUS
10
216.707
20
-190.75
11
216.707
21
-203.75
0
ARC
8
BLACK
10
184.157
20
-190.75
40
0.5
50
90
51
180
0
ARC
8
BLACK
10
216.207
20
-190.75
40
0.5
50
-0
51
90
0
ARC
8
BLACK
10
197.157
20
-203.75
40
0.5
50
-90
51
-0
0
LINE
8
BLACK
6
CONTINUOUS
10
221.757
20
-190.75
11
221.757
21
-203.75
0
LINE
8
BLACK
6
CONTINUOUS
10
260.358
20
-190.25
11
273.358
21
-190.25
0
ARC
8
BLACK
10
107.957
20
-190.75
40
0.5
50
90
51
180
0
LINE
8
BLACK
6
CONTINUOUS
10
107.457
20
-190.75
11
107.457
21
-203.75
0
LINE
8
BLACK
6
CONTINUOUS
10
146.058
20
-190.25
11
159.058
21
-190.25
0
LINE
8
BLACK
6
CONTINUOUS
10
496.195
20
-179.287
11
482.195
21
-179.287
0
LINE
8
BLACK
6
CONTINUOUS
10
81.7638
20
-190.25
11
94.7638
21
-190.25
0
LINE
8
BLACK
6
CONTINUOUS
10
164.607
20
-190.75
11
164.607
21
-203.75
0
ARC
8
BLACK
10
178.107
20
-203.75
40
0.5
50
-90
51
-0
0
LINE
8
BLACK
6
CONTINUOUS
10
497.195
20
-180.725
11
484.195
21
-180.725
0
LINE
8
BLACK
6
CONTINUOUS
10
165.107
20
-190.25
11
178.107
21
-190.25
0
LINE
8
BLACK
6
CONTINUOUS
10
146.058
20
-204.25
11
159.058
21
-204.25
0
LINE
8
BLACK
6
CONTINUOUS
10
127.007
20
-204.25
11
140.007
21
-204.25
0
ARC
8
BLACK
10
140.007
20
-203.75
40
0.5
50
-90
51
-0
0
LINE
8
BLACK
6
CONTINUOUS
10
140.507
20
-190.75
11
140.507
21
-203.75
0
LINE
8
BLACK
6
CONTINUOUS
10
107.957
20
-190.25
11
120.957
21
-190.25
0
ARC
8
BLACK
10
127.007
20
-203.75
40
0.5
50
180
51
270
0
LINE
8
BLACK
6
CONTINUOUS
10
95.2638
20
-190.75
11
95.2638
21
-203.75
0
LINE
8
BLACK
6
CONTINUOUS
10
159.558
20
-190.75
11
159.558
21
-203.75
0
LINE
8
BLACK
6
CONTINUOUS
10
126.507
20
-190.75
11
126.507
21
-203.75
0
LINE
8
BLACK
6
CONTINUOUS
10
145.558
20
-190.75
11
145.558
21
-203.75
0
ARC
8
BLACK
10
120.957
20
-203.75
40
0.5
50
-90
51
-0
0
ARC
8
BLACK
10
496.195
20
-172.787
40
0.5
50
-0
51
90
0
LINE
8
BLACK
6
CONTINUOUS
10
496.195
20
-172.287
11
482.195
21
-172.287
0
ARC
8
BLACK
10
496.195
20
-202.663
40
0.5
50
-90
51
-0
0
LINE
8
BLACK
6
CONTINUOUS
10
481.695
20
-196.663
11
481.695
21
-202.663
0
LINE
8
BLACK
6
CONTINUOUS
10
497.195
20
-194.725
11
484.195
21
-194.725
0
LINE
8
BLACK
6
CONTINUOUS
10
496.195
20
-203.163
11
482.195
21
-203.163
0
ARC
8
BLACK
10
81.7638
20
-203.75
40
0.5
50
180
51
270
0
LINE
8
BLACK
6
CONTINUOUS
10
496.695
20
-172.787
11
496.695
21
-178.787
0
ARC
8
BLACK
10
127.007
20
-190.75
40
0.5
50
90
51
180
0
LINE
8
BLACK
6
CONTINUOUS
10
121.457
20
-190.75
11
121.457
21
-203.75
0
ARC
8
BLACK
10
482.195
20
-178.787
40
0.5
50
180
51
270
0
ARC
8
BLACK
10
496.195
20
-178.787
40
0.5
50
-90
51
-0
0
ARC
8
BLACK
10
484.195
20
-181.225
40
0.5
50
90
51
180
0
ARC
8
BLACK
10
165.107
20
-203.75
40
0.5
50
180
51
270
0
ARC
8
BLACK
10
178.107
20
-190.75
40
0.5
50
-0
51
90
0
ARC
8
BLACK
10
165.107
20
-190.75
40
0.5
50
90
51
180
0
LINE
8
BLACK
6
CONTINUOUS
10
127.007
20
-190.25
11
140.007
21
-190.25
0
LINE
8
BLACK
6
CONTINUOUS
10
178.607
20
-190.75
11
178.607
21
-203.75
0
LINE
8
BLACK
6
CONTINUOUS
10
165.107
20
-204.25
11
178.107
21
-204.25
0
ARC
8
BLACK
10
159.058
20
-203.75
40
0.5
50
-90
51
-0
0
ARC
8
BLACK
10
146.058
20
-203.75
40
0.5
50
180
51
270
0
ARC
8
BLACK
10
159.058
20
-190.75
40
0.5
50
-0
51
90
0
ARC
8
BLACK
10
81.7638
20
-190.75
40
0.5
50
90
51
180
0
ARC
8
BLACK
10
482.195
20
-172.787
40
0.5
50
90
51
180
0
ARC
8
BLACK
10
496.195
20
-196.663
40
0.5
50
-0
51
90
0
ARC
8
BLACK
10
497.195
20
-194.225
40
0.5
50
-90
51
-0
0
LINE
8
BLACK
6
CONTINUOUS
10
483.695
20
-181.225
11
483.695
21
-194.225
0
ARC
8
BLACK
10
120.957
20
-190.75
40
0.5
50
-0
51
90
0
LINE
8
BLACK
6
CONTINUOUS
10
81.7638
20
-204.25
11
94.7638
21
-204.25
0
ARC
8
BLACK
10
94.7638
20
-190.75
40
0.5
50
-0
51
90
0
LINE
8
BLACK
6
CONTINUOUS
10
496.695
20
-196.663
11
496.695
21
-202.663
0
ARC
8
BLACK
10
94.7638
20
-203.75
40
0.5
50
-90
51
-0
0
LINE
8
BLACK
6
CONTINUOUS
10
481.695
20
-172.787
11
481.695
21
-178.787
0
LINE
8
BLACK
6
CONTINUOUS
10
107.957
20
-204.25
11
120.957
21
-204.25
0
ARC
8
BLACK
10
146.058
20
-190.75
40
0.5
50
90
51
180
0
ARC
8
BLACK
10
140.007
20
-190.75
40
0.5
50
-0
51
90
0
ARC
8
BLACK
10
107.957
20
-203.75
40
0.5
50
180
51
270
0
LINE
8
BLACK
6
CONTINUOUS
10
81.2638
20
-190.75
11
81.2638
21
-203.75
0
LINE
8
BLACK
6
CONTINUOUS
10
497.695
20
-181.225
11
497.695
21
-194.225
0
LINE
8
BLACK
6
CONTINUOUS
10
496.195
20
-196.163
11
482.195
21
-196.163
0
ARC
8
BLACK
10
482.195
20
-202.663
40
0.5
50
180
51
270
0
ARC
8
BLACK
10
482.195
20
-196.663
40
0.5
50
90
51
180
0
ARC
8
BLACK
10
484.195
20
-194.225
40
0.5
50
180
51
270
0
ARC
8
BLACK
10
497.195
20
-181.225
40
0.5
50
-0
51
90
0
LINE
8
BLACK
6
CONTINUOUS
10
351.439
20
-172.787
11
351.439
21
-178.787
0
ARC
8
BLACK
10
336.939
20
-196.663
40
0.5
50
90
51
180
0
LINE
8
BLACK
6
CONTINUOUS
10
426.545
20
-171.7
11
426.545
21
-184.7
0
ARC
8
BLACK
10
365.132
20
-171.7
40
0.5
50
90
51
180
0
LINE
8
BLACK
6
CONTINUOUS
10
446.095
20
-171.2
11
459.095
21
-171.2
0
ARC
8
BLACK
10
384.183
20
-184.7
40
0.5
50
180
51
270
0
ARC
8
BLACK
10
440.045
20
-171.7
40
0.5
50
-0
51
90
0
ARC
8
BLACK
10
427.045
20
-171.7
40
0.5
50
90
51
180
0
LINE
8
BLACK
6
CONTINUOUS
10
416.732
20
-171.7
11
416.732
21
-184.7
0
ARC
8
BLACK
10
378.132
20
-171.7
40
0.5
50
-0
51
90
0
ARC
8
BLACK
10
350.939
20
-178.787
40
0.5
50
-90
51
-0
0
LINE
8
BLACK
6
CONTINUOUS
10
378.632
20
-171.7
11
378.632
21
-184.7
0
ARC
8
BLACK
10
336.939
20
-178.787
40
0.5
50
180
51
270
0
ARC
8
BLACK
10
350.939
20
-196.663
40
0.5
50
-0
51
90
0
ARC
8
BLACK
10
403.232
20
-171.7
40
0.5
50
90
51
180
0
LINE
8
BLACK
6
CONTINUOUS
10
364.632
20
-171.7
11
364.632
21
-184.7
0
ARC
8
BLACK
10
478.145
20
-184.7
40
0.5
50
-90
51
-0
0
ARC
8
BLACK
10
336.939
20
-172.787
40
0.5
50
90
51
180
0
ARC
8
BLACK
10
378.132
20
-184.7
40
0.5
50
-90
51
-0
0
LINE
8
BLACK
6
CONTINUOUS
10
465.145
20
-171.2
11
478.145
21
-171.2
0
LINE
8
BLACK
6
CONTINUOUS
10
445.595
20
-171.7
11
445.595
21
-184.7
0
ARC
8
BLACK
10
365.132
20
-184.7
40
0.5
50
180
51
270
0
ARC
8
BLACK
10
427.045
20
-184.7
40
0.5
50
180
51
270
0
ARC
8
BLACK
10
459.095
20
-171.7
40
0.5
50
-0
51
90
0
ARC
8
BLACK
10
384.183
20
-171.7
40
0.5
50
90
51
180
0
LINE
8
BLACK
6
CONTINUOUS
10
350.939
20
-179.287
11
336.939
21
-179.287
0
LINE
8
BLACK
6
CONTINUOUS
10
350.939
20
-196.163
11
336.939
21
-196.163
0
ARC
8
BLACK
10
416.232
20
-184.7
40
0.5
50
-90
51
-0
0
LINE
8
BLACK
6
CONTINUOUS
10
365.132
20
-171.2
11
378.132
21
-171.2
0
LINE
8
BLACK
6
CONTINUOUS
10
427.045
20
-185.2
11
440.045
21
-185.2
0
ARC
8
BLACK
10
465.145
20
-184.7
40
0.5
50
180
51
270
0
ARC
8
BLACK
10
336.939
20
-202.663
40
0.5
50
180
51
270
0
ARC
8
BLACK
10
478.145
20
-171.7
40
0.5
50
-0
51
90
0
LINE
8
BLACK
6
CONTINUOUS
10
464.645
20
-171.7
11
464.645
21
-184.7
0
LINE
8
BLACK
6
CONTINUOUS
10
478.645
20
-171.7
11
478.645
21
-184.7
0
LINE
8
BLACK
6
CONTINUOUS
10
402.732
20
-171.7
11
402.732
21
-184.7
0
ARC
8
BLACK
10
350.939
20
-172.787
40
0.5
50
-0
51
90
0
ARC
8
BLACK
10
465.145
20
-171.7
40
0.5
50
90
51
180
0
LINE
8
BLACK
6
CONTINUOUS
10
465.145
20
-185.2
11
478.145
21
-185.2
0
ARC
8
BLACK
10
446.095
20
-184.7
40
0.5
50
180
51
270
0
LINE
8
BLACK
6
CONTINUOUS
10
459.595
20
-171.7
11
459.595
21
-184.7
0
LINE
8
BLACK
6
CONTINUOUS
10
446.095
20
-185.2
11
459.095
21
-185.2
0
LINE
8
BLACK
6
CONTINUOUS
10
351.439
20
-196.663
11
351.439
21
-202.663
0
LINE
8
BLACK
6
CONTINUOUS
10
384.183
20
-185.2
11
397.183
21
-185.2
0
ARC
8
BLACK
10
416.232
20
-171.7
40
0.5
50
-0
51
90
0
LINE
8
BLACK
6
CONTINUOUS
10
403.232
20
-185.2
11
416.232
21
-185.2
0
ARC
8
BLACK
10
397.183
20
-171.7
40
0.5
50
-0
51
90
0
LINE
8
BLACK
6
CONTINUOUS
10
383.683
20
-171.7
11
383.683
21
-184.7
0
LINE
8
BLACK
6
CONTINUOUS
10
336.439
20
-172.787
11
336.439
21
-178.787
0
LINE
8
BLACK
6
CONTINUOUS
10
336.439
20
-196.663
11
336.439
21
-202.663
0
ARC
8
BLACK
10
440.045
20
-184.7
40
0.5
50
-90
51
-0
0
LINE
8
BLACK
6
CONTINUOUS
10
403.232
20
-171.2
11
416.232
21
-171.2
0
LINE
8
BLACK
6
CONTINUOUS
10
350.939
20
-203.163
11
336.939
21
-203.163
0
ARC
8
BLACK
10
350.939
20
-202.663
40
0.5
50
-90
51
-0
0
ARC
8
BLACK
10
403.232
20
-184.7
40
0.5
50
180
51
270
0
LINE
8
BLACK
6
CONTINUOUS
10
440.545
20
-171.7
11
440.545
21
-184.7
0
ARC
8
BLACK
10
397.183
20
-184.7
40
0.5
50
-90
51
-0
0
LINE
8
BLACK
6
CONTINUOUS
10
350.939
20
-172.287
11
336.939
21
-172.287
0
LINE
8
BLACK
6
CONTINUOUS
10
427.045
20
-171.2
11
440.045
21
-171.2
0
LINE
8
BLACK
6
CONTINUOUS
10
384.183
20
-171.2
11
397.183
21
-171.2
0
LINE
8
BLACK
6
CONTINUOUS
10
365.132
20
-185.2
11
378.132
21
-185.2
0
LINE
8
BLACK
6
CONTINUOUS
10
397.683
20
-171.7
11
397.683
21
-184.7
0
ARC
8
BLACK
10
459.095
20
-184.7
40
0.5
50
-90
51
-0
0
ARC
8
BLACK
10
446.095
20
-171.7
40
0.5
50
90
51
180
0
LINE
8
BLACK
6
CONTINUOUS
10
216.995
20
-171.7
11
216.995
21
-184.7
0
LINE
8
BLACK
6
CONTINUOUS
10
236.545
20
-171.2
11
249.545
21
-171.2
0
ARC
8
BLACK
10
268.595
20
-171.7
40
0.5
50
-0
51
90
0
LINE
8
BLACK
6
CONTINUOUS
10
352.439
20
-181.225
11
352.439
21
-194.225
0
ARC
8
BLACK
10
312.745
20
-184.7
40
0.5
50
180
51
270
0
LINE
8
BLACK
6
CONTINUOUS
10
326.245
20
-171.7
11
326.245
21
-184.7
0
ARC
8
BLACK
10
306.695
20
-171.7
40
0.5
50
-0
51
90
0
ARC
8
BLACK
10
293.695
20
-171.7
40
0.5
50
90
51
180
0
ARC
8
BLACK
10
198.445
20
-184.7
40
0.5
50
180
51
270
0
ARC
8
BLACK
10
325.745
20
-171.7
40
0.5
50
-0
51
90
0
ARC
8
BLACK
10
306.695
20
-184.7
40
0.5
50
-90
51
-0
0
ARC
8
BLACK
10
230.495
20
-171.7
40
0.5
50
-0
51
90
0
LINE
8
BLACK
6
CONTINUOUS
10
293.195
20
-171.7
11
293.195
21
-184.7
0
LINE
8
BLACK
6
CONTINUOUS
10
198.445
20
-185.2
11
211.445
21
-185.2
0
ARC
8
BLACK
10
211.445
20
-171.7
40
0.5
50
-0
51
90
0
LINE
8
BLACK
6
CONTINUOUS
10
293.695
20
-171.2
11
306.695
21
-171.2
0
LINE
8
BLACK
6
CONTINUOUS
10
288.145
20
-171.7
11
288.145
21
-184.7
0
ARC
8
BLACK
10
274.645
20
-184.7
40
0.5
50
180
51
270
0
ARC
8
BLACK
10
287.645
20
-171.7
40
0.5
50
-0
51
90
0
ARC
8
BLACK
10
255.595
20
-171.7
40
0.5
50
90
51
180
0
LINE
8
BLACK
6
CONTINUOUS
10
230.995
20
-171.7
11
230.995
21
-184.7
0
ARC
8
BLACK
10
274.645
20
-171.7
40
0.5
50
90
51
180
0
ARC
8
BLACK
10
255.595
20
-184.7
40
0.5
50
180
51
270
0
LINE
8
BLACK
6
CONTINUOUS
10
255.595
20
-171.2
11
268.595
21
-171.2
0
LINE
8
BLACK
6
CONTINUOUS
10
198.445
20
-171.2
11
211.445
21
-171.2
0
ARC
8
BLACK
10
268.595
20
-184.7
40
0.5
50
-90
51
-0
0
LINE
8
BLACK
6
CONTINUOUS
10
217.495
20
-171.2
11
230.495
21
-171.2
0
ARC
8
BLACK
10
198.445
20
-171.7
40
0.5
50
90
51
180
0
LINE
8
BLACK
6
CONTINUOUS
10
269.095
20
-171.7
11
269.095
21
-184.7
0
LINE
8
BLACK
6
CONTINUOUS
10
236.545
20
-185.2
11
249.545
21
-185.2
0
ARC
8
BLACK
10
236.545
20
-171.7
40
0.5
50
90
51
180
0
LINE
8
BLACK
6
CONTINUOUS
10
338.439
20
-181.225
11
338.439
21
-194.225
0
LINE
8
BLACK
6
CONTINUOUS
10
255.095
20
-171.7
11
255.095
21
-184.7
0
ARC
8
BLACK
10
249.545
20
-184.7
40
0.5
50
-90
51
-0
0
ARC
8
BLACK
10
217.495
20
-171.7
40
0.5
50
90
51
180
0
LINE
8
BLACK
6
CONTINUOUS
10
211.945
20
-171.7
11
211.945
21
-184.7
0
ARC
8
BLACK
10
338.939
20
-194.225
40
0.5
50
180
51
270
0
ARC
8
BLACK
10
325.745
20
-184.7
40
0.5
50
-90
51
-0
0
ARC
8
BLACK
10
230.495
20
-184.7
40
0.5
50
-90
51
-0
0
LINE
8
BLACK
6
CONTINUOUS
10
312.245
20
-171.7
11
312.245
21
-184.7
0
LINE
8
BLACK
6
CONTINUOUS
10
307.195
20
-171.7
11
307.195
21
-184.7
0
LINE
8
BLACK
6
CONTINUOUS
10
255.595
20
-185.2
11
268.595
21
-185.2
0
ARC
8
BLACK
10
338.939
20
-181.225
40
0.5
50
90
51
180
0
LINE
8
BLACK
6
CONTINUOUS
10
274.145
20
-171.7
11
274.145
21
-184.7
0
LINE
8
BLACK
6
CONTINUOUS
10
351.939
20
-180.725
11
338.939
21
-180.725
0
ARC
8
BLACK
10
217.495
20
-184.7
40
0.5
50
180
51
270
0
ARC
8
BLACK
10
351.939
20
-194.225
40
0.5
50
-90
51
-0
0
ARC
8
BLACK
10
351.939
20
-181.225
40
0.5
50
-0
51
90
0
LINE
8
BLACK
6
CONTINUOUS
10
351.939
20
-194.725
11
338.939
21
-194.725
0
ARC
8
BLACK
10
312.745
20
-171.7
40
0.5
50
90
51
180
0
LINE
8
BLACK
6
CONTINUOUS
10
312.745
20
-171.2
11
325.745
21
-171.2
0
LINE
8
BLACK
6
CONTINUOUS
10
274.645
20
-171.2
11
287.645
21
-171.2
0
LINE
8
BLACK
6
CONTINUOUS
10
293.695
20
-185.2
11
306.695
21
-185.2
0
LINE
8
BLACK
6
CONTINUOUS
10
217.495
20
-185.2
11
230.495
21
-185.2
0
LINE
8
BLACK
6
CONTINUOUS
10
236.045
20
-171.7
11
236.045
21
-184.7
0
ARC
8
BLACK
10
211.445
20
-184.7
40
0.5
50
-90
51
-0
0
ARC
8
BLACK
10
249.545
20
-171.7
40
0.5
50
-0
51
90
0
LINE
8
BLACK
6
CONTINUOUS
10
274.645
20
-185.2
11
287.645
21
-185.2
0
LINE
8
BLACK
6
CONTINUOUS
10
197.945
20
-171.7
11
197.945
21
-184.7
0
ARC
8
BLACK
10
293.695
20
-184.7
40
0.5
50
180
51
270
0
LINE
8
BLACK
6
CONTINUOUS
10
250.045
20
-171.7
11
250.045
21
-184.7
0
ARC
8
BLACK
10
236.545
20
-184.7
40
0.5
50
180
51
270
0
ARC
8
BLACK
10
287.645
20
-184.7
40
0.5
50
-90
51
-0
0
LINE
8
BLACK
6
CONTINUOUS
10
312.745
20
-185.2
11
325.745
21
-185.2
0
LINE
8
BLACK
6
CONTINUOUS
10
478.645
20
-152.65
11
478.645
21
-165.65
0
LINE
8
BLACK
6
CONTINUOUS
10
497.695
20
-152.65
11
497.695
21
-165.65
0
ARC
8
BLACK
10
465.145
20
-165.65
40
0.5
50
180
51
270
0
ARC
8
BLACK
10
179.395
20
-171.7
40
0.5
50
90
51
180
0
ARC
8
BLACK
10
154.295
20
-184.7
40
0.5
50
-90
51
-0
0
LINE
8
BLACK
6
CONTINUOUS
10
116.695
20
-171.7
11
116.695
21
-184.7
0
LINE
8
BLACK
6
CONTINUOUS
10
192.895
20
-171.7
11
192.895
21
-184.7
0
ARC
8
BLACK
10
173.345
20
-171.7
40
0.5
50
-0
51
90
0
ARC
8
BLACK
10
160.345
20
-171.7
40
0.5
50
90
51
180
0
LINE
8
BLACK
6
CONTINUOUS
10
173.845
20
-171.7
11
173.845
21
-184.7
0
ARC
8
BLACK
10
141.295
20
-171.7
40
0.5
50
90
51
180
0
LINE
8
BLACK
6
CONTINUOUS
10
154.795
20
-171.7
11
154.795
21
-184.7
0
LINE
8
BLACK
6
CONTINUOUS
10
141.295
20
-185.2
11
154.295
21
-185.2
0
LINE
8
BLACK
6
CONTINUOUS
10
464.645
20
-152.65
11
464.645
21
-165.65
0
LINE
8
BLACK
6
CONTINUOUS
10
141.295
20
-171.2
11
154.295
21
-171.2
0
ARC
8
BLACK
10
122.245
20
-184.7
40
0.5
50
180
51
270
0
LINE
8
BLACK
6
CONTINUOUS
10
483.695
20
-152.65
11
483.695
21
-165.65
0
ARC
8
BLACK
10
122.245
20
-171.7
40
0.5
50
90
51
180
0
LINE
8
BLACK
6
CONTINUOUS
10
484.195
20
-166.15
11
497.195
21
-166.15
0
LINE
8
BLACK
6
CONTINUOUS
10
135.745
20
-171.7
11
135.745
21
-184.7
0
ARC
8
BLACK
10
465.145
20
-152.65
40
0.5
50
90
51
180
0
LINE
8
BLACK
6
CONTINUOUS
10
102.695
20
-171.7
11
102.695
21
-184.7
0
LINE
8
BLACK
6
CONTINUOUS
10
92.8825
20
-171.7
11
92.8825
21
-184.7
0
ARC
8
BLACK
10
79.3825
20
-171.7
40
0.5
50
90
51
180
0
ARC
8
BLACK
10
192.395
20
-184.7
40
0.5
50
-90
51
-0
0
LINE
8
BLACK
6
CONTINUOUS
10
159.845
20
-171.7
11
159.845
21
-184.7
0
LINE
8
BLACK
6
CONTINUOUS
10
465.145
20
-152.15
11
478.145
21
-152.15
0
ARC
8
BLACK
10
92.3825
20
-184.7
40
0.5
50
-90
51
-0
0
LINE
8
BLACK
6
CONTINUOUS
10
160.345
20
-185.2
11
173.345
21
-185.2
0
LINE
8
BLACK
6
CONTINUOUS
10
122.245
20
-171.2
11
135.245
21
-171.2
0
ARC
8
BLACK
10
103.195
20
-184.7
40
0.5
50
180
51
270
0
ARC
8
BLACK
10
103.195
20
-171.7
40
0.5
50
90
51
180
0
LINE
8
BLACK
6
CONTINUOUS
10
160.345
20
-171.2
11
173.345
21
-171.2
0
ARC
8
BLACK
10
179.395
20
-184.7
40
0.5
50
180
51
270
0
LINE
8
BLACK
6
CONTINUOUS
10
465.145
20
-166.15
11
478.145
21
-166.15
0
LINE
8
BLACK
6
CONTINUOUS
10
78.8825
20
-171.7
11
78.8825
21
-184.7
0
ARC
8
BLACK
10
478.145
20
-152.65
40
0.5
50
-0
51
90
0
ARC
8
BLACK
10
192.395
20
-171.7
40
0.5
50
-0
51
90
0
LINE
8
BLACK
6
CONTINUOUS
10
178.895
20
-171.7
11
178.895
21
-184.7
0
ARC
8
BLACK
10
173.345
20
-184.7
40
0.5
50
-90
51
-0
0
ARC
8
BLACK
10
160.345
20
-184.7
40
0.5
50
180
51
270
0
LINE
8
BLACK
6
CONTINUOUS
10
140.795
20
-171.7
11
140.795
21
-184.7
0
ARC
8
BLACK
10
116.195
20
-171.7
40
0.5
50
-0
51
90
0
ARC
8
BLACK
10
484.195
20
-152.65
40
0.5
50
90
51
180
0
ARC
8
BLACK
10
478.145
20
-165.65
40
0.5
50
-90
51
-0
0
LINE
8
BLACK
6
CONTINUOUS
10
179.395
20
-171.2
11
192.395
21
-171.2
0
LINE
8
BLACK
6
CONTINUOUS
10
179.395
20
-185.2
11
192.395
21
-185.2
0
ARC
8
BLACK
10
497.195
20
-165.65
40
0.5
50
-90
51
-0
0
ARC
8
BLACK
10
141.295
20
-184.7
40
0.5
50
180
51
270
0
ARC
8
BLACK
10
154.295
20
-171.7
40
0.5
50
-0
51
90
0
LINE
8
BLACK
6
CONTINUOUS
10
121.745
20
-171.7
11
121.745
21
-184.7
0
ARC
8
BLACK
10
116.195
20
-184.7
40
0.5
50
-90
51
-0
0
LINE
8
BLACK
6
CONTINUOUS
10
103.195
20
-171.2
11
116.195
21
-171.2
0
LINE
8
BLACK
6
CONTINUOUS
10
79.3825
20
-185.2
11
92.3825
21
-185.2
0
LINE
8
BLACK
6
CONTINUOUS
10
484.195
20
-152.15
11
497.195
21
-152.15
0
LINE
8
BLACK
6
CONTINUOUS
10
122.245
20
-185.2
11
135.245
21
-185.2
0
ARC
8
BLACK
10
135.245
20
-184.7
40
0.5
50
-90
51
-0
0
LINE
8
BLACK
6
CONTINUOUS
10
103.195
20
-185.2
11
116.195
21
-185.2
0
LINE
8
BLACK
6
CONTINUOUS
10
79.3825
20
-171.2
11
92.3825
21
-171.2
0
ARC
8
BLACK
10
135.245
20
-171.7
40
0.5
50
-0
51
90
0
ARC
8
BLACK
10
79.3825
20
-184.7
40
0.5
50
180
51
270
0
ARC
8
BLACK
10
92.3825
20
-171.7
40
0.5
50
-0
51
90
0
ARC
8
BLACK
10
484.195
20
-165.65
40
0.5
50
180
51
270
0
ARC
8
BLACK
10
497.195
20
-152.65
40
0.5
50
-0
51
90
0
LINE
8
BLACK
6
CONTINUOUS
10
117.483
20
-209.3
11
130.482
21
-209.3
0
LINE
8
BLACK
6
CONTINUOUS
10
98.4325
20
-223.3
11
111.432
21
-223.3
0
LINE
8
BLACK
6
CONTINUOUS
10
317.507
20
-204.25
11
330.507
21
-204.25
0
ARC
8
BLACK
10
111.432
20
-222.8
40
0.5
50
-90
51
-0
0
ARC
8
BLACK
10
111.432
20
-209.8
40
0.5
50
-0
51
90
0
ARC
8
BLACK
10
478.145
20
-203.75
40
0.5
50
-90
51
-0
0
ARC
8
BLACK
10
98.4325
20
-209.8
40
0.5
50
90
51
180
0
LINE
8
BLACK
6
CONTINUOUS
10
446.095
20
-204.25
11
459.095
21
-204.25
0
LINE
8
BLACK
6
CONTINUOUS
10
446.095
20
-190.25
11
459.095
21
-190.25
0
LINE
8
BLACK
6
CONTINUOUS
10
97.9325
20
-209.8
11
97.9325
21
-222.8
0
LINE
8
BLACK
6
CONTINUOUS
10
98.4325
20
-209.3
11
111.432
21
-209.3
0
ARC
8
BLACK
10
90.0012
20
-222.8
40
0.5
50
-90
51
-0
0
ARC
8
BLACK
10
77.0012
20
-209.8
40
0.5
50
90
51
180
0
LINE
8
BLACK
6
CONTINUOUS
10
478.645
20
-190.75
11
478.645
21
-203.75
0
ARC
8
BLACK
10
427.045
20
-203.75
40
0.5
50
180
51
270
0
LINE
8
BLACK
6
CONTINUOUS
10
459.595
20
-190.75
11
459.595
21
-203.75
0
ARC
8
BLACK
10
330.507
20
-203.75
40
0.5
50
-90
51
-0
0
LINE
8
BLACK
6
CONTINUOUS
10
426.545
20
-190.75
11
426.545
21
-203.75
0
LINE
8
BLACK
6
CONTINUOUS
10
427.045
20
-204.25
11
440.045
21
-204.25
0
LINE
8
BLACK
6
CONTINUOUS
10
317.507
20
-190.25
11
330.507
21
-190.25
0
LINE
8
BLACK
6
CONTINUOUS
10
465.145
20
-190.25
11
478.145
21
-190.25
0
LINE
8
BLACK
6
CONTINUOUS
10
427.045
20
-190.25
11
440.045
21
-190.25
0
ARC
8
BLACK
10
459.095
20
-203.75
40
0.5
50
-90
51
-0
0
ARC
8
BLACK
10
298.457
20
-190.75
40
0.5
50
90
51
180
0
LINE
8
BLACK
6
CONTINUOUS
10
317.007
20
-190.75
11
317.007
21
-203.75
0
ARC
8
BLACK
10
427.045
20
-190.75
40
0.5
50
90
51
180
0
LINE
8
BLACK
6
CONTINUOUS
10
331.007
20
-190.75
11
331.007
21
-203.75
0
ARC
8
BLACK
10
465.145
20
-203.75
40
0.5
50
180
51
270
0
LINE
8
BLACK
6
CONTINUOUS
10
76.5012
20
-209.8
11
76.5012
21
-222.8
0
ARC
8
BLACK
10
311.457
20
-203.75
40
0.5
50
-90
51
-0
0
LINE
8
BLACK
6
CONTINUOUS
10
77.0012
20
-209.3
11
90.0012
21
-209.3
0
ARC
8
BLACK
10
478.145
20
-190.75
40
0.5
50
-0
51
90
0
ARC
8
BLACK
10
117.483
20
-209.8
40
0.5
50
90
51
180
0
LINE
8
BLACK
6
CONTINUOUS
10
150.032
20
-209.8
11
150.032
21
-222.8
0
ARC
8
BLACK
10
446.095
20
-203.75
40
0.5
50
180
51
270
0
ARC
8
BLACK
10
298.457
20
-203.75
40
0.5
50
180
51
270
0
LINE
8
BLACK
6
CONTINUOUS
10
136.032
20
-209.8
11
136.032
21
-222.8
0
LINE
8
BLACK
6
CONTINUOUS
10
136.532
20
-223.3
11
149.532
21
-223.3
0
LINE
8
BLACK
6
CONTINUOUS
10
136.532
20
-209.3
11
149.532
21
-209.3
0
ARC
8
BLACK
10
130.482
20
-222.8
40
0.5
50
-90
51
-0
0
ARC
8
BLACK
10
440.045
20
-203.75
40
0.5
50
-90
51
-0
0
ARC
8
BLACK
10
311.457
20
-190.75
40
0.5
50
-0
51
90
0
ARC
8
BLACK
10
98.4325
20
-222.8
40
0.5
50
180
51
270
0
ARC
8
BLACK
10
317.507
20
-203.75
40
0.5
50
180
51
270
0
LINE
8
BLACK
6
CONTINUOUS
10
77.0012
20
-223.3
11
90.0012
21
-223.3
0
ARC
8
BLACK
10
117.483
20
-222.8
40
0.5
50
180
51
270
0
ARC
8
BLACK
10
130.482
20
-209.8
40
0.5
50
-0
51
90
0
LINE
8
BLACK
6
CONTINUOUS
10
130.982
20
-209.8
11
130.982
21
-222.8
0
LINE
8
BLACK
6
CONTINUOUS
10
116.983
20
-209.8
11
116.983
21
-222.8
0
LINE
8
BLACK
6
CONTINUOUS
10
111.932
20
-209.8
11
111.932
21
-222.8
0
LINE
8
BLACK
6
CONTINUOUS
10
90.5012
20
-209.8
11
90.5012
21
-222.8
0
ARC
8
BLACK
10
317.507
20
-190.75
40
0.5
50
90
51
180
0
ARC
8
BLACK
10
440.045
20
-190.75
40
0.5
50
-0
51
90
0
ARC
8
BLACK
10
77.0012
20
-222.8
40
0.5
50
180
51
270
0
ARC
8
BLACK
10
459.095
20
-190.75
40
0.5
50
-0
51
90
0
ARC
8
BLACK
10
90.0012
20
-209.8
40
0.5
50
-0
51
90
0
ARC
8
BLACK
10
465.145
20
-190.75
40
0.5
50
90
51
180
0
ARC
8
BLACK
10
446.095
20
-190.75
40
0.5
50
90
51
180
0
ARC
8
BLACK
10
330.507
20
-190.75
40
0.5
50
-0
51
90
0
LINE
8
BLACK
6
CONTINUOUS
10
464.645
20
-190.75
11
464.645
21
-203.75
0
LINE
8
BLACK
6
CONTINUOUS
10
445.595
20
-190.75
11
445.595
21
-203.75
0
LINE
8
BLACK
6
CONTINUOUS
10
465.145
20
-204.25
11
478.145
21
-204.25
0
LINE
8
BLACK
6
CONTINUOUS
10
440.545
20
-190.75
11
440.545
21
-203.75
0
LINE
8
BLACK
6
CONTINUOUS
10
117.483
20
-223.3
11
130.482
21
-223.3
0
LINE
8
BLACK
6
CONTINUOUS
10
126.22
20
-114.55
11
126.22
21
-127.55
0
ARC
8
BLACK
10
163.82
20
-114.55
40
0.5
50
-0
51
90
0
LINE
8
BLACK
6
CONTINUOUS
10
150.82
20
-128.05
11
163.82
21
-128.05
0
LINE
8
BLACK
6
CONTINUOUS
10
150.82
20
-114.05
11
163.82
21
-114.05
0
ARC
8
BLACK
10
144.77
20
-127.55
40
0.5
50
-90
51
-0
0
ARC
8
BLACK
10
131.77
20
-127.55
40
0.5
50
180
51
270
0
ARC
8
BLACK
10
131.77
20
-114.55
40
0.5
50
90
51
180
0
LINE
8
BLACK
6
CONTINUOUS
10
131.77
20
-128.05
11
144.77
21
-128.05
0
ARC
8
BLACK
10
125.72
20
-127.55
40
0.5
50
-90
51
-0
0
ARC
8
BLACK
10
112.72
20
-127.55
40
0.5
50
180
51
270
0
ARC
8
BLACK
10
125.72
20
-114.55
40
0.5
50
-0
51
90
0
LINE
8
BLACK
6
CONTINUOUS
10
112.72
20
-128.05
11
125.72
21
-128.05
0
ARC
8
BLACK
10
112.72
20
-114.55
40
0.5
50
90
51
180
0
LINE
8
BLACK
6
CONTINUOUS
10
112.22
20
-114.55
11
112.22
21
-127.55
0
ARC
8
BLACK
10
144.77
20
-114.55
40
0.5
50
-0
51
90
0
LINE
8
BLACK
6
CONTINUOUS
10
164.32
20
-114.55
11
164.32
21
-127.55
0
LINE
8
BLACK
6
CONTINUOUS
10
150.32
20
-114.55
11
150.32
21
-127.55
0
ARC
8
BLACK
10
150.82
20
-114.55
40
0.5
50
90
51
180
0
LINE
8
BLACK
6
CONTINUOUS
10
145.27
20
-114.55
11
145.27
21
-127.55
0
LINE
8
BLACK
6
CONTINUOUS
10
131.27
20
-114.55
11
131.27
21
-127.55
0
LINE
8
BLACK
6
CONTINUOUS
10
131.77
20
-114.05
11
144.77
21
-114.05
0
LINE
8
BLACK
6
CONTINUOUS
10
112.72
20
-114.05
11
125.72
21
-114.05
0
ARC
8
BLACK
10
499.01
20
-114.75
40
2
50
-0
51
90
0
ARC
8
BLACK
10
499.01
20
-244.05
40
2
50
-90
51
-0
0
ARC
8
BLACK
10
73.51
20
-244.05
40
2
50
180
51
270
0
ARC
8
BLACK
10
73.51
20
-114.75
40
2
50
90
51
180
0
LINE
8
BLACK
6
CONTINUOUS
10
71.51
20
-244.05
11
71.51
21
-114.75
0
LINE
8
BLACK
6
CONTINUOUS
10
499.01
20
-246.05
11
73.51
21
-246.05
0
LINE
8
BLACK
6
CONTINUOUS
10
501.01
20
-114.75
11
501.01
21
-244.05
0
LINE
8
BLACK
6
CONTINUOUS
10
73.51
20
-112.75
11
499.01
21
-112.75
0
CIRCLE
8
BLACK
10
332.185
20
-183.55
40
1.04216
0
CIRCLE
8
BLACK
10
105.86
20
-188
40
1.04216
0
CIRCLE
8
BLACK
10
195.435
20
-187.6
40
1.04216
0
CIRCLE
8
BLACK
10
460.385
20
-187.725
40
1.04216
0
CIRCLE
8
BLACK
10
276.91
20
-118.55
40
1.04216
0
CIRCLE
8
BLACK
10
285.91
20
-225.75
40
1.04216
0
CIRCLE
8
BLACK
10
497.91
20
-242.95
40
1.04216
0
CIRCLE
8
BLACK
10
74.11
20
-243.35
40
1.04216
0
CIRCLE
8
BLACK
10
496.51
20
-116.75
40
1.04216
0
CIRCLE
8
BLACK
10
75.51
20
-116.75
40
1.04216
  0
ENDSEC
  0
EOF
